<svg xmlns="http://www.w3.org/2000/svg" width="30.169" height="30.065" viewBox="0 0 30.169 30.065">
  <g id="Group_780" data-name="Group 780" transform="translate(0.75 0.75)">
    <path id="Path_329" data-name="Path 329" d="M23.354,6.852A5.85,5.85,0,1,1,17.5,1,5.853,5.853,0,0,1,23.354,6.852Z" transform="translate(5.315 -1)" fill="none" stroke="#f77d0f" stroke-linecap="round" stroke-linejoin="round" stroke-width="1.5" fill-rule="evenodd"/>
    <path id="Path_330" data-name="Path 330" d="M12.7,6.852A5.851,5.851,0,1,1,6.85,1,5.853,5.853,0,0,1,12.7,6.852Z" transform="translate(-1 -1)" fill="none" stroke="#f77d0f" stroke-linecap="round" stroke-linejoin="round" stroke-width="1.5" fill-rule="evenodd"/>
    <path id="Path_331" data-name="Path 331" d="M23.354,17.44A5.85,5.85,0,1,1,17.5,11.588,5.851,5.851,0,0,1,23.354,17.44Z" transform="translate(5.315 5.276)" fill="none" stroke="#f77d0f" stroke-linecap="round" stroke-linejoin="round" stroke-width="1.5" fill-rule="evenodd"/>
    <path id="Path_332" data-name="Path 332" d="M12.7,17.44A5.851,5.851,0,1,1,6.85,11.588,5.85,5.85,0,0,1,12.7,17.44Z" transform="translate(-1 5.276)" fill="none" stroke="#f77d0f" stroke-linecap="round" stroke-linejoin="round" stroke-width="1.5" fill-rule="evenodd"/>
  </g>
</svg>
