<svg width="36" height="36" viewBox="0 0 36 36" fill="none" xmlns="http://www.w3.org/2000/svg">
<path d="M1.33325 30.5C1.33325 28.2899 2.21123 26.1703 3.77403 24.6075C5.33683 23.0447 7.45645 22.1667 9.66658 22.1667H26.3333C28.5434 22.1667 30.663 23.0447 32.2258 24.6075C33.7886 26.1703 34.6666 28.2899 34.6666 30.5C34.6666 31.6051 34.2276 32.6649 33.4462 33.4463C32.6648 34.2277 31.605 34.6667 30.4999 34.6667H5.49992C4.39485 34.6667 3.33504 34.2277 2.55364 33.4463C1.77224 32.6649 1.33325 31.6051 1.33325 30.5Z" stroke="#281D6C" stroke-width="2" stroke-linejoin="round"/>
<path d="M18 13.8333C21.4518 13.8333 24.25 11.0351 24.25 7.58334C24.25 4.13156 21.4518 1.33334 18 1.33334C14.5482 1.33334 11.75 4.13156 11.75 7.58334C11.75 11.0351 14.5482 13.8333 18 13.8333Z" stroke="#281D6C" stroke-width="2"/>
</svg>
