<svg width="36" height="33" viewBox="0 0 36 33" fill="none" xmlns="http://www.w3.org/2000/svg">
<path d="M10.625 32.6667C12.3509 32.6667 13.75 31.2675 13.75 29.5417C13.75 27.8158 12.3509 26.4167 10.625 26.4167C8.89911 26.4167 7.5 27.8158 7.5 29.5417C7.5 31.2675 8.89911 32.6667 10.625 32.6667Z" fill="#281D6C"/>
<path d="M29.375 32.6667C31.1009 32.6667 32.5 31.2675 32.5 29.5417C32.5 27.8158 31.1009 26.4167 29.375 26.4167C27.6491 26.4167 26.25 27.8158 26.25 29.5417C26.25 31.2675 27.6491 32.6667 29.375 32.6667Z" fill="#281D6C"/>
<path d="M1.25 1.41666H5.41667L6.66667 7.66666M6.66667 7.66666L9.58333 22.25H30.4167L34.5833 7.66666H6.66667Z" stroke="#281D6C" stroke-width="2" stroke-linecap="round" stroke-linejoin="round"/>
</svg>
