<svg xmlns="http://www.w3.org/2000/svg" width="18.534" height="18.472" viewBox="0 0 18.534 18.472">
  <g id="Group_733" data-name="Group 733" transform="translate(0.75 0.75)">
    <path id="Path_329" data-name="Path 329" d="M18.606,4.477A3.476,3.476,0,1,1,15.129,1,3.478,3.478,0,0,1,18.606,4.477Z" transform="translate(-1.572 -1)" fill="none" stroke="#1d1a1b" stroke-linecap="round" stroke-linejoin="round" stroke-width="1.5" fill-rule="evenodd"/>
    <path id="Path_330" data-name="Path 330" d="M7.952,4.477A3.476,3.476,0,1,1,4.476,1,3.477,3.477,0,0,1,7.952,4.477Z" transform="translate(-1 -1)" fill="none" stroke="#1d1a1b" stroke-linecap="round" stroke-linejoin="round" stroke-width="1.5" fill-rule="evenodd"/>
    <path id="Path_331" data-name="Path 331" d="M18.606,15.065a3.476,3.476,0,1,1-3.477-3.477A3.476,3.476,0,0,1,18.606,15.065Z" transform="translate(-1.572 -1.568)" fill="none" stroke="#1d1a1b" stroke-linecap="round" stroke-linejoin="round" stroke-width="1.5" fill-rule="evenodd"/>
    <path id="Path_332" data-name="Path 332" d="M7.952,15.065a3.476,3.476,0,1,1-3.477-3.477A3.476,3.476,0,0,1,7.952,15.065Z" transform="translate(-1 -1.568)" fill="none" stroke="#1d1a1b" stroke-linecap="round" stroke-linejoin="round" stroke-width="1.5" fill-rule="evenodd"/>
  </g>
</svg>
