<svg width="56" height="56" viewBox="0 0 56 56" fill="none" xmlns="http://www.w3.org/2000/svg">
<path d="M28 18C22.475 18 18 22.475 18 28C18 33.525 22.475 38 28 38C33.525 38 38 33.525 38 28C38 22.475 33.525 18 28 18ZM50.35 25.5C49.7837 20.4303 47.5104 15.7038 43.9033 12.0967C40.2962 8.48962 35.5697 6.21628 30.5 5.65V0.5H25.5V5.65C20.4303 6.21628 15.7038 8.48962 12.0967 12.0967C8.48962 15.7038 6.21628 20.4303 5.65 25.5H0.5V30.5H5.65C6.21628 35.5697 8.48962 40.2962 12.0967 43.9033C15.7038 47.5104 20.4303 49.7837 25.5 50.35V55.5H30.5V50.35C35.5697 49.7837 40.2962 47.5104 43.9033 43.9033C47.5104 40.2962 49.7837 35.5697 50.35 30.5H55.5V25.5H50.35ZM28 45.5C18.325 45.5 10.5 37.675 10.5 28C10.5 18.325 18.325 10.5 28 10.5C37.675 10.5 45.5 18.325 45.5 28C45.5 37.675 37.675 45.5 28 45.5Z" fill="#FF7E00"/>
</svg>
