<svg xmlns="http://www.w3.org/2000/svg" width="34.69" height="51.75" viewBox="0 0 34.69 51.75">
  <g id="Group_75556" data-name="Group 75556" transform="translate(0 -4.515)">
    <path id="Path_3105" data-name="Path 3105" d="M35.76,14.648V38.63a18.979,18.979,0,0,1-31.1,14.607,12.139,12.139,0,0,0,1.861.143c6.863,0,12.184-5.319,12.184-12.8V14.648a8.529,8.529,0,1,1,17.051,0" transform="translate(-1.07 -1.344)" fill="#151e54"/>
    <path id="Path_3106" data-name="Path 3106" d="M4.467,61.045a11.83,11.83,0,0,0,9.988-5.238c.01-.158.024-.315.024-.476A7.239,7.239,0,1,0,2.62,60.9a12.07,12.07,0,0,0,1.847.142" transform="translate(0 -11.033)" fill="#f77d0f"/>
  </g>
</svg>
