<svg xmlns="http://www.w3.org/2000/svg" xmlns:xlink="http://www.w3.org/1999/xlink" width="48.782" height="11.373" viewBox="0 0 48.782 11.373">
  <defs>
    <clipPath id="clip-path">
      <rect id="Rectangle_117" data-name="Rectangle 117" width="48.782" height="11.373" fill="#fcfcfc"/>
    </clipPath>
  </defs>
  <g id="Group_787" data-name="Group 787" transform="translate(0 0)">
    <g id="Group_731" data-name="Group 731" transform="translate(0 0)" clip-path="url(#clip-path)">
      <path id="Path_3107" data-name="Path 3107" d="M116.3,33.351h-.524V29.3c0-.192-.013-.422-.04-.7a2.044,2.044,0,0,0-.283-.852,1.988,1.988,0,0,0-.774-.7,3.086,3.086,0,0,0-1.463-.289,3.3,3.3,0,0,0-.464.041,2.353,2.353,0,0,0-.611.186,2.719,2.719,0,0,0-.629.4,2.251,2.251,0,0,0-.392.436q-.055-.086-.112-.171a1.868,1.868,0,0,0-.434-.444,2.274,2.274,0,0,0-.664-.324,3.23,3.23,0,0,0-.97-.126,2.664,2.664,0,0,0-.949.153,2.719,2.719,0,0,0-.671.361,2.392,2.392,0,0,0-.376.35v-.864h-2.98a.306.306,0,0,0,0,.611h.721v5.982h-.524a.306.306,0,0,0,0,.611h3.23a.306.306,0,0,0,0-.611h-.415v-3.6c0-.252.008-.469.023-.644a2.762,2.762,0,0,1,.072-.45,1.329,1.329,0,0,1,.128-.325,2.309,2.309,0,0,1,.2-.289,1.2,1.2,0,0,1,.939-.476.747.747,0,0,1,.52.22,1.1,1.1,0,0,1,.232.812v4.748h-.431a.306.306,0,0,0,0,.611h3.137a.306.306,0,0,0,0-.611h-.415V28.96a1.32,1.32,0,0,1,.14-.63,1.376,1.376,0,0,1,.346-.429,1.579,1.579,0,0,1,.428-.249,1.059,1.059,0,0,1,.351-.081.715.715,0,0,1,.639.265,1.581,1.581,0,0,1,.207.891v4.624h-.415a.306.306,0,0,0,0,.611h3.23a.306.306,0,0,0,0-.611" transform="translate(-87.515 -22.589)" fill="#fcfcfc"/>
      <path id="Path_3108" data-name="Path 3108" d="M194.4,27.4a3,3,0,0,0-1.008-.544A3.566,3.566,0,0,0,190.83,27a3.993,3.993,0,0,0-1.164.8,3.738,3.738,0,0,0-.782,1.145,3.308,3.308,0,0,0-.286,1.335,3.707,3.707,0,0,0,.3,1.524,3.3,3.3,0,0,0,.835,1.144,3.671,3.671,0,0,0,1.24.712,4.652,4.652,0,0,0,1.516.243,3.208,3.208,0,0,0,1.2-.2,2.873,2.873,0,0,0,.834-.5,2.485,2.485,0,0,0,.535-.649,3.152,3.152,0,0,0,.2-.434.3.3,0,1,0-.557-.2c-.019.054-.046.121-.083.2a2.073,2.073,0,0,1-.358.528,2.33,2.33,0,0,1-.624.478,1.915,1.915,0,0,1-.921.2,1.528,1.528,0,0,1-.935-.246,1.632,1.632,0,0,1-.511-.653,2.887,2.887,0,0,1-.224-.928c-.029-.358-.044-.718-.044-1.071v-.485h4.423v-.19a3.14,3.14,0,0,0-.289-1.4,2.859,2.859,0,0,0-.739-.955m-2.822.066a.993.993,0,0,1,.663-.194.691.691,0,0,1,.442.122.76.76,0,0,1,.235.324,1.48,1.48,0,0,1,.093.425q.014.233.015.393v.815H191.01c.01-.2.024-.4.043-.611a2.9,2.9,0,0,1,.162-.746,1.262,1.262,0,0,1,.358-.529" transform="translate(-159.223 -22.53)" fill="#fcfcfc"/>
      <path id="Path_3109" data-name="Path 3109" d="M274.111,33.11h0a.293.293,0,0,0-.37-.015.565.565,0,0,1-.378.135c-.2-.023-.245-.23-.245-.535V29.009a2.4,2.4,0,0,0-.237-1.121,1.9,1.9,0,0,0-.643-.716,2.5,2.5,0,0,0-.932-.354,5.421,5.421,0,0,0-2.081.017,3.224,3.224,0,0,0-.86.324,1.913,1.913,0,0,0-.633.561,1.356,1.356,0,0,0-.25.8,1.017,1.017,0,0,0,.1.492.84.84,0,0,0,.259.295.825.825,0,0,0,.355.135,2.348,2.348,0,0,0,.331.024c.072,0,.162,0,.269-.007a1.056,1.056,0,0,0,.361-.081.822.822,0,0,0,.317-.24.716.716,0,0,0,.147-.469,1.779,1.779,0,0,0-.016-.188c-.01-.078-.02-.161-.029-.25s-.02-.173-.03-.249a1.231,1.231,0,0,1-.013-.131.445.445,0,0,1,.163-.412.928.928,0,0,1,.5-.128.6.6,0,0,1,.566.235,1.225,1.225,0,0,1,.167.632v.906a.937.937,0,0,1-.064.382.622.622,0,0,1-.225.243,2.274,2.274,0,0,1-.541.245c-.247.083-.569.182-.986.3-.248.079-.492.162-.728.247a2.685,2.685,0,0,0-.671.352,1.812,1.812,0,0,0-.5.547,1.589,1.589,0,0,0-.2.816,1.433,1.433,0,0,0,.225.81,1.537,1.537,0,0,0,.574.516,2.738,2.738,0,0,0,.734.255,3.906,3.906,0,0,0,.765.078,2.956,2.956,0,0,0,1.288-.228,1.409,1.409,0,0,0,.555-.524,1.3,1.3,0,0,0,.387.448,2.339,2.339,0,0,0,1.319.361,1.878,1.878,0,0,0,1.257-.4.276.276,0,0,0,.088-.209.3.3,0,0,0-.1-.221m-4.034.065a.655.655,0,0,1-.417-.115.8.8,0,0,1-.235-.307,1.32,1.32,0,0,1-.1-.4c-.014-.152-.022-.286-.022-.4a1.455,1.455,0,0,1,.121-.644,1.341,1.341,0,0,1,.319-.417,1.858,1.858,0,0,1,.459-.29c.189-.085.379-.172.572-.264q.089-.045.159-.086v1.523a2.471,2.471,0,0,1-.081.683,1.24,1.24,0,0,1-.2.426.783.783,0,0,1-.269.223.683.683,0,0,1-.3.071" transform="translate(-225.431 -22.563)" fill="#fcfcfc"/>
      <path id="Path_3110" data-name="Path 3110" d="M59.85,33.11a.293.293,0,0,0-.37-.015.567.567,0,0,1-.378.135c-.2-.023-.245-.23-.245-.535V29.009a2.4,2.4,0,0,0-.237-1.121,1.9,1.9,0,0,0-.643-.716,2.5,2.5,0,0,0-.932-.354,5.421,5.421,0,0,0-2.081.017,3.224,3.224,0,0,0-.86.324,1.913,1.913,0,0,0-.633.561,1.356,1.356,0,0,0-.25.8,1.017,1.017,0,0,0,.1.492.84.84,0,0,0,.259.295.825.825,0,0,0,.355.135,2.348,2.348,0,0,0,.331.024c.072,0,.162,0,.269-.007a1.055,1.055,0,0,0,.361-.081.822.822,0,0,0,.317-.24.717.717,0,0,0,.147-.469,1.785,1.785,0,0,0-.016-.188c-.01-.078-.02-.161-.029-.25s-.02-.173-.03-.249a1.228,1.228,0,0,1-.013-.131.445.445,0,0,1,.163-.412.928.928,0,0,1,.5-.128.6.6,0,0,1,.566.235,1.225,1.225,0,0,1,.167.632v.906a.94.94,0,0,1-.064.382.621.621,0,0,1-.225.243,2.274,2.274,0,0,1-.541.245c-.247.083-.569.182-.986.3-.248.079-.492.162-.728.247a2.686,2.686,0,0,0-.671.352,1.812,1.812,0,0,0-.5.547,1.589,1.589,0,0,0-.2.816,1.433,1.433,0,0,0,.225.81,1.537,1.537,0,0,0,.574.516,2.737,2.737,0,0,0,.734.255,3.907,3.907,0,0,0,.765.078,2.957,2.957,0,0,0,1.288-.228,1.409,1.409,0,0,0,.554-.524,1.3,1.3,0,0,0,.387.448,2.339,2.339,0,0,0,1.319.361,1.877,1.877,0,0,0,1.257-.4.276.276,0,0,0,.088-.209.3.3,0,0,0-.1-.221Zm-4.034.065a.655.655,0,0,1-.417-.115.8.8,0,0,1-.235-.307,1.319,1.319,0,0,1-.1-.4c-.014-.152-.022-.286-.022-.4a1.455,1.455,0,0,1,.121-.644,1.342,1.342,0,0,1,.319-.417,1.858,1.858,0,0,1,.459-.29c.189-.085.379-.172.572-.264q.089-.045.159-.086v1.523a2.471,2.471,0,0,1-.081.683,1.241,1.241,0,0,1-.2.426.783.783,0,0,1-.269.223.684.684,0,0,1-.3.071" transform="translate(-44.542 -22.563)" fill="#fcfcfc"/>
      <path id="Path_3111" data-name="Path 3111" d="M244.911,6.137A1.036,1.036,0,1,0,243.446,7.6a1.036,1.036,0,1,0,1.465-1.465" transform="translate(-205.269 -4.922)" fill="#fcfcfc"/>
      <path id="Path_3112" data-name="Path 3112" d="M241.115,33.45H240.6V26.842h-2.7a.292.292,0,1,0,0,.584h.516V33.45H237.9a.292.292,0,1,0,0,.584h3.22a.292.292,0,0,0,0-.584" transform="translate(-200.595 -22.661)" fill="#fcfcfc"/>
      <path id="Path_3113" data-name="Path 3113" d="M265.337,7.276a.2.2,0,0,0-.139.055.671.671,0,0,1-.2.133.638.638,0,0,1-.829-.341.617.617,0,0,1-.049-.246.627.627,0,0,1,.05-.248.637.637,0,0,1,.137-.2.636.636,0,0,1,.692-.138.761.761,0,0,1,.2.125.2.2,0,0,0,.14.057h0a.2.2,0,0,0,.14-.057.162.162,0,0,0,.044-.174.227.227,0,0,0-.063-.105c-.028-.025-.065-.055-.108-.087a1.1,1.1,0,0,0-.155-.1,1.152,1.152,0,0,0-.2-.076.859.859,0,0,0-.244-.033h0a1.114,1.114,0,0,0-.409.092,1.068,1.068,0,0,0-.328.221,1.017,1.017,0,0,0-.3.724,1.029,1.029,0,0,0,.081.41,1.009,1.009,0,0,0,.223.325,1.062,1.062,0,0,0,.971.263,1.106,1.106,0,0,0,.2-.07.923.923,0,0,0,.16-.093.935.935,0,0,0,.106-.089.217.217,0,0,0,.067-.147.19.19,0,0,0-.056-.145.2.2,0,0,0-.14-.056" transform="translate(-222.645 -4.931)" fill="#fcfcfc"/>
      <path id="Path_3114" data-name="Path 3114" d="M278.626,6.148a1.085,1.085,0,0,0-.325-.223.956.956,0,0,0-.4-.084h0a1.12,1.12,0,0,0-.409.092,1.064,1.064,0,0,0-.328.222,1.018,1.018,0,0,0-.3.724,1.03,1.03,0,0,0,.081.41,1,1,0,0,0,.223.325,1.037,1.037,0,0,0,1.458-.013,1.085,1.085,0,0,0,.219-.326,1.008,1.008,0,0,0,0-.8,1.077,1.077,0,0,0-.224-.328m-.138.976a.652.652,0,0,1-.137.2.636.636,0,0,1-.9,0,.653.653,0,0,1-.137-.2.617.617,0,0,1-.049-.246.624.624,0,0,1,.05-.248.634.634,0,0,1,.136-.2.645.645,0,0,1,.2-.137.614.614,0,0,1,.246-.05.631.631,0,0,1,.248.05.629.629,0,0,1,.34.341.63.63,0,0,1,.05.248.615.615,0,0,1-.05.246" transform="translate(-233.746 -4.931)" fill="#fcfcfc"/>
      <path id="Path_3115" data-name="Path 3115" d="M294.188,6.26a.72.72,0,0,0-.383-.383.732.732,0,0,0-.62.025.774.774,0,0,0-.189.145.723.723,0,0,0-1.036-.015.708.708,0,0,0-.153.23.731.731,0,0,0-.055.282V7.692a.19.19,0,0,0,.057.14.2.2,0,0,0,.14.057h0a.2.2,0,0,0,.14-.057.192.192,0,0,0,.057-.14V6.543a.315.315,0,0,1,.025-.127.362.362,0,0,1,.07-.107.318.318,0,0,1,.229-.1.309.309,0,0,1,.227.094.34.34,0,0,1,.1.236V7.692a.192.192,0,0,0,.057.14.2.2,0,0,0,.28,0,.192.192,0,0,0,.057-.14V6.543a.312.312,0,0,1,.026-.127.359.359,0,0,1,.07-.106.322.322,0,0,1,.1-.07.334.334,0,0,1,.254,0,.339.339,0,0,1,.177.177.319.319,0,0,1,.026.127V7.692a.2.2,0,1,0,.4,0V6.543a.7.7,0,0,0-.058-.283" transform="translate(-246.309 -4.913)" fill="#fcfcfc"/>
      <path id="Path_3116" data-name="Path 3116" d="M168.9.567a.275.275,0,0,0,.2-.083.27.27,0,0,0,.083-.2.275.275,0,0,0-.083-.2A.275.275,0,0,0,168.9,0a.27.27,0,0,0-.2.083.275.275,0,0,0-.083.2.27.27,0,0,0,.083.2.27.27,0,0,0,.2.083" transform="translate(-142.356 0)" fill="#fcfcfc"/>
      <path id="Path_3117" data-name="Path 3117" d="M164.59.567a.275.275,0,0,0,.2-.083.27.27,0,0,0,.083-.2.275.275,0,0,0-.083-.2.286.286,0,0,0-.4,0,.275.275,0,0,0-.083.2.27.27,0,0,0,.083.2.275.275,0,0,0,.2.083" transform="translate(-138.714 0)" fill="#fcfcfc"/>
      <path id="Path_3118" data-name="Path 3118" d="M178.629,21.235a.27.27,0,0,0-.2.083.286.286,0,0,0,0,.4.27.27,0,0,0,.2.083.285.285,0,1,0,0-.571" transform="translate(-150.569 -17.928)" fill="#fcfcfc"/>
      <path id="Path_3119" data-name="Path 3119" d="M174.319,21.235a.285.285,0,1,0,.2.083.275.275,0,0,0-.2-.083" transform="translate(-146.927 -17.928)" fill="#fcfcfc"/>
      <path id="Path_3120" data-name="Path 3120" d="M171.469,5.843a1.142,1.142,0,0,0-.856-.334,2.757,2.757,0,0,0-.76.127v.426a3.268,3.268,0,0,1,.624-.092.807.807,0,0,1,.551.176.61.61,0,0,1,.2.483v.4a.1.1,0,0,1-.11.11H169.26a.11.11,0,0,1-.079-.035.139.139,0,0,1-.022-.075v-.7a.746.746,0,0,0-.29-.633,1.109,1.109,0,0,0-1.3.07,1.02,1.02,0,0,0-.321.8,1.481,1.481,0,0,0,.105.571H165.9a1.022,1.022,0,0,1,.242-.4,1.291,1.291,0,0,1,.369-.272l.053-.123a1.2,1.2,0,0,0-.509-.637,1.133,1.133,0,0,0-.628-.185,1.268,1.268,0,0,0-.637.167,1.169,1.169,0,0,0-.545.654l.048.123a1.1,1.1,0,0,1,.391.294,1.076,1.076,0,0,1,.224.382H163.44V5.562h-.532v1.45a.113.113,0,0,1-.039.088.1.1,0,0,1-.088.035h-.756a.088.088,0,0,1-.07-.031.1.1,0,0,1-.031-.079V5.443h-.264l-.189.145a1.164,1.164,0,0,0-.457-.1.93.93,0,0,0-.69.286,1.1,1.1,0,0,0-.307.795,1.088,1.088,0,0,0,.334.835.875.875,0,0,0,.6.22.855.855,0,0,0,.558-.207.5.5,0,0,0,.365.163h1.094a.465.465,0,0,0,.373-.18h.009l.162.18h1.651a.3.3,0,0,0,.233-.114h.022a.3.3,0,0,0,.224.114h1.775l.123-.149h.009a.865.865,0,0,0,.65.281.692.692,0,0,0,.571-.272.461.461,0,0,0,.338.141h2.183a.46.46,0,0,0,.351-.158.49.49,0,0,0,.123-.325V6.6a1.042,1.042,0,0,0-.294-.756M161.388,7.116a.866.866,0,0,1-.329.07.457.457,0,0,1-.371-.167.673.673,0,0,1-.138-.444.653.653,0,0,1,.154-.45.5.5,0,0,1,.391-.174.846.846,0,0,1,.294.057Zm4.309-.575a1.354,1.354,0,0,0-.285.47h-.018a1.378,1.378,0,0,0-.272-.448.94.94,0,0,0-.316-.264.622.622,0,0,1,.272-.264.774.774,0,0,1,.334-.075.686.686,0,0,1,.3.066A.655.655,0,0,1,166,6.3a.949.949,0,0,0-.3.242m2.925.545a.526.526,0,0,1-.369.18.4.4,0,0,1-.338-.193.871.871,0,0,1-.132-.5.712.712,0,0,1,.13-.448.415.415,0,0,1,.345-.167.339.339,0,0,1,.264.1.357.357,0,0,1,.1.264Z" transform="translate(-135.094 -4.595)" fill="#fcfcfc"/>
      <path id="Path_3121" data-name="Path 3121" d="M225.583,21.235a.27.27,0,0,0-.2.083.286.286,0,0,0,0,.4.27.27,0,0,0,.2.083.285.285,0,1,0,0-.571" transform="translate(-190.21 -17.928)" fill="#fcfcfc"/>
      <path id="Path_3122" data-name="Path 3122" d="M10.949,7.636v4.847a3.836,3.836,0,0,1-6.285,2.953A2.466,2.466,0,0,0,7.5,12.878V7.636a1.724,1.724,0,1,1,3.446,0" transform="translate(-3.938 -4.946)" fill="#fcfcfc"/>
      <path id="Path_3123" data-name="Path 3123" d="M.9,50.709A2.391,2.391,0,0,0,2.922,49.65c0-.032,0-.064,0-.1a1.463,1.463,0,1,0-2.4,1.126,2.439,2.439,0,0,0,.373.029" transform="translate(0 -40.601)" fill="#fcfcfc"/>
    </g>
  </g>
</svg>
