<svg xmlns="http://www.w3.org/2000/svg" xmlns:xlink="http://www.w3.org/1999/xlink" width="241.342" height="56.265" viewBox="0 0 241.342 56.265">
  <defs>
    <clipPath id="clip-path">
      <rect id="Rectangle_116" data-name="Rectangle 116" width="241.342" height="56.265" fill="none"/>
    </clipPath>
  </defs>
  <g id="Group_730" data-name="Group 730" transform="translate(0 0)">
    <g id="Group_729" data-name="Group 729" transform="translate(0 0)" clip-path="url(#clip-path)">
      <path id="Path_3090" data-name="Path 3090" d="M166.209,59.379h-2.591V39.348c0-.949-.065-2.087-.2-3.478a10.113,10.113,0,0,0-1.4-4.214,9.837,9.837,0,0,0-3.831-3.47,15.268,15.268,0,0,0-7.238-1.428,16.327,16.327,0,0,0-2.3.2,11.643,11.643,0,0,0-3.025.921,13.454,13.454,0,0,0-3.112,1.989,11.138,11.138,0,0,0-1.94,2.158q-.27-.424-.555-.844a9.241,9.241,0,0,0-2.148-2.2,11.251,11.251,0,0,0-3.284-1.605,15.982,15.982,0,0,0-4.8-.624,13.181,13.181,0,0,0-4.694.757A13.453,13.453,0,0,0,121.78,29.3a11.837,11.837,0,0,0-1.862,1.729V26.757H105.173a1.512,1.512,0,0,0,0,3.025h3.565v29.6h-2.591a1.512,1.512,0,0,0,0,3.025h15.98a1.512,1.512,0,0,0,0-3.025h-2.054V41.58c0-1.249.038-2.321.112-3.186a13.669,13.669,0,0,1,.358-2.224,6.58,6.58,0,0,1,.633-1.607,11.428,11.428,0,0,1,.972-1.428,5.941,5.941,0,0,1,4.645-2.353,3.7,3.7,0,0,1,2.572,1.09c.761.7,1.147,2.054,1.147,4.016V59.379H128.38a1.512,1.512,0,0,0,0,3.025H143.9a1.512,1.512,0,0,0,0-3.025h-2.054V37.656a6.528,6.528,0,0,1,.691-3.116,6.808,6.808,0,0,1,1.713-2.125,7.812,7.812,0,0,1,2.118-1.234,5.241,5.241,0,0,1,1.735-.4,3.536,3.536,0,0,1,3.159,1.311,7.824,7.824,0,0,1,1.022,4.409V59.379H150.23a1.512,1.512,0,0,0,0,3.025h15.98a1.512,1.512,0,0,0,0-3.025" transform="translate(-23.781 -6.138)" fill="#151e54"/>
      <path id="Path_3091" data-name="Path 3091" d="M217.28,30.236a14.86,14.86,0,0,0-4.988-2.691,17.642,17.642,0,0,0-12.652.673,19.758,19.758,0,0,0-5.76,3.972,18.5,18.5,0,0,0-3.868,5.665,16.368,16.368,0,0,0-1.414,6.607A18.341,18.341,0,0,0,190.089,52a16.328,16.328,0,0,0,4.131,5.661,18.161,18.161,0,0,0,6.136,3.522,23.014,23.014,0,0,0,7.5,1.2,15.869,15.869,0,0,0,5.913-1,14.216,14.216,0,0,0,4.126-2.466,12.293,12.293,0,0,0,2.647-3.213,15.6,15.6,0,0,0,1.006-2.148,1.464,1.464,0,1,0-2.753-1c-.1.267-.228.6-.41,1a10.254,10.254,0,0,1-1.771,2.612,11.527,11.527,0,0,1-3.089,2.363,9.474,9.474,0,0,1-4.557,1,7.558,7.558,0,0,1-4.624-1.218,8.073,8.073,0,0,1-2.528-3.229,14.287,14.287,0,0,1-1.11-4.593c-.145-1.769-.22-3.552-.22-5.3V42.8H222.37v-.939a15.536,15.536,0,0,0-1.432-6.905,14.143,14.143,0,0,0-3.658-4.724m-13.964.324a4.91,4.91,0,0,1,3.28-.959,3.418,3.418,0,0,1,2.188.6,3.76,3.76,0,0,1,1.161,1.605,7.317,7.317,0,0,1,.461,2.1q.072,1.152.072,1.944v4.03h-9.947c.049-.965.121-1.979.213-3.021a14.365,14.365,0,0,1,.8-3.69,6.243,6.243,0,0,1,1.772-2.618" transform="translate(-43.267 -6.122)" fill="#151e54"/>
      <path id="Path_3092" data-name="Path 3092" d="M302.1,58.312h0a1.452,1.452,0,0,0-1.829-.073,2.793,2.793,0,0,1-1.87.667c-1-.113-1.211-1.14-1.211-2.649V38.024a11.857,11.857,0,0,0-1.174-5.544,9.407,9.407,0,0,0-3.182-3.544,12.364,12.364,0,0,0-4.609-1.753,26.819,26.819,0,0,0-10.3.082,15.949,15.949,0,0,0-4.254,1.6,9.467,9.467,0,0,0-3.134,2.774A6.711,6.711,0,0,0,269.3,35.6a5.031,5.031,0,0,0,.519,2.433,4.153,4.153,0,0,0,1.28,1.458,4.083,4.083,0,0,0,1.758.67,11.619,11.619,0,0,0,1.637.119c.355,0,.8-.011,1.332-.037a5.221,5.221,0,0,0,1.786-.4,4.067,4.067,0,0,0,1.57-1.185,3.545,3.545,0,0,0,.727-2.319,8.833,8.833,0,0,0-.079-.928c-.05-.386-.1-.8-.146-1.237s-.1-.856-.15-1.23a6.079,6.079,0,0,1-.065-.65,2.2,2.2,0,0,1,.808-2.039,4.59,4.59,0,0,1,2.451-.633c1.423,0,2.34.379,2.8,1.16a6.061,6.061,0,0,1,.827,3.129v4.485a4.639,4.639,0,0,1-.319,1.89,3.074,3.074,0,0,1-1.112,1.2,11.249,11.249,0,0,1-2.675,1.211c-1.224.408-2.816.9-4.878,1.5-1.225.391-2.436.8-3.6,1.224a13.289,13.289,0,0,0-3.32,1.741,8.964,8.964,0,0,0-2.458,2.7,7.862,7.862,0,0,0-.974,4.039,7.089,7.089,0,0,0,1.112,4.008,7.6,7.6,0,0,0,2.841,2.551,13.543,13.543,0,0,0,3.631,1.264,19.329,19.329,0,0,0,3.785.386,14.627,14.627,0,0,0,6.372-1.127,6.97,6.97,0,0,0,2.743-2.594,6.414,6.414,0,0,0,1.913,2.218,11.571,11.571,0,0,0,6.527,1.787,9.294,9.294,0,0,0,6.219-1.957,1.367,1.367,0,0,0,.435-1.033,1.491,1.491,0,0,0-.5-1.095m-19.957.323a3.238,3.238,0,0,1-2.064-.567,3.959,3.959,0,0,1-1.163-1.519,6.525,6.525,0,0,1-.515-2c-.071-.751-.107-1.414-.107-1.972a7.2,7.2,0,0,1,.6-3.186,6.638,6.638,0,0,1,1.578-2.065,9.192,9.192,0,0,1,2.27-1.435c.936-.418,1.875-.85,2.83-1.3q.442-.221.785-.427V51.7a12.225,12.225,0,0,1-.4,3.378,6.138,6.138,0,0,1-1.011,2.106,3.872,3.872,0,0,1-1.331,1.1,3.382,3.382,0,0,1-1.471.351" transform="translate(-61.259 -6.131)" fill="#151e54"/>
      <path id="Path_3093" data-name="Path 3093" d="M87.835,58.311a1.452,1.452,0,0,0-1.829-.073,2.806,2.806,0,0,1-1.87.667c-1-.113-1.211-1.14-1.211-2.649V38.024a11.857,11.857,0,0,0-1.174-5.544,9.407,9.407,0,0,0-3.182-3.544,12.364,12.364,0,0,0-4.609-1.753,26.819,26.819,0,0,0-10.3.082,15.949,15.949,0,0,0-4.254,1.6,9.467,9.467,0,0,0-3.134,2.774A6.711,6.711,0,0,0,55.039,35.6a5.031,5.031,0,0,0,.519,2.433,4.154,4.154,0,0,0,1.28,1.458,4.083,4.083,0,0,0,1.758.67,11.619,11.619,0,0,0,1.637.119c.355,0,.8-.011,1.332-.037a5.221,5.221,0,0,0,1.786-.4,4.067,4.067,0,0,0,1.57-1.185,3.545,3.545,0,0,0,.727-2.319,8.831,8.831,0,0,0-.079-.928c-.05-.386-.1-.8-.146-1.237s-.1-.856-.15-1.23a6.077,6.077,0,0,1-.065-.65,2.2,2.2,0,0,1,.808-2.039,4.59,4.59,0,0,1,2.451-.633c1.423,0,2.34.379,2.8,1.16a6.061,6.061,0,0,1,.827,3.129v4.485a4.652,4.652,0,0,1-.319,1.89,3.074,3.074,0,0,1-1.112,1.2,11.25,11.25,0,0,1-2.675,1.211c-1.224.408-2.816.9-4.878,1.5-1.225.391-2.436.8-3.6,1.224a13.289,13.289,0,0,0-3.32,1.741,8.965,8.965,0,0,0-2.458,2.7A7.862,7.862,0,0,0,52.76,53.9a7.089,7.089,0,0,0,1.112,4.008,7.6,7.6,0,0,0,2.841,2.551,13.544,13.544,0,0,0,3.631,1.264,19.329,19.329,0,0,0,3.785.386A14.627,14.627,0,0,0,70.5,60.985a6.97,6.97,0,0,0,2.743-2.594,6.415,6.415,0,0,0,1.913,2.218A11.571,11.571,0,0,0,81.685,62.4,9.286,9.286,0,0,0,87.9,60.44a1.367,1.367,0,0,0,.435-1.033,1.491,1.491,0,0,0-.5-1.095Zm-19.957.324a3.238,3.238,0,0,1-2.064-.567,3.959,3.959,0,0,1-1.163-1.519,6.525,6.525,0,0,1-.515-2c-.071-.751-.107-1.414-.107-1.972a7.2,7.2,0,0,1,.6-3.186,6.638,6.638,0,0,1,1.578-2.065,9.192,9.192,0,0,1,2.27-1.435c.936-.418,1.875-.85,2.83-1.3q.442-.221.785-.427V51.7a12.226,12.226,0,0,1-.4,3.378,6.138,6.138,0,0,1-1.011,2.106,3.872,3.872,0,0,1-1.331,1.1,3.382,3.382,0,0,1-1.471.351" transform="translate(-12.104 -6.131)" fill="#151e54"/>
      <path id="Path_3094" data-name="Path 3094" d="M251.908,7.35a5.082,5.082,0,0,0-7.249,0,5.081,5.081,0,0,0,0,7.25,5.08,5.08,0,0,0,7.249,0,5.083,5.083,0,0,0,0-7.25" transform="translate(-55.78 -1.337)" fill="#f77d0f"/>
      <path id="Path_3095" data-name="Path 3095" d="M254.979,59.533h-2.551V26.842h-13.38a1.445,1.445,0,1,0,0,2.89H241.6v29.8h-2.551a1.445,1.445,0,1,0,0,2.89h15.931a1.445,1.445,0,0,0,0-2.89" transform="translate(-54.51 -6.158)" fill="#151e54"/>
      <path id="Path_3096" data-name="Path 3096" d="M271.713,12.943a.974.974,0,0,0-.687.274,3.32,3.32,0,0,1-1,.66,3.155,3.155,0,0,1-4.1-1.688,3.052,3.052,0,0,1-.244-1.215,3.1,3.1,0,0,1,.246-1.228,3.151,3.151,0,0,1,.676-1.01,3.145,3.145,0,0,1,3.425-.685,3.764,3.764,0,0,1,1,.616.981.981,0,0,0,.693.28h0a.982.982,0,0,0,.691-.28.8.8,0,0,0,.217-.858,1.123,1.123,0,0,0-.31-.521c-.14-.126-.32-.271-.535-.432a5.445,5.445,0,0,0-.768-.476A5.7,5.7,0,0,0,270.046,6a4.25,4.25,0,0,0-1.206-.163h0a5.512,5.512,0,0,0-2.024.453,5.281,5.281,0,0,0-1.624,1.1,5.031,5.031,0,0,0-1.469,3.584,5.1,5.1,0,0,0,.4,2.028,4.994,4.994,0,0,0,1.1,1.609,5.253,5.253,0,0,0,4.806,1.3,5.463,5.463,0,0,0,1.007-.348,4.568,4.568,0,0,0,.791-.459,4.641,4.641,0,0,0,.522-.438,1.075,1.075,0,0,0,.333-.727.94.94,0,0,0-.275-.716.984.984,0,0,0-.694-.279" transform="translate(-60.502 -1.34)" fill="#151e54"/>
      <path id="Path_3097" data-name="Path 3097" d="M285.557,7.361a5.37,5.37,0,0,0-1.61-1.1,4.731,4.731,0,0,0-1.959-.415h0a5.542,5.542,0,0,0-2.023.453,5.265,5.265,0,0,0-1.624,1.1,5.036,5.036,0,0,0-1.47,3.583,5.1,5.1,0,0,0,.4,2.028,4.964,4.964,0,0,0,1.1,1.609,5.131,5.131,0,0,0,7.215-.064,5.373,5.373,0,0,0,1.085-1.611,4.989,4.989,0,0,0-.011-3.954,5.327,5.327,0,0,0-1.106-1.621m-.68,4.828a3.224,3.224,0,0,1-.676,1,3.148,3.148,0,0,1-4.455,0,3.228,3.228,0,0,1-.677-1,3.052,3.052,0,0,1-.244-1.215,3.088,3.088,0,0,1,.247-1.227,3.136,3.136,0,0,1,.674-1.009,3.191,3.191,0,0,1,1-.677,3.038,3.038,0,0,1,1.215-.245,3.124,3.124,0,0,1,1.228.246,3.109,3.109,0,0,1,1.684,1.685,3.114,3.114,0,0,1,.247,1.227,3.042,3.042,0,0,1-.246,1.215" transform="translate(-63.518 -1.34)" fill="#151e54"/>
      <path id="Path_3098" data-name="Path 3098" d="M303.808,8a3.561,3.561,0,0,0-1.9-1.9,3.62,3.62,0,0,0-3.069.122,3.831,3.831,0,0,0-.935.716,3.577,3.577,0,0,0-5.127-.074A3.508,3.508,0,0,0,292.023,8a3.618,3.618,0,0,0-.272,1.4v5.684a.942.942,0,0,0,.284.691.977.977,0,0,0,.691.281h0a.985.985,0,0,0,.694-.28.951.951,0,0,0,.284-.693V9.4a1.556,1.556,0,0,1,.126-.626,1.787,1.787,0,0,1,.348-.528,1.576,1.576,0,0,1,1.135-.475,1.529,1.529,0,0,1,1.123.463,1.681,1.681,0,0,1,.508,1.167v5.684a.947.947,0,0,0,.284.693.986.986,0,0,0,1.385,0,.95.95,0,0,0,.284-.693V9.4a1.544,1.544,0,0,1,.128-.628,1.779,1.779,0,0,1,.346-.526,1.592,1.592,0,0,1,.508-.348,1.653,1.653,0,0,1,1.256,0,1.674,1.674,0,0,1,.875.875,1.579,1.579,0,0,1,.126.63v5.684a.977.977,0,1,0,1.954,0V9.4a3.486,3.486,0,0,0-.285-1.4" transform="translate(-66.932 -1.335)" fill="#151e54"/>
      <path id="Path_3099" data-name="Path 3099" d="M170.01,2.8a1.359,1.359,0,0,0,1-.413,1.337,1.337,0,0,0,.413-.978,1.362,1.362,0,0,0-.413-1,1.362,1.362,0,0,0-1-.413,1.337,1.337,0,0,0-.978.413,1.359,1.359,0,0,0-.413,1,1.334,1.334,0,0,0,.413.978,1.334,1.334,0,0,0,.978.413" transform="translate(-38.684 0)" fill="#f77d0f"/>
      <path id="Path_3100" data-name="Path 3100" d="M165.717,2.8a1.36,1.36,0,0,0,1-.413,1.337,1.337,0,0,0,.413-.978,1.362,1.362,0,0,0-.413-1,1.416,1.416,0,0,0-2,0,1.359,1.359,0,0,0-.413,1,1.334,1.334,0,0,0,.413.978,1.358,1.358,0,0,0,1,.413" transform="translate(-37.694 0)" fill="#f77d0f"/>
      <path id="Path_3101" data-name="Path 3101" d="M179.739,21.235a1.334,1.334,0,0,0-.978.413,1.416,1.416,0,0,0,0,2,1.337,1.337,0,0,0,.978.413,1.412,1.412,0,1,0,0-2.825" transform="translate(-40.916 -4.872)" fill="#f77d0f"/>
      <path id="Path_3102" data-name="Path 3102" d="M175.446,21.235a1.41,1.41,0,1,0,1,.413,1.359,1.359,0,0,0-1-.413" transform="translate(-39.926 -4.872)" fill="#f77d0f"/>
      <path id="Path_3103" data-name="Path 3103" d="M216.671,7.42a5.651,5.651,0,0,0-4.237-1.651,13.639,13.639,0,0,0-3.76.63V8.507a16.169,16.169,0,0,1,3.085-.456,3.992,3.992,0,0,1,2.728.869,3.019,3.019,0,0,1,.989,2.39v1.956a.48.48,0,0,1-.543.543H205.74a.543.543,0,0,1-.391-.173.688.688,0,0,1-.108-.37V9.789a3.69,3.69,0,0,0-1.435-3.129,5.488,5.488,0,0,0-6.41.348,5.048,5.048,0,0,0-1.587,3.977,7.326,7.326,0,0,0,.522,2.825h-7.214a5.056,5.056,0,0,1,1.2-2,6.389,6.389,0,0,1,1.826-1.348l.26-.608A5.912,5.912,0,0,0,189.877,6.7a5.607,5.607,0,0,0-3.108-.913,6.276,6.276,0,0,0-3.151.826,5.782,5.782,0,0,0-2.695,3.238l.239.608a5.443,5.443,0,0,1,1.934,1.456,5.325,5.325,0,0,1,1.108,1.89h-7.257V6.029h-2.63V13.2a.559.559,0,0,1-.195.435.509.509,0,0,1-.435.173h-3.738a.434.434,0,0,1-.348-.152.486.486,0,0,1-.152-.391V5.443h-1.3l-.934.717a5.759,5.759,0,0,0-2.26-.479,4.6,4.6,0,0,0-3.412,1.412,5.416,5.416,0,0,0-1.521,3.933,5.381,5.381,0,0,0,1.652,4.13,4.329,4.329,0,0,0,2.955,1.087,4.229,4.229,0,0,0,2.759-1.022,2.494,2.494,0,0,0,1.8.8H174.6a2.3,2.3,0,0,0,1.847-.891h.044l.8.891h8.17a1.5,1.5,0,0,0,1.152-.566h.109a1.461,1.461,0,0,0,1.108.566h8.779l.608-.739h.044a4.278,4.278,0,0,0,3.216,1.391,3.422,3.422,0,0,0,2.825-1.348,2.279,2.279,0,0,0,1.673.7h10.8a2.276,2.276,0,0,0,1.738-.782,2.424,2.424,0,0,0,.608-1.608V11.158a5.157,5.157,0,0,0-1.456-3.738m-49.872,6.3a4.285,4.285,0,0,1-1.63.348,2.261,2.261,0,0,1-1.836-.826,3.33,3.33,0,0,1-.684-2.195,3.231,3.231,0,0,1,.761-2.228,2.471,2.471,0,0,1,1.934-.858,4.186,4.186,0,0,1,1.456.283Zm21.317-2.847A6.7,6.7,0,0,0,186.7,13.2h-.087a6.818,6.818,0,0,0-1.348-2.217,4.648,4.648,0,0,0-1.564-1.3,3.078,3.078,0,0,1,1.347-1.3,3.828,3.828,0,0,1,1.652-.369,3.4,3.4,0,0,1,1.5.326,3.241,3.241,0,0,1,1.413,1.347,4.693,4.693,0,0,0-1.5,1.2m14.473,2.695a2.6,2.6,0,0,1-1.826.891,1.954,1.954,0,0,1-1.673-.956,4.311,4.311,0,0,1-.653-2.477,3.521,3.521,0,0,1,.642-2.216,2.051,2.051,0,0,1,1.705-.826,1.679,1.679,0,0,1,1.3.5,1.766,1.766,0,0,1,.5,1.3Z" transform="translate(-36.711 -1.249)" fill="#f77d0f"/>
      <path id="Path_3104" data-name="Path 3104" d="M226.693,21.235a1.334,1.334,0,0,0-.978.413,1.416,1.416,0,0,0,0,2,1.337,1.337,0,0,0,.978.413,1.412,1.412,0,1,0,0-2.825" transform="translate(-51.688 -4.872)" fill="#f77d0f"/>
      <path id="Path_3105" data-name="Path 3105" d="M35.76,14.648V38.63a18.979,18.979,0,0,1-31.1,14.607,12.139,12.139,0,0,0,1.861.143c6.863,0,12.184-5.319,12.184-12.8V14.648a8.529,8.529,0,1,1,17.051,0" transform="translate(-1.07 -1.344)" fill="#151e54"/>
      <path id="Path_3106" data-name="Path 3106" d="M4.467,61.045a11.83,11.83,0,0,0,9.988-5.238c.01-.158.024-.315.024-.476A7.239,7.239,0,1,0,2.62,60.9a12.07,12.07,0,0,0,1.847.142" transform="translate(0 -11.033)" fill="#f77d0f"/>
    </g>
  </g>
</svg>
