<svg width="36" height="50" viewBox="0 0 36 50" fill="none" xmlns="http://www.w3.org/2000/svg">
<path d="M18 23.75C16.3424 23.75 14.7527 23.0915 13.5806 21.9194C12.4085 20.7473 11.75 19.1576 11.75 17.5C11.75 15.8424 12.4085 14.2527 13.5806 13.0806C14.7527 11.9085 16.3424 11.25 18 11.25C19.6576 11.25 21.2473 11.9085 22.4194 13.0806C23.5915 14.2527 24.25 15.8424 24.25 17.5C24.25 18.3208 24.0883 19.1335 23.7742 19.8918C23.4602 20.6501 22.9998 21.3391 22.4194 21.9194C21.8391 22.4998 21.1501 22.9602 20.3918 23.2742C19.6335 23.5883 18.8208 23.75 18 23.75ZM18 0C13.3587 0 8.90752 1.84374 5.62563 5.12563C2.34374 8.40752 0.5 12.8587 0.5 17.5C0.5 30.625 18 50 18 50C18 50 35.5 30.625 35.5 17.5C35.5 12.8587 33.6563 8.40752 30.3744 5.12563C27.0925 1.84374 22.6413 0 18 0Z" fill="#FF7E00"/>
</svg>
