<svg width="22" height="19" viewBox="0 0 22 19" fill="none" xmlns="http://www.w3.org/2000/svg">
<path d="M11.75 9.74994V14.9999C11.75 15.1988 11.671 15.3896 11.5303 15.5303C11.3897 15.6709 11.1989 15.7499 11 15.7499C10.8011 15.7499 10.6103 15.6709 10.4697 15.5303C10.329 15.3896 10.25 15.1988 10.25 14.9999V9.74994C10.25 9.55103 10.329 9.36026 10.4697 9.21961C10.6103 9.07895 10.8011 8.99994 11 8.99994C11.1989 8.99994 11.3897 9.07895 11.5303 9.21961C11.671 9.36026 11.75 9.55103 11.75 9.74994ZM15.2037 9.67494L14.6787 14.9249C14.6684 15.0232 14.6775 15.1226 14.7057 15.2173C14.7338 15.3121 14.7805 15.4003 14.8428 15.477C14.9052 15.5537 14.9821 15.6172 15.0692 15.6641C15.1562 15.7109 15.2516 15.7401 15.35 15.7499C15.3753 15.7514 15.4006 15.7514 15.4259 15.7499C15.6117 15.7497 15.7908 15.6805 15.9285 15.5558C16.0662 15.4311 16.1527 15.2598 16.1712 15.0749L16.6962 9.82494C16.7161 9.62702 16.6566 9.42931 16.5307 9.27529C16.4048 9.12128 16.2229 9.02358 16.025 9.00369C15.8271 8.9838 15.6294 9.04334 15.4753 9.16923C15.3213 9.29511 15.2236 9.47702 15.2037 9.67494ZM6.79624 9.67494C6.77635 9.47702 6.67865 9.29511 6.52464 9.16923C6.37062 9.04334 6.17291 8.9838 5.97499 9.00369C5.77707 9.02358 5.59516 9.12128 5.46928 9.27529C5.34339 9.42931 5.28385 9.62702 5.30374 9.82494L5.82874 15.0749C5.84739 15.2606 5.93458 15.4326 6.07326 15.5574C6.21194 15.6822 6.39216 15.7509 6.57874 15.7499C6.60403 15.7514 6.62939 15.7514 6.65468 15.7499C6.75268 15.7401 6.84778 15.711 6.93455 15.6644C7.02132 15.6178 7.09806 15.5546 7.16039 15.4783C7.22272 15.4021 7.26942 15.3143 7.29783 15.22C7.32623 15.1257 7.33578 15.0267 7.32593 14.9287L6.79624 9.67494ZM21.4934 6.84931L20.0806 17.4487C20.0313 17.8084 19.8537 18.1382 19.5805 18.3773C19.3073 18.6164 18.9568 18.7488 18.5937 18.7499H3.40624C3.04316 18.7488 2.69272 18.6164 2.41949 18.3773C2.14626 18.1382 1.96865 17.8084 1.91936 17.4487L0.506552 6.84931C0.492389 6.74337 0.501036 6.63562 0.531913 6.53328C0.56279 6.43095 0.615184 6.3364 0.685584 6.25597C0.755983 6.17554 0.842762 6.11109 0.940103 6.06693C1.03744 6.02277 1.1431 5.99993 1.24999 5.99994H5.40968L10.4375 0.255875C10.5079 0.17607 10.5944 0.112154 10.6914 0.0683746C10.7884 0.0245949 10.8936 0.00195312 11 0.00195312C11.1064 0.00195312 11.2116 0.0245949 11.3086 0.0683746C11.4056 0.112154 11.4921 0.17607 11.5625 0.255875L16.5903 5.99994H20.75C20.8569 5.99993 20.9625 6.02277 21.0599 6.06693C21.1572 6.11109 21.244 6.17554 21.3144 6.25597C21.3848 6.3364 21.4372 6.43095 21.4681 6.53328C21.4989 6.63562 21.5076 6.74337 21.4934 6.84931ZM7.4028 5.99994H14.5972L11 1.889L7.4028 5.99994ZM19.8931 7.49994H2.10686L3.40624 17.2499H18.5937L19.8931 7.49994Z" fill="black"/>
</svg>
