<svg width="604" height="345" viewBox="0 0 604 345" fill="none" xmlns="http://www.w3.org/2000/svg">
<path d="M92.5711 12.3653C92.5711 12.3653 82.0869 16.3143 81.8074 18.481C81.8074 18.481 84.1139 26.3441 94.1349 31.9444L93.6544 35.6225L95.2795 40.8646C96.6686 33.0015 97.3326 21.3117 97.3326 21.3117C97.3326 21.3117 95.227 13.9029 92.5711 12.3653Z" fill="#EBEBEB"/>
<path d="M92.4049 13.1778C92.4049 13.1778 91.6972 24.0201 96.153 30.2756C96.1966 30.2756 98.5993 20.1235 92.4049 13.1778Z" fill="#E0E0E0"/>
<path d="M113.033 20.2808C113.033 20.2808 105.126 12.3478 103.064 12.9681C103.064 12.9681 96.8171 18.3237 95.8648 29.7514L92.3089 30.8173C92.3089 30.8173 87.8881 23.2687 76.9759 21.7485C76.9759 21.7485 74.6082 33.185 74.3549 33.15C78.6497 35.1964 83.5291 35.6605 88.1327 34.4605C95.9085 32.4685 106.803 28.2924 106.803 28.2924C106.803 28.2924 112.727 23.3386 113.033 20.2808Z" fill="#EBEBEB"/>
<path d="M90.8848 32.7132C90.8848 32.7132 81.4404 30.5902 75.1062 33.0364C75.1062 33.0364 84.5681 37.0291 90.8848 32.7132Z" fill="#E0E0E0"/>
<path d="M112.229 20.4293C112.229 20.4293 102.059 24.2385 98.1887 30.9134C98.1887 30.9134 108.428 28.9739 112.229 20.4293Z" fill="#E0E0E0"/>
<path d="M130.322 20.9535L140.754 64.349L74.9401 84.1902L61.1622 41.8082L130.322 20.9535Z" fill="#EBEBEB"/>
<path d="M117.838 24.7191L130.698 67.3807L140.754 64.349L130.322 20.9535L117.838 24.7191Z" fill="#E0E0E0"/>
<path d="M125.378 22.4475L136.561 65.6071L134.28 66.2973L121.42 23.6444L125.378 22.4475Z" fill="#FAFAFA"/>
<path d="M92.7832 32.2747L87.2959 33.9293L100.157 76.5812L105.644 74.9265L92.7832 32.2747Z" fill="#FAFAFA"/>
<path d="M134.496 39.4905L67.2378 60.465L68.5253 64.5936L135.784 43.6191L134.496 39.4905Z" fill="#FAFAFA"/>
<path d="M554.58 164.586C554.58 164.586 546.629 164.018 545.843 165.311C545.843 165.311 544.969 171.112 549.818 177.691L548.403 179.928L547.887 183.807C551.137 179.106 555.034 171.767 555.034 171.767C555.034 171.767 555.846 166.333 554.58 164.586Z" fill="#EBEBEB"/>
<path d="M554.23 165.023C554.23 165.023 550.543 171.82 551.609 177.193C551.565 177.193 556.178 171.357 554.23 165.023Z" fill="#E0E0E0"/>
<path d="M565.465 175.76C565.465 175.76 562.713 168.273 561.193 168.063C561.193 168.063 555.558 169.662 551.539 176.8L548.918 176.442C548.918 176.442 548.306 170.239 541.728 166.01C541.728 166.01 536.783 172.711 536.66 172.615C538.826 175.22 541.844 176.974 545.179 177.569C550.796 178.6 559.088 179.141 559.088 179.141C559.088 179.141 564.356 177.639 565.465 175.76Z" fill="#EBEBEB"/>
<path d="M547.433 177.202C547.433 177.202 541.955 173.017 537.133 172.711C537.133 172.711 542.069 178.102 547.433 177.202Z" fill="#E0E0E0"/>
<path d="M564.889 175.638C564.889 175.638 557.174 175.07 552.657 178.215C552.692 178.215 559.909 180.015 564.889 175.638Z" fill="#E0E0E0"/>
<path d="M576.448 181.343L570.271 212.516L521.791 205.753L525.504 174.24L576.448 181.343Z" fill="#EBEBEB"/>
<path d="M567.248 180.059L562.862 211.476L570.271 212.516L576.448 181.343L567.248 180.059Z" fill="#E0E0E0"/>
<path d="M572.805 180.836L567.187 212.079L565.501 211.843L569.886 180.426L572.805 180.836Z" fill="#FAFAFA"/>
<path d="M544.772 176.928L540.389 208.347L544.43 208.911L548.812 177.492L544.772 176.928Z" fill="#FAFAFA"/>
<path d="M573.619 194.567L523.87 188.106L523.474 191.156L573.223 197.617L573.619 194.567Z" fill="#FAFAFA"/>
<path d="M90.1683 192.43L65.8538 140.009C65.5271 139.287 65.054 138.639 64.4646 138.109C63.8751 137.578 63.182 137.175 62.429 136.925L36.3411 128.293C34.9833 127.842 33.5056 127.917 32.2001 128.502C30.8946 129.088 29.8563 130.142 29.2905 131.456L18.4394 156.67C18.1199 157.397 17.9548 158.183 17.9548 158.977C17.9548 159.771 18.1199 160.556 18.4394 161.283L42.7626 213.704C43.0689 214.39 43.5075 215.009 44.0533 215.525C44.5991 216.041 45.2413 216.445 45.9433 216.713C46.6452 216.981 47.3931 217.107 48.1441 217.086C48.8951 217.064 49.6345 216.895 50.3199 216.587L87.3026 199.987C87.9871 199.679 88.6042 199.24 89.1187 198.693C89.6332 198.147 90.035 197.504 90.3011 196.802C90.5672 196.1 90.6924 195.353 90.6696 194.603C90.6469 193.853 90.4765 193.114 90.1683 192.43ZM40.7444 147.112C39.7478 147.482 38.664 147.548 37.6301 147.301C36.5962 147.054 35.6587 146.507 34.9361 145.727C34.2135 144.948 33.7383 143.972 33.5706 142.922C33.4029 141.873 33.5503 140.797 33.9941 139.831C34.4379 138.865 35.1581 138.053 36.0637 137.496C36.9693 136.94 38.0196 136.665 39.0817 136.705C40.1438 136.746 41.17 137.101 42.0305 137.724C42.891 138.348 43.5471 139.213 43.9158 140.21C44.41 141.546 44.3535 143.024 43.7588 144.318C43.1641 145.612 42.0799 146.617 40.7444 147.112Z" fill="#E0E0E0"/>
<path d="M33.0997 178.093C30.7233 172.982 32.5056 168.404 36.8565 166.386C41.2075 164.367 45.8991 165.931 48.2755 171.042C50.6519 176.153 48.8783 180.74 44.475 182.776C40.0717 184.811 35.5023 183.256 33.0997 178.093ZM43.1645 173.419C41.7666 170.422 40.159 169.732 38.7175 170.396C37.2759 171.06 36.7779 172.737 38.1758 175.743C39.5737 178.748 41.2599 179.395 42.6141 178.766C43.9683 178.137 44.5536 176.424 43.1645 173.419ZM54.5223 158.627L60.638 155.797L54.1903 194.771L48.0745 197.602L54.5223 158.627ZM60.4545 182.339C58.0781 177.228 59.8167 172.667 64.2113 170.623C68.6059 168.579 73.2539 170.169 75.6303 175.288C78.0067 180.408 76.2244 184.977 71.8298 187.022C67.4352 189.066 62.8571 187.494 60.4633 182.339H60.4545ZM70.5193 177.691C69.1301 174.686 67.4789 174.013 66.081 174.659C64.6831 175.306 64.1414 177.01 65.5306 180.006C66.9197 183.003 68.5797 183.676 69.9776 183.029C71.3755 182.383 71.9172 180.662 70.5193 177.691Z" fill="white"/>
<path d="M543.213 120.098L432.475 89.4497C431.798 89.2629 431.165 88.9444 430.611 88.5125C430.058 88.0805 429.595 87.5436 429.249 86.9325C428.903 86.3214 428.681 85.6481 428.596 84.9511C428.511 84.2542 428.564 83.5473 428.753 82.8709L447.703 14.4621C447.89 13.7851 448.208 13.1516 448.64 12.5977C449.072 12.0438 449.609 11.5804 450.22 11.234C450.831 10.8875 451.504 10.6648 452.201 10.5786C452.898 10.4924 453.605 10.5444 454.282 10.7315L565.02 41.3975C565.697 41.5844 566.331 41.9029 566.885 42.3347C567.439 42.7665 567.902 43.3032 568.248 43.9141C568.595 44.525 568.818 45.1982 568.904 45.8952C568.99 46.5922 568.938 47.2994 568.751 47.9763L549.792 116.385C549.604 117.061 549.285 117.694 548.853 118.246C548.42 118.799 547.883 119.261 547.272 119.606C546.661 119.95 545.988 120.171 545.292 120.256C544.595 120.341 543.889 120.287 543.213 120.098Z" fill="#E0E0E0"/>
<path d="M445.894 62.6104L444.033 69.3552L443.343 69.1717L445.038 63.056L443.457 62.6191L443.623 61.9988L445.894 62.6104Z" fill="white"/>
<path d="M451.119 70.6307L450.944 71.251L446.235 69.9405L446.366 69.4513L449.922 67.4855C450.883 66.9525 451.154 66.5419 451.285 66.0789C451.503 65.3013 451.084 64.6722 450.062 64.3839C449.725 64.2688 449.366 64.231 449.012 64.2733C448.658 64.3157 448.318 64.4371 448.018 64.6286L447.642 64.0694C448.031 63.8322 448.466 63.682 448.919 63.6292C449.371 63.5764 449.83 63.6223 450.263 63.7636C451.626 64.148 452.299 65.0741 452.01 66.2012C451.827 66.839 451.469 67.3632 450.324 67.9485L447.415 69.6085L451.119 70.6307Z" fill="white"/>
<path d="M458.51 71.4433L457.165 71.0676L456.676 72.8149L455.985 72.6227L456.475 70.8754L452.683 69.827L452.823 69.329L457.619 65.8343L458.388 66.0439L453.749 69.4338L456.667 70.2376L457.095 68.6824L457.768 68.8746L457.34 70.4298L458.685 70.7967L458.51 71.4433Z" fill="white"/>
<path d="M468.811 74.2914L467.465 73.9245L466.976 75.6718L466.286 75.4796L466.775 73.7323L462.984 72.6751L463.123 72.1771L467.92 68.6824L468.68 68.9008L464.014 72.3082L466.933 73.1207L467.369 71.5655L468.042 71.749L467.605 73.3042L468.951 73.6798L468.811 74.2914Z" fill="white"/>
<path d="M474.743 75.7068C474.42 76.8513 473.38 77.5241 471.738 77.0697C470.848 76.8536 470.073 76.307 469.571 75.5408L470.051 75.0865C470.464 75.7537 471.118 76.2358 471.877 76.432C473.022 76.7465 473.782 76.3621 474 75.5583C474.219 74.7545 473.852 74.0119 472.148 73.5401L470.715 73.1382L471.991 69.8706L475.669 70.8841L475.503 71.5044L472.428 70.6307L471.607 72.7101L472.48 72.946C474.498 73.5051 475.066 74.5186 474.743 75.7068Z" fill="white"/>
<path d="M481.392 77.524C481.307 77.812 481.163 78.0793 480.97 78.3093C480.777 78.5393 480.538 78.7269 480.269 78.8606C480 78.9942 479.707 79.071 479.407 79.086C479.107 79.1011 478.807 79.0542 478.526 78.9481C476.735 78.4501 476.115 76.9474 476.7 74.8244C477.329 72.5441 478.911 71.6966 480.737 72.2033C481.295 72.3317 481.809 72.6095 482.222 73.0071L481.794 73.4877C481.467 73.1701 481.059 72.9493 480.614 72.8499C479.164 72.448 477.993 73.1207 477.469 74.9467C477.419 75.1308 477.378 75.3175 477.347 75.5058C477.64 75.1868 478.022 74.9611 478.443 74.857C478.864 74.753 479.306 74.775 479.714 74.9205C480 74.9715 480.273 75.081 480.515 75.2421C480.757 75.4032 480.963 75.6125 481.12 75.8568C481.278 76.1011 481.383 76.3752 481.43 76.6621C481.477 76.949 481.464 77.2424 481.392 77.524ZM480.702 77.3493C480.758 77.1384 480.769 76.9179 480.733 76.7025C480.698 76.4871 480.616 76.2819 480.495 76.1006C480.373 75.9194 480.214 75.7662 480.028 75.6516C479.842 75.5369 479.634 75.4634 479.417 75.4359C479.213 75.353 478.993 75.3129 478.772 75.3181C478.551 75.3233 478.334 75.3737 478.133 75.4662C477.933 75.5587 477.753 75.6914 477.606 75.856C477.459 76.0206 477.347 76.2136 477.277 76.4232C477.076 77.1658 477.495 78.0308 478.657 78.354C478.856 78.4359 479.071 78.4746 479.286 78.4674C479.501 78.4602 479.713 78.4074 479.906 78.3124C480.099 78.2174 480.27 78.0824 480.407 77.9164C480.544 77.7503 480.645 77.557 480.702 77.3493Z" fill="white"/>
<path d="M490.565 80.1451C490.251 81.2634 489.194 81.8924 487.577 81.4556C486.681 81.2372 485.901 80.6879 485.393 79.9179L485.882 79.4636C486.09 79.8011 486.362 80.0944 486.683 80.3268C487.003 80.5592 487.367 80.726 487.752 80.8178C488.862 81.1323 489.622 80.8178 489.849 79.9441C490.076 79.0705 489.657 78.4589 488.407 78.1094L487.927 77.9784L488.067 77.4716L490.574 75.6544L487.141 74.7021L487.307 74.0818L491.675 75.2787L491.535 75.768L488.975 77.6376C490.347 78.0919 490.862 79.0705 490.565 80.1451Z" fill="white"/>
<path d="M497.319 81.9361C497.236 82.2256 497.094 82.4946 496.901 82.726C496.709 82.9574 496.47 83.1461 496.2 83.2801C495.931 83.4141 495.636 83.4904 495.335 83.5042C495.034 83.518 494.734 83.4689 494.453 83.3602C492.706 82.8709 492.042 81.3595 492.627 79.2364C493.265 76.9561 494.838 76.1087 496.664 76.6154C497.225 76.7439 497.741 77.0216 498.158 77.4192L497.721 77.8997C497.391 77.5604 496.969 77.3263 496.506 77.227C495.056 76.8251 493.885 77.4978 493.361 79.3151C493.311 79.4992 493.27 79.6858 493.239 79.8742C493.535 79.5563 493.918 79.3316 494.34 79.2277C494.762 79.1237 495.205 79.145 495.615 79.2889C495.909 79.3346 496.19 79.4422 496.439 79.6044C496.689 79.7666 496.901 79.9797 497.062 80.2298C497.223 80.4799 497.329 80.7613 497.373 81.0554C497.417 81.3495 497.399 81.6497 497.319 81.9361ZM496.638 81.7614C496.882 80.8877 496.384 80.1363 495.344 79.848C495.14 79.7651 494.921 79.7251 494.701 79.7304C494.481 79.7357 494.264 79.7862 494.064 79.8788C493.864 79.9714 493.686 80.104 493.539 80.2686C493.393 80.4331 493.281 80.626 493.213 80.8353C493.003 81.5779 493.431 82.4428 494.584 82.7661C494.784 82.848 494.999 82.8867 495.215 82.8796C495.431 82.8725 495.643 82.8197 495.837 82.7248C496.031 82.6299 496.202 82.495 496.34 82.3289C496.478 82.1628 496.58 81.9694 496.638 81.7614Z" fill="white"/>
<path d="M504.806 78.9656L504.675 79.4549L500.132 84.9066L499.381 84.6969L503.837 79.3588L500.342 78.4065L499.992 79.6646L499.311 79.4723L499.826 77.6027L504.806 78.9656Z" fill="white"/>
<path d="M514.417 81.5866L514.277 82.0759L509.742 87.5276L508.991 87.3179L513.447 81.9798L509.952 81.0187L509.611 82.2768L508.93 82.0934L509.445 80.215L514.417 81.5866Z" fill="white"/>
<path d="M519.685 88.2703C519.353 89.4672 518.139 89.9215 516.54 89.4759C514.941 89.0304 514.155 88.0256 514.478 86.8549C514.58 86.4737 514.809 86.1384 515.126 85.9036C515.443 85.6688 515.831 85.5484 516.225 85.5619C515.946 85.3775 515.732 85.1086 515.616 84.7942C515.499 84.4799 515.486 84.1367 515.579 83.8145C515.885 82.7224 517.003 82.2943 518.427 82.6875C519.851 83.0806 520.603 84.0242 520.305 85.125C520.217 85.4551 520.025 85.748 519.758 85.9604C519.49 86.1729 519.162 86.2935 518.82 86.3045C519.163 86.4891 519.434 86.7827 519.59 87.1388C519.747 87.4949 519.78 87.8931 519.685 88.2703ZM518.977 88.0693C519.205 87.1956 518.637 86.5229 517.449 86.1997C516.26 85.8764 515.413 86.1997 515.186 87.0122C514.959 87.8247 515.509 88.5673 516.697 88.8906C517.885 89.2138 518.742 88.8993 518.977 88.0693ZM517.597 85.6492C518.646 85.9376 519.397 85.6492 519.598 84.9153C519.799 84.1815 519.275 83.5087 518.27 83.2292C517.265 82.9496 516.479 83.2292 516.278 83.9805C516.077 84.7319 516.549 85.3609 517.597 85.6492Z" fill="white"/>
<path d="M526.639 88.576C526.002 90.8651 524.429 91.7125 522.603 91.1971C522.041 91.0656 521.525 90.7849 521.109 90.3845L521.546 89.9128C521.877 90.2492 522.299 90.4828 522.76 90.5855C524.211 90.9874 525.381 90.3146 525.906 88.4887C525.956 88.3075 525.997 88.1238 526.028 87.9382C525.732 88.2566 525.349 88.4809 524.926 88.5834C524.504 88.6859 524.06 88.6621 523.651 88.5149C523.357 88.474 523.074 88.3711 522.822 88.2129C522.569 88.0547 522.354 87.8449 522.189 87.5972C522.023 87.3495 521.913 87.0696 521.864 86.776C521.815 86.4824 521.828 86.1817 521.904 85.8938C521.987 85.6044 522.129 85.3353 522.322 85.1036C522.514 84.872 522.753 84.6828 523.022 84.5481C523.292 84.4134 523.586 84.3361 523.887 84.3211C524.188 84.3061 524.488 84.3538 524.77 84.461C526.596 84.9066 527.225 86.4181 526.639 88.576ZM526.054 86.9859C526.264 86.2433 525.844 85.3696 524.682 85.0464C524.48 84.96 524.261 84.9184 524.042 84.9243C523.822 84.9302 523.606 84.9834 523.408 85.0804C523.211 85.1775 523.037 85.3159 522.897 85.4864C522.758 85.6569 522.658 85.8554 522.603 86.0684C522.547 86.2813 522.539 86.5036 522.577 86.7202C522.616 86.9368 522.7 87.1426 522.826 87.3234C522.951 87.5042 523.114 87.6559 523.303 87.768C523.492 87.8802 523.703 87.9502 523.922 87.9732C524.129 88.0525 524.349 88.0885 524.571 88.079C524.792 88.0695 525.008 88.0148 525.207 87.9181C525.406 87.8215 525.583 87.685 525.728 87.5171C525.872 87.3493 525.98 87.1536 526.045 86.9423L526.054 86.9859Z" fill="white"/>
<path d="M534.363 87.117L532.502 93.8443L531.812 93.6521L533.506 87.5364L531.925 87.0995L532.091 86.4792L534.363 87.117Z" fill="white"/>
<path d="M539.587 95.1373L539.413 95.7576L534.703 94.4471L534.835 93.9579L538.39 92.0008C539.351 91.4592 539.622 91.0485 539.753 90.5855C539.963 89.8079 539.552 89.1789 538.522 88.8905C538.186 88.7755 537.828 88.7378 537.476 88.7801C537.123 88.8225 536.785 88.9438 536.486 89.1352L536.11 88.576C536.499 88.338 536.935 88.1881 537.388 88.1368C537.841 88.0855 538.299 88.134 538.731 88.279C540.094 88.6547 540.767 89.5808 540.479 90.7078C540.295 91.3543 539.937 91.8698 538.784 92.5076L535.883 94.1151L539.587 95.1373Z" fill="white"/>
<path d="M545.974 95.4956C545.668 96.6139 544.611 97.2429 542.986 96.8061C542.091 96.5898 541.313 96.0397 540.811 95.2684L541.3 94.8228C541.72 95.4993 542.388 95.9852 543.161 96.177C544.279 96.4828 545.039 96.177 545.266 95.3033C545.493 94.4297 545.065 93.8181 543.825 93.4686L543.344 93.3376L543.484 92.8308L545.991 91.0136L542.558 90.0613L542.724 89.4497L547.049 90.6379L546.909 91.1359L544.393 92.9881C545.764 93.4599 546.271 94.4209 545.974 95.4956Z" fill="white"/>
<path d="M492.452 88.0877L491.642 91.0094L545.47 105.917L546.28 102.995L492.452 88.0877Z" fill="white"/>
<path d="M517.056 101.185L516.247 104.106L543.856 111.753L544.665 108.831L517.056 101.185Z" fill="white"/>
<g opacity="0.5">
<path d="M464.479 45.1577L450.304 41.1711C448.007 40.5249 445.62 41.8636 444.974 44.1611L442.587 52.6491C441.941 54.9466 443.279 57.333 445.577 57.9792L459.751 61.9658C462.049 62.612 464.435 61.2733 465.082 58.9757L467.469 50.4878C468.115 48.1902 466.776 45.8038 464.479 45.1577Z" fill="#F5F5F5"/>
</g>
<path d="M444.697 51.008L444.994 49.9246L456.623 53.1485C457.256 53.2874 457.918 53.1786 458.473 52.8444C459.028 52.5103 459.434 51.9761 459.608 51.3519C459.781 50.7276 459.709 50.0606 459.405 49.488C459.102 48.9154 458.591 48.4807 457.977 48.2734L446.349 45.067L446.646 43.9836L458.274 47.2075C458.773 47.2983 459.247 47.492 459.666 47.7762C460.085 48.0605 460.441 48.4291 460.709 48.8584C460.978 49.2878 461.154 49.7684 461.227 50.2698C461.3 50.7711 461.267 51.282 461.131 51.77C460.995 52.2579 460.758 52.7121 460.437 53.1036C460.116 53.4951 459.716 53.8153 459.264 54.0437C458.812 54.272 458.317 54.4036 457.811 54.43C457.305 54.4564 456.799 54.377 456.326 54.1969L444.697 51.008Z" fill="#E0E0E0"/>
<path d="M460.416 50.99L460.114 52.0758L468.094 54.2948L468.396 53.2089L460.416 50.99Z" fill="#E0E0E0"/>
<path d="M512.655 41.7874L454.578 25.6921L453.197 30.6764L511.274 46.7717L512.655 41.7874Z" fill="white"/>
<path d="M552.535 49.2291L546.153 47.4604C544.688 47.0545 543.172 47.9128 542.766 49.3776L540.997 55.7595C540.591 57.2242 541.45 58.7407 542.914 59.1466L549.296 60.9152C550.761 61.3212 552.278 60.4629 552.683 58.9981L554.452 52.6162C554.858 51.1515 554 49.635 552.535 49.2291Z" fill="white"/>
<path d="M59.5635 264.98C59.5111 264.98 59.4674 264.255 59.214 262.971C58.8724 261.169 58.3333 259.411 57.6065 257.728C56.5588 255.21 55.0068 252.932 53.0459 251.036C50.6698 248.673 47.4584 247.342 44.1076 247.331C40.7568 247.319 37.5364 248.629 35.1443 250.975C33.175 252.865 31.6114 255.136 30.5487 257.65C29.8195 259.333 29.2774 261.091 28.9324 262.892C28.679 264.176 28.6179 264.901 28.5655 264.901C28.5519 264.724 28.5519 264.546 28.5655 264.368C28.5655 264.019 28.6354 263.495 28.7315 262.866C29.0045 261.02 29.5064 259.215 30.2255 257.493C31.2613 254.903 32.83 252.561 34.8297 250.617C37.295 248.171 40.6305 246.803 44.1033 246.815C47.5762 246.826 50.9026 248.216 53.3517 250.678C55.338 252.633 56.8944 254.98 57.921 257.571C58.628 259.299 59.1237 261.106 59.3975 262.953C59.4936 263.6 59.5373 264.106 59.5548 264.456C59.58 264.629 59.5829 264.806 59.5635 264.98Z" fill="#E0E0E0"/>
<path d="M64.9191 264.98C64.8667 264.98 64.8143 264.255 64.5697 262.971C64.2198 261.171 63.6809 259.414 62.9621 257.728C61.9119 255.211 60.3602 252.934 58.4015 251.036C56.0254 248.673 52.8141 247.342 49.4633 247.331C46.1125 247.319 42.8921 248.629 40.4999 250.975C38.5354 252.853 36.9747 255.113 35.9131 257.615C35.1858 259.299 34.641 261.057 34.2881 262.857C34.0347 264.141 33.9823 264.866 33.9299 264.866C33.9106 264.689 33.9106 264.511 33.9299 264.333C33.9576 263.83 34.013 263.328 34.0959 262.831C34.3694 260.986 34.8682 259.181 35.5811 257.458C36.6204 254.87 38.1886 252.528 40.1854 250.582C42.6507 248.136 45.9861 246.768 49.459 246.78C52.9319 246.791 56.2582 248.181 58.7073 250.643C60.6988 252.595 62.2585 254.944 63.2854 257.536C63.9944 259.263 64.4874 261.071 64.7531 262.918C64.8493 263.565 64.8929 264.071 64.9104 264.421C64.9408 264.606 64.9438 264.794 64.9191 264.98Z" fill="#E0E0E0"/>
<path d="M13.25 263.067L73.6996 262.604L75.0189 345H7.18665L13.25 263.067Z" fill="#EBEBEB"/>
<path d="M73.6997 262.604H81.292L87.8183 345H75.019L73.6997 262.604Z" fill="#E0E0E0"/>
<path d="M60.8829 295.043H21.3141V301.674H60.8829V295.043Z" fill="white"/>
<path d="M541.772 264.98C541.719 264.98 541.667 264.255 541.413 262.971C541.072 261.171 540.536 259.413 539.815 257.728C538.76 255.213 537.209 252.937 535.254 251.036C532.878 248.673 529.667 247.342 526.316 247.331C522.965 247.319 519.745 248.629 517.352 250.975C515.381 252.863 513.817 255.134 512.757 257.65C512.026 259.333 511.481 261.091 511.132 262.892C510.878 264.176 510.826 264.901 510.774 264.901C510.749 264.725 510.749 264.545 510.774 264.368C510.774 264.019 510.835 263.495 510.931 262.866C511.212 261.021 511.714 259.218 512.425 257.493C513.461 254.903 515.029 252.561 517.029 250.617C519.494 248.171 522.83 246.803 526.303 246.815C529.776 246.826 533.102 248.216 535.551 250.678C537.539 252.633 539.098 254.981 540.129 257.571C540.834 259.299 541.327 261.106 541.597 262.953C541.693 263.6 541.737 264.106 541.754 264.456C541.779 264.629 541.784 264.805 541.772 264.98Z" fill="#E0E0E0"/>
<path d="M547.145 264.98C547.092 264.98 547.048 264.255 546.795 262.971C546.453 261.169 545.914 259.411 545.187 257.728C544.14 255.21 542.588 252.932 540.627 251.036C538.251 248.673 535.039 247.342 531.689 247.331C528.338 247.319 525.117 248.629 522.725 250.975C520.756 252.865 519.192 255.136 518.13 257.65C517.4 259.333 516.858 261.091 516.513 262.892C516.26 264.176 516.199 264.901 516.155 264.901C516.13 264.725 516.13 264.545 516.155 264.368C516.179 263.865 516.232 263.363 516.312 262.866C516.585 261.02 517.087 259.215 517.806 257.493C518.842 254.903 520.411 252.561 522.411 250.617C524.876 248.171 528.211 246.803 531.684 246.815C535.157 246.826 538.484 248.216 540.933 250.678C542.922 252.63 544.479 254.979 545.502 257.571C546.214 259.298 546.709 261.105 546.979 262.953C547.075 263.6 547.118 264.106 547.136 264.456C547.161 264.629 547.164 264.806 547.145 264.98Z" fill="#E0E0E0"/>
<path d="M495.484 263.067L555.925 262.604L557.245 345H489.421L495.484 263.067Z" fill="#EBEBEB"/>
<path d="M555.925 262.604H563.517L570.052 345H557.244L555.925 262.604Z" fill="#E0E0E0"/>
<path d="M543.117 295.043H503.548V301.674H543.117V295.043Z" fill="white"/>
<path d="M584.704 344.677C584.704 344.808 455.557 344.904 296.286 344.904C137.015 344.904 7.83313 344.808 7.83313 344.677C7.83313 344.546 136.954 344.45 296.286 344.45C455.618 344.45 584.704 344.563 584.704 344.677Z" fill="#263238"/>
<path d="M113.609 281.3H29.7625V344.686H113.609V281.3Z" fill="#AE7461"/>
<g opacity="0.3">
<path fill-rule="evenodd" clip-rule="evenodd" d="M82.0258 288.744V285.791H87.1018V288.744C87.0934 289.354 86.8637 289.94 86.4555 290.393C86.0473 290.846 85.4884 291.136 84.8827 291.208V293.785H86.0185C86.4116 293.785 86.7349 294.004 86.7349 294.274H82.3665C82.3665 294.004 82.6897 293.785 83.0829 293.785H84.2187V291.208C83.6178 291.13 83.0651 290.838 82.6622 290.385C82.2594 289.933 82.0334 289.35 82.0258 288.744Z" fill="black"/>
<path fill-rule="evenodd" clip-rule="evenodd" d="M72.2928 288.543C72.5002 287.752 72.9646 287.052 73.6131 286.554C74.2615 286.056 75.0572 285.787 75.8749 285.791C76.6923 285.789 77.4872 286.058 78.1354 286.556C78.7835 287.054 79.2483 287.753 79.457 288.543H76.2157V293.174C76.2157 293.364 76.2911 293.546 76.4255 293.68C76.5598 293.814 76.7421 293.89 76.9321 293.89C77.1221 293.89 77.3043 293.814 77.4387 293.68C77.573 293.546 77.6485 293.364 77.6485 293.174H78.3387C78.3387 293.547 78.1905 293.904 77.9267 294.168C77.6629 294.432 77.3051 294.58 76.9321 294.58C76.559 294.58 76.2012 294.432 75.9374 294.168C75.6736 293.904 75.5254 293.547 75.5254 293.174V288.543H72.2928Z" fill="black"/>
</g>
<g opacity="0.3">
<path d="M92.8156 344.677H113.609L113.609 281.292H92.8156V344.677Z" fill="black"/>
</g>
<path d="M92.7719 344.048C92.6584 344.048 92.5623 329.99 92.5623 312.657C92.5623 295.323 92.6584 281.257 92.7719 281.257C92.8855 281.257 92.9816 295.314 92.9816 312.657C92.9816 329.999 92.8943 344.048 92.7719 344.048Z" fill="#263238"/>
<path d="M106.506 330.069H100.076V337.189H106.506V330.069Z" fill="white"/>
<g opacity="0.3">
<path d="M64.8667 281.457H55.3436V294.982H64.8667V281.457Z" fill="black"/>
</g>
<g opacity="0.3">
<path d="M64.8667 330.969H55.3436V344.493H64.8667V330.969Z" fill="black"/>
</g>
<path d="M30.3738 281.335C30.3738 281.423 48.9656 281.501 71.8996 281.501C94.8336 281.501 113.434 281.423 113.434 281.335C113.434 281.248 94.8423 281.169 71.8996 281.169C48.9569 281.169 30.3738 281.239 30.3738 281.335Z" fill="#263238"/>
<path d="M68.2828 317.208H54.1904C54.0282 317.208 53.8726 317.144 53.7579 317.029C53.6432 316.915 53.5788 316.759 53.5788 316.597C53.5788 316.435 53.6432 316.279 53.7579 316.164C53.8726 316.05 54.0282 315.985 54.1904 315.985H67.776L69.2351 307.886H52.8624C52.7765 307.897 52.6895 307.889 52.6069 307.863C52.5244 307.837 52.4483 307.794 52.3836 307.737C52.3189 307.679 52.2671 307.609 52.2317 307.53C52.1962 307.451 52.1779 307.366 52.1779 307.279C52.1779 307.193 52.1962 307.107 52.2317 307.028C52.2671 306.949 52.3189 306.879 52.3836 306.822C52.4483 306.764 52.5244 306.721 52.6069 306.695C52.6895 306.67 52.7765 306.662 52.8624 306.672H69.9864C70.0749 306.673 70.1621 306.693 70.2419 306.732C70.3217 306.77 70.3923 306.825 70.4488 306.893C70.5053 306.961 70.5463 307.041 70.5691 307.126C70.5918 307.212 70.5957 307.301 70.5805 307.388L68.9031 316.702C68.8779 316.847 68.8014 316.978 68.6874 317.071C68.5735 317.164 68.4298 317.213 68.2828 317.208Z" fill="#E0E0E0"/>
<path d="M67.8197 320.467L54.4001 320.423C54.2516 320.424 54.108 320.371 53.9967 320.272C53.8855 320.174 53.8145 320.038 53.7973 319.891L51.9014 305.405H48.1446C47.9961 305.387 47.8593 305.316 47.76 305.204C47.6608 305.092 47.606 304.947 47.606 304.798C47.606 304.648 47.6608 304.504 47.76 304.392C47.8593 304.28 47.9961 304.208 48.1446 304.191H52.4256C52.5722 304.191 52.7138 304.244 52.8244 304.341C52.9351 304.437 53.0075 304.57 53.0284 304.715L54.9243 319.227H67.8197C67.9682 319.244 68.1051 319.316 68.2043 319.428C68.3036 319.54 68.3584 319.684 68.3584 319.834C68.3584 319.983 68.3036 320.128 68.2043 320.24C68.1051 320.351 67.9682 320.423 67.8197 320.441V320.467Z" fill="#E0E0E0"/>
<path d="M56.5843 325.15C56.1418 325.143 55.7111 325.006 55.3465 324.755C54.9819 324.504 54.6996 324.151 54.535 323.74C54.3704 323.329 54.3308 322.879 54.4214 322.446C54.5119 322.012 54.7285 321.616 55.0439 321.305C55.3592 320.995 55.7593 320.784 56.1939 320.7C56.6285 320.616 57.0781 320.663 57.4864 320.834C57.8946 321.005 58.2433 321.293 58.4885 321.661C58.7337 322.029 58.8645 322.462 58.8646 322.905C58.8577 323.504 58.6141 324.077 58.187 324.497C57.7598 324.918 57.1838 325.152 56.5843 325.15ZM56.5843 321.874C56.4415 321.861 56.2976 321.877 56.1616 321.923C56.0257 321.969 55.9008 322.042 55.7948 322.139C55.6889 322.235 55.6043 322.353 55.5464 322.484C55.4885 322.615 55.4586 322.757 55.4586 322.9C55.4586 323.044 55.4885 323.186 55.5464 323.317C55.6043 323.448 55.6889 323.566 55.7948 323.662C55.9008 323.759 56.0257 323.832 56.1616 323.878C56.2976 323.923 56.4415 323.94 56.5843 323.927C56.7271 323.94 56.871 323.923 57.007 323.878C57.1429 323.832 57.2678 323.759 57.3738 323.662C57.4797 323.566 57.5643 323.448 57.6222 323.317C57.6801 323.186 57.71 323.044 57.71 322.9C57.71 322.757 57.6801 322.615 57.6222 322.484C57.5643 322.353 57.4797 322.235 57.3738 322.139C57.2678 322.042 57.1429 321.969 57.007 321.923C56.871 321.877 56.7271 321.861 56.5843 321.874Z" fill="#E0E0E0"/>
<path d="M65.8452 325.15C65.4026 325.143 64.972 325.006 64.6074 324.755C64.2428 324.504 63.9604 324.151 63.7958 323.74C63.6312 323.329 63.5917 322.879 63.6823 322.446C63.7728 322.012 63.9894 321.616 64.3047 321.305C64.6201 320.995 65.0202 320.784 65.4548 320.7C65.8893 320.616 66.339 320.663 66.7472 320.834C67.1555 321.005 67.5041 321.293 67.7493 321.661C67.9946 322.029 68.1254 322.462 68.1255 322.905C68.1186 323.504 67.875 324.077 67.4478 324.497C67.0207 324.918 66.4446 325.152 65.8452 325.15ZM65.8452 321.874C65.6429 321.881 65.4471 321.947 65.2822 322.064C65.1174 322.182 64.9907 322.345 64.918 322.534C64.8453 322.723 64.8298 322.929 64.8734 323.126C64.9171 323.324 65.0179 323.504 65.1634 323.645C65.3089 323.786 65.4925 323.881 65.6915 323.918C65.8905 323.955 66.0959 323.932 66.2823 323.853C66.4686 323.774 66.6276 323.642 66.7394 323.474C66.8513 323.305 66.9109 323.107 66.9111 322.905C66.9122 322.765 66.8854 322.626 66.8322 322.497C66.7789 322.367 66.7003 322.25 66.601 322.151C66.5016 322.053 66.3836 321.975 66.2538 321.923C66.124 321.871 65.9851 321.845 65.8452 321.848V321.874Z" fill="#E0E0E0"/>
<path d="M58.5413 317.208C58.3856 317.207 58.2363 317.146 58.123 317.039C58.0097 316.933 57.9407 316.787 57.9298 316.632L57.3619 307.615C57.356 307.535 57.366 307.455 57.3915 307.379C57.4169 307.303 57.4573 307.233 57.5101 307.173C57.563 307.113 57.6274 307.064 57.6994 307.029C57.7715 306.994 57.8498 306.973 57.9298 306.969C58.0901 306.962 58.247 307.017 58.3675 307.122C58.4881 307.228 58.5629 307.377 58.5763 307.537L59.1442 316.606C59.1501 316.685 59.1401 316.766 59.1146 316.842C59.0891 316.918 59.0488 316.988 58.9959 317.048C58.943 317.108 58.8787 317.157 58.8066 317.192C58.7346 317.227 58.6563 317.248 58.5763 317.252L58.5413 317.208Z" fill="#E0E0E0"/>
<path d="M63.6961 317.208C63.6157 317.204 63.537 317.184 63.4645 317.149C63.392 317.114 63.3271 317.065 63.2736 317.005C63.22 316.945 63.1788 316.875 63.1524 316.799C63.1259 316.723 63.1147 316.642 63.1195 316.562L63.6349 307.545C63.6309 307.46 63.6448 307.374 63.676 307.294C63.7071 307.215 63.7546 307.142 63.8155 307.082C63.8765 307.022 63.9494 306.975 64.0296 306.944C64.1097 306.914 64.1954 306.901 64.281 306.906C64.3665 306.911 64.4501 306.934 64.5263 306.973C64.6025 307.012 64.6695 307.067 64.7231 307.134C64.7767 307.201 64.8156 307.278 64.8374 307.361C64.8591 307.444 64.8632 307.531 64.8493 307.615L64.2989 316.605C64.2967 316.765 64.2324 316.917 64.1199 317.029C64.0073 317.142 63.8553 317.206 63.6961 317.208Z" fill="#E0E0E0"/>
<path d="M53.3866 312.7C53.2244 312.7 53.0688 312.636 52.9541 312.521C52.8395 312.406 52.775 312.251 52.775 312.089C52.775 311.926 52.8395 311.771 52.9541 311.656C53.0688 311.541 53.2244 311.477 53.3866 311.477L69.1128 311.329C69.2613 311.346 69.3981 311.418 69.4973 311.53C69.5966 311.642 69.6514 311.786 69.6514 311.936C69.6514 312.085 69.5966 312.23 69.4973 312.342C69.3981 312.453 69.2613 312.525 69.1128 312.543L53.3866 312.7Z" fill="#E0E0E0"/>
<path d="M550.509 321.201C550.509 321.201 547.119 297.883 547.398 284.314C547.678 270.746 547.398 255.483 547.398 255.483H548.953C548.953 255.483 547.896 282.419 549.049 298.66C550.203 314.902 553.234 321.201 553.234 321.201H550.509Z" fill="#263238"/>
<path d="M560.634 229.238C560.387 228.414 559.889 227.687 559.21 227.159C558.214 226.529 556.912 226.792 555.811 227.159C551.085 228.836 546.9 237.643 544.995 242.264L551.26 263.39C562.574 252.923 564.54 239.145 560.634 229.238Z" fill="#455A64"/>
<path d="M558.843 228.023C558.821 228.117 558.789 228.208 558.747 228.294L558.441 229.063C558.17 229.727 557.786 230.697 557.323 231.894C556.397 234.296 555.226 237.651 554.169 241.426C553.112 245.2 552.422 248.686 551.959 251.22C551.731 252.486 551.565 253.509 551.461 254.225L551.33 255.038C551.319 255.136 551.295 255.233 551.26 255.326C551.25 255.23 551.25 255.133 551.26 255.038C551.26 254.819 551.26 254.548 551.338 254.208C551.417 253.491 551.557 252.46 551.758 251.193C552.831 244.568 554.639 238.084 557.148 231.859C557.637 230.662 558.022 229.701 558.354 229.054C558.494 228.749 558.607 228.495 558.703 228.303C558.799 228.111 558.834 228.015 558.843 228.023Z" fill="#263238"/>
<path d="M548.473 268.483C545.621 266.86 543.234 264.53 541.542 261.718C539.85 258.906 538.909 255.706 538.81 252.425C538.583 247.734 540.024 243.138 541.658 238.735C541.755 238.335 541.991 237.982 542.322 237.739C542.589 237.644 542.875 237.617 543.154 237.661C543.433 237.705 543.697 237.819 543.921 237.992C548.193 240.421 550.779 245.06 552.16 249.778C553.147 252.907 553.477 256.205 553.13 259.467C552.59 262.896 550.956 266.058 548.473 268.483Z" fill="#455A64"/>
<path d="M548.473 268.483C548.46 268.391 548.46 268.297 548.473 268.204V267.391C548.473 266.684 548.473 265.644 548.385 264.412C548.217 261.14 547.852 257.881 547.293 254.653C546.638 250.87 545.852 247.48 545.266 245.043C544.978 243.846 544.742 242.858 544.567 242.142L544.393 241.347C544.368 241.255 544.35 241.162 544.34 241.067C544.384 241.154 544.419 241.245 544.445 241.338C544.498 241.539 544.576 241.801 544.672 242.116C544.865 242.797 545.127 243.776 545.441 244.999C546.07 247.437 546.891 250.826 547.547 254.609C548.113 257.847 548.455 261.119 548.569 264.403C548.569 265.661 548.569 266.684 548.569 267.391C548.569 267.723 548.569 267.985 548.569 268.204C548.547 268.3 548.514 268.394 548.473 268.483Z" fill="#263238"/>
<g opacity="0.3">
<path d="M548.473 268.483C545.621 266.86 543.234 264.53 541.542 261.718C539.85 258.906 538.909 255.706 538.81 252.425C538.583 247.734 540.024 243.138 541.658 238.735C541.755 238.335 541.991 237.982 542.322 237.739C542.589 237.644 542.875 237.617 543.154 237.661C543.433 237.705 543.697 237.819 543.921 237.992C548.193 240.421 550.779 245.06 552.16 249.778C553.147 252.907 553.477 256.205 553.13 259.467C552.59 262.896 550.956 266.058 548.473 268.483Z" fill="black"/>
</g>
<path d="M555.104 304.164C560.888 305.431 565.649 309.511 571.232 311.494C574.919 312.805 579.095 313.242 582.048 315.863C581.34 314.116 579.663 312.884 578.029 311.87C573.437 308.996 568.533 306.651 563.413 304.881C560.792 304.007 557.943 303.221 555.27 303.963" fill="#455A64"/>
<path d="M546.743 309.319C539.5 309.197 531.89 303.029 524.665 302.662C532.205 300.224 543.012 302.216 546.743 309.319Z" fill="#455A64"/>
<path d="M549.574 291.942C553.306 290.717 557.286 290.446 561.15 291.155C564.998 291.858 568.78 292.884 572.455 294.222C572.088 291.714 570.053 289.854 568.139 288.15C566.739 286.843 565.218 285.673 563.596 284.655C561.966 283.633 560.077 283.1 558.153 283.118C557.001 283.193 555.876 283.499 554.844 284.018C553.813 284.538 552.897 285.259 552.151 286.14C550.671 287.735 549.751 289.769 549.53 291.933" fill="#455A64"/>
<path d="M534.704 283.939C530.152 280.051 523.241 280.444 517.23 280.566C526.864 285.153 535.949 290.813 544.314 297.437C544.567 293.2 540.47 288.858 534.704 283.939Z" fill="#455A64"/>
<g opacity="0.3">
<path d="M534.704 283.939C530.152 280.051 523.241 280.444 517.23 280.566C526.864 285.153 535.949 290.813 544.314 297.437C544.567 293.2 540.47 288.858 534.704 283.939Z" fill="black"/>
</g>
<path d="M551.627 278.566C553.845 277.025 556.182 275.664 558.616 274.494C561.019 273.402 563.255 271.664 565.605 270.414C568.611 268.781 571.214 266.518 573.967 264.508C576.719 262.499 579.759 260.664 583.131 260.14C580.354 259.644 577.499 259.808 574.797 260.62C572.1 261.433 569.471 262.455 566.933 263.678C563.378 265.277 559.761 266.92 556.851 269.523C553.942 272.127 551.321 274.687 551.609 278.574" fill="#455A64"/>
<path d="M571.101 309.319L570.865 309.214L570.236 308.891C569.694 308.603 568.908 308.166 567.921 307.677C567.432 307.414 566.89 307.144 566.305 306.873C565.719 306.602 565.09 306.296 564.426 305.999C562.985 305.354 561.492 304.833 559.962 304.444C558.448 304.024 556.855 303.985 555.322 304.33C554.65 304.473 553.99 304.669 553.348 304.916C552.796 305.142 552.264 305.414 551.758 305.728C551.026 306.192 550.357 306.747 549.766 307.379C549.346 307.834 549.137 308.105 549.119 308.096L549.25 307.877C549.346 307.746 549.486 307.554 549.687 307.318C550.258 306.644 550.923 306.056 551.662 305.571C552.171 305.234 552.709 304.942 553.269 304.697C553.916 304.44 554.582 304.233 555.261 304.077C556.832 303.713 558.468 303.746 560.023 304.173C561.567 304.567 563.073 305.099 564.522 305.763C565.195 306.06 565.824 306.357 566.401 306.637C566.977 306.916 567.528 307.196 568.008 307.467C568.987 307.982 569.756 308.437 570.288 308.76L570.891 309.127C570.97 309.181 571.04 309.246 571.101 309.319Z" fill="#263238"/>
<path d="M541.343 305.728C541.501 305.748 541.654 305.792 541.798 305.859C542.202 306.005 542.596 306.177 542.977 306.375C544.255 307.016 545.432 307.84 546.472 308.821C547.507 309.807 548.39 310.94 549.093 312.185C549.306 312.559 549.493 312.947 549.652 313.347C549.725 313.487 549.777 313.637 549.809 313.792C549.809 313.792 549.495 313.198 548.936 312.281C547.481 309.875 545.42 307.893 542.96 306.532C541.946 306.017 541.326 305.772 541.343 305.728Z" fill="#263238"/>
<path d="M525.312 283.581C525.42 283.594 525.526 283.624 525.626 283.668L526.5 283.982L527.871 284.489C528.404 284.681 528.99 284.978 529.619 285.267C533.023 286.833 536.2 288.852 539.063 291.269C540.614 292.611 542.074 294.056 543.432 295.594C544.544 296.856 545.588 298.177 546.559 299.551C547.381 300.722 548.01 301.701 548.438 302.373C548.647 302.688 548.805 302.95 548.936 303.151C549.002 303.236 549.055 303.33 549.093 303.43L548.892 303.177C548.77 303.011 548.586 302.758 548.359 302.426C547.896 301.77 547.25 300.809 546.411 299.656C545.572 298.503 544.506 297.166 543.257 295.751C541.892 294.231 540.433 292.798 538.888 291.461C536.039 289.066 532.898 287.04 529.54 285.433C528.894 285.136 528.317 284.83 527.793 284.62L526.439 284.07L525.565 283.72L525.312 283.581Z" fill="#263238"/>
<path d="M560.442 287.87C560.247 287.869 560.054 287.842 559.865 287.792L559.201 287.669C558.939 287.617 558.634 287.617 558.328 287.582C556.608 287.437 554.882 287.779 553.348 288.569C552.509 289.005 551.746 289.571 551.085 290.247C550.533 290.79 550.044 291.394 549.626 292.046C549.251 292.658 548.918 293.294 548.63 293.951C548.655 293.756 548.705 293.565 548.778 293.383C548.963 292.885 549.194 292.405 549.469 291.95C549.874 291.273 550.358 290.645 550.91 290.081C551.857 289.088 553.022 288.33 554.312 287.866C555.603 287.402 556.983 287.245 558.345 287.407C558.677 287.451 558.983 287.468 559.219 287.53L559.883 287.696C560.075 287.733 560.263 287.791 560.442 287.87Z" fill="#263238"/>
<path d="M567.72 265.286C567.639 265.355 567.548 265.411 567.449 265.452L566.637 265.897C565.938 266.273 564.889 266.832 563.692 267.557C562.495 268.282 561.071 269.191 559.499 270.283C557.827 271.453 556.26 272.765 554.816 274.206C554.072 274.946 553.429 275.78 552.902 276.687C552.422 277.605 551.968 278.478 551.557 279.308C550.808 280.802 550.134 282.333 549.539 283.895C549.149 284.949 548.823 286.026 548.56 287.119C548.377 287.888 548.307 288.333 548.289 288.325C548.278 288.217 548.278 288.109 548.289 288.001C548.289 287.792 548.359 287.486 548.438 287.128C548.655 286.02 548.947 284.928 549.312 283.86C549.879 282.284 550.535 280.74 551.277 279.238C551.688 278.365 552.151 277.491 552.614 276.617C553.147 275.685 553.806 274.829 554.571 274.075C556.023 272.62 557.605 271.301 559.298 270.135C560.853 269.043 562.303 268.16 563.544 267.444C564.784 266.727 565.815 266.203 566.532 265.845L567.405 265.452L567.72 265.286Z" fill="#263238"/>
<path d="M547.407 287.215C547.343 287.016 547.296 286.811 547.267 286.603C547.18 286.158 547.075 285.599 546.953 284.935C546.603 283.098 546.145 281.283 545.581 279.5C544.996 277.713 544.305 275.963 543.51 274.258C543.231 273.641 542.995 273.126 542.803 272.712C542.707 272.525 542.631 272.329 542.575 272.127C542.704 272.294 542.813 272.476 542.899 272.668C543.091 273.018 543.362 273.542 543.676 274.18C544.522 275.871 545.241 277.623 545.826 279.422C546.4 281.212 546.835 283.043 547.127 284.9C547.241 285.607 547.328 286.193 547.363 286.595C547.405 286.799 547.42 287.007 547.407 287.215Z" fill="#263238"/>
<path d="M546.883 270.738C546.66 267.994 545.859 265.329 544.532 262.918C542.748 259.6 540.26 256.714 537.241 254.46C534.222 252.207 530.747 250.641 527.059 249.874L543.257 274.014L545.354 278.321C546.66 276.021 547.195 273.364 546.883 270.738Z" fill="#455A64"/>
<path d="M570.122 318.318H532.458V324.993H570.122V318.318Z" fill="#FF8106"/>
<path d="M535.271 323.665L538.478 344.38H563.482L567.309 323.665H535.271Z" fill="#FF8106"/>
<path d="M570.105 325.002C570.105 325.071 561.604 325.133 551.129 325.133C540.653 325.133 532.153 325.071 532.153 325.002C532.153 324.932 540.645 324.87 551.129 324.87C561.613 324.87 570.105 324.932 570.105 325.002Z" fill="#263238"/>
<path d="M478.963 340.011H109.599C106.693 340.015 103.815 339.445 101.129 338.336C98.4428 337.226 96.002 335.598 93.9459 333.544C91.8898 331.49 90.2586 329.051 89.1457 326.367C88.0328 323.682 87.46 320.805 87.46 317.899V64.4014C87.46 60.1263 89.1582 56.0263 92.1812 53.0034C95.2042 49.9804 99.3042 48.2821 103.579 48.2821H485.856C489.897 48.2821 493.773 49.8874 496.63 52.7449C499.488 55.6024 501.093 59.4779 501.093 63.519V317.899C501.093 320.804 500.521 323.681 499.408 326.365C498.296 329.049 496.666 331.487 494.61 333.541C492.555 335.594 490.115 337.223 487.431 338.333C484.746 339.443 481.868 340.014 478.963 340.011Z" fill="#455A64"/>
<path d="M500.63 344.45H91.5663C85.8985 344.45 80.463 342.198 76.4553 338.19C72.4476 334.183 70.1961 328.747 70.1961 323.079V319.751C70.189 319.639 70.2049 319.526 70.2429 319.42C70.281 319.315 70.3403 319.218 70.4173 319.136C70.4943 319.054 70.5873 318.989 70.6905 318.944C70.7937 318.9 70.905 318.877 71.0174 318.877H517.466C517.578 318.877 517.69 318.9 517.793 318.944C517.896 318.989 517.989 319.054 518.066 319.136C518.143 319.218 518.202 319.315 518.24 319.42C518.278 319.526 518.294 319.639 518.287 319.751V326.81C518.287 329.128 517.83 331.423 516.943 333.564C516.055 335.706 514.754 337.651 513.115 339.289C511.475 340.927 509.528 342.226 507.386 343.112C505.244 343.997 502.948 344.452 500.63 344.45Z" fill="#455A64"/>
<path d="M500.63 344.45L501.242 344.406C501.827 344.388 502.41 344.336 502.989 344.249C507.054 343.672 510.792 341.698 513.561 338.666C514.964 337.127 516.085 335.352 516.872 333.424C517.786 331.164 518.232 328.741 518.182 326.303V320.188C518.182 319.821 518.182 319.471 517.946 319.244C517.711 319.017 517.335 319.052 516.968 319.043L417.369 319.122L88.6831 319.183H71.0611C70.9681 319.181 70.8758 319.199 70.7902 319.235C70.7073 319.271 70.6336 319.325 70.5745 319.393C70.5155 319.461 70.4727 319.541 70.4495 319.628C70.4302 319.855 70.4302 320.083 70.4495 320.31V321.804C70.4495 322.8 70.4495 323.778 70.5369 324.757C70.6778 326.71 71.1016 328.631 71.795 330.462C72.1342 331.376 72.5281 332.269 72.9744 333.136C73.4492 333.986 73.9773 334.806 74.5558 335.591C76.8607 338.741 79.9894 341.196 83.5983 342.685C85.3936 343.397 87.2728 343.875 89.1899 344.109C91.1032 344.292 93.0428 344.257 94.9911 344.257H129.475H216.738L364.511 344.301L464.111 344.38L491.194 344.423L464.111 344.467L364.511 344.537L216.738 344.589H129.475H94.9649C93.0253 344.589 91.077 344.589 89.1112 344.441C87.1549 344.201 85.2375 343.711 83.4061 342.982C79.729 341.486 76.532 339.011 74.1626 335.826C73.5723 335.027 73.0353 334.189 72.5551 333.319C72.0899 332.438 71.6842 331.528 71.3407 330.593C70.6302 328.721 70.1975 326.755 70.0563 324.757C69.9952 323.752 69.9515 322.756 69.969 321.769V320.275C69.9444 320.011 69.9444 319.744 69.969 319.48C70.0095 319.325 70.0849 319.182 70.1893 319.061C70.2938 318.939 70.4247 318.844 70.5718 318.781C70.7161 318.723 70.8705 318.693 71.0261 318.694H88.622L417.308 318.764L516.907 318.833H517.457C517.66 318.847 517.851 318.93 517.999 319.069C518.147 319.209 518.245 319.393 518.278 319.594C518.291 319.777 518.291 319.961 518.278 320.144V322.258C518.278 323.639 518.278 324.984 518.278 326.295C518.328 328.747 517.882 331.183 516.968 333.459C516.167 335.392 515.028 337.167 513.604 338.701C510.817 341.746 507.047 343.713 502.954 344.257C502.375 344.341 501.792 344.387 501.207 344.397L500.63 344.45Z" fill="#263238"/>
<path d="M478.352 66.0876H109.049C106.506 66.0876 104.444 68.149 104.444 70.6919V300.451C104.444 302.994 106.506 305.056 109.049 305.056H478.352C480.895 305.056 482.956 302.994 482.956 300.451V70.6919C482.956 68.149 480.895 66.0876 478.352 66.0876Z" fill="#263238"/>
<path d="M478.352 305.056C478.618 305.04 478.883 305.011 479.147 304.968C479.925 304.833 480.654 304.496 481.261 303.99C481.762 303.577 482.168 303.061 482.453 302.478C482.738 301.895 482.894 301.257 482.912 300.609V295.218C482.912 287.04 482.912 274.984 482.912 259.467C482.912 228.417 482.868 183.457 482.834 127.979C482.834 114.105 482.834 99.5815 482.834 84.4086C482.834 80.6285 482.834 76.8047 482.834 72.9372V71.4869C482.85 71.0118 482.836 70.5361 482.79 70.0628C482.628 69.1269 482.172 68.2668 481.488 67.6078C480.825 66.9326 479.96 66.4911 479.024 66.3497C478.547 66.2849 478.064 66.2644 477.583 66.2886H452.071H347.859H109.075C108.444 66.2851 107.819 66.4184 107.245 66.6793C106.67 66.9403 106.159 67.3226 105.746 67.8C105.337 68.273 105.039 68.8311 104.873 69.4338C104.713 70.0554 104.652 70.6979 104.689 71.3384V187.101C104.689 207.073 104.689 226.672 104.689 245.899V288.429C104.689 290.753 104.689 293.069 104.689 295.375V298.826C104.577 299.945 104.693 301.074 105.03 302.146C105.455 303.166 106.251 303.987 107.258 304.444C107.757 304.67 108.292 304.803 108.839 304.837C109.389 304.837 109.975 304.837 110.534 304.837H157.311H207.896H298.698L430.177 304.907L465.928 304.951H475.224C477.312 304.951 478.387 304.951 478.387 304.951H475.224H465.928L430.177 304.994L298.663 305.248H207.861H110.499C109.931 305.248 109.372 305.248 108.752 305.248C107.851 305.197 106.983 304.894 106.246 304.373C105.509 303.853 104.933 303.135 104.584 302.303C104.35 301.75 104.225 301.157 104.217 300.556V274.416C104.217 265.015 104.217 255.509 104.217 245.899V187.101C104.217 167.128 104.217 146.818 104.217 126.17V71.3646C104.178 70.6831 104.243 69.9996 104.409 69.3377C104.6 68.6671 104.941 68.0487 105.405 67.5292C105.86 67.0019 106.423 66.5796 107.057 66.2914C107.69 66.0033 108.379 65.8563 109.075 65.8605H347.859H452.071H477.6C478.099 65.8376 478.599 65.858 479.094 65.9216C480.104 66.0823 481.036 66.5614 481.754 67.2891C482.473 68.0168 482.939 68.955 483.087 69.9667C483.134 70.4574 483.152 70.9505 483.139 71.4433V72.8936C483.139 76.7552 483.139 80.579 483.139 84.3649C483.139 99.5087 483.139 114.032 483.139 127.935C483.139 183.449 483.087 228.408 483.069 259.423C483.069 274.94 483.069 286.997 483.069 295.174C483.069 297.219 483.069 299.018 483.069 300.574C483.033 301.633 482.631 302.647 481.932 303.443C481.233 304.239 480.28 304.769 479.234 304.942C479.038 304.978 478.839 304.998 478.64 305.003L478.352 305.056Z" fill="#263238"/>
<path d="M253.511 318.432L259.068 327.867H337.305L342.469 318.432H253.511Z" fill="#263238"/>
<path d="M297.335 57.9974C297.335 58.6108 297.153 59.2105 296.812 59.7205C296.471 60.2306 295.987 60.6281 295.42 60.8628C294.853 61.0976 294.23 61.159 293.628 61.0393C293.026 60.9197 292.474 60.6243 292.04 60.1905C291.606 59.7568 291.311 59.2041 291.191 58.6025C291.072 58.0008 291.133 57.3772 291.368 56.8105C291.602 56.2437 292 55.7593 292.51 55.4185C293.02 55.0777 293.62 54.8958 294.233 54.8958C295.056 54.8958 295.845 55.2226 296.426 55.8043C297.008 56.3859 297.335 57.1748 297.335 57.9974Z" fill="#263238"/>
<path d="M469.021 73.7061H119.542V293.986H469.021V73.7061Z" fill="white"/>
<path d="M469.021 93.8793H119.542V115.966H469.021V93.8793Z" fill="#E0E0E0"/>
<path d="M133.852 104.005C133.856 104.673 133.661 105.327 133.292 105.884C132.923 106.441 132.397 106.876 131.78 107.134C131.164 107.392 130.485 107.461 129.829 107.332C129.174 107.203 128.571 106.882 128.098 106.41C127.625 105.939 127.303 105.337 127.172 104.682C127.042 104.026 127.109 103.347 127.365 102.73C127.621 102.113 128.055 101.586 128.611 101.216C129.167 100.845 129.82 100.649 130.489 100.65C131.378 100.653 132.231 101.006 132.861 101.635C133.491 102.263 133.848 103.115 133.852 104.005Z" fill="white"/>
<path d="M143.69 104.005C143.693 104.673 143.498 105.327 143.13 105.884C142.761 106.44 142.236 106.875 141.62 107.133C141.004 107.391 140.325 107.461 139.67 107.332C139.015 107.204 138.412 106.884 137.939 106.413C137.466 105.943 137.143 105.342 137.011 104.687C136.879 104.032 136.945 103.353 137.2 102.736C137.455 102.119 137.887 101.591 138.442 101.22C138.997 100.849 139.65 100.65 140.317 100.65C141.209 100.65 142.064 101.003 142.696 101.632C143.328 102.261 143.685 103.114 143.69 104.005Z" fill="white"/>
<path d="M153.519 104.005C153.522 104.673 153.327 105.327 152.958 105.884C152.589 106.441 152.064 106.876 151.447 107.134C150.831 107.392 150.152 107.461 149.496 107.332C148.84 107.203 148.238 106.882 147.765 106.41C147.292 105.939 146.97 105.337 146.839 104.682C146.709 104.026 146.776 103.347 147.032 102.73C147.288 102.113 147.721 101.586 148.277 101.216C148.833 100.845 149.487 100.649 150.155 100.65C151.046 100.65 151.9 101.003 152.531 101.632C153.161 102.261 153.516 103.115 153.519 104.005Z" fill="white"/>
<path d="M201.728 133.701H167.393C165.54 133.701 164.038 135.203 164.038 137.056V171.392C164.038 173.245 165.54 174.747 167.393 174.747H201.728C203.581 174.747 205.083 173.245 205.083 171.392V137.056C205.083 135.203 203.581 133.701 201.728 133.701Z" fill="#EBEBEB"/>
<path d="M210.937 183.842H158.193C156.137 183.842 154.471 185.508 154.471 187.564V189.372C154.471 191.428 156.137 193.094 158.193 193.094H210.937C212.992 193.094 214.659 191.428 214.659 189.372V187.564C214.659 185.508 212.992 183.842 210.937 183.842Z" fill="#EBEBEB"/>
<path d="M282.77 125.961H248.435C246.582 125.961 245.08 127.463 245.08 129.316V163.651C245.08 165.504 246.582 167.006 248.435 167.006H282.77C284.623 167.006 286.125 165.504 286.125 163.651V129.316C286.125 127.463 284.623 125.961 282.77 125.961Z" fill="#EBEBEB"/>
<path d="M291.979 176.101H239.235C237.18 176.101 235.513 177.767 235.513 179.823V181.631C235.513 183.687 237.18 185.353 239.235 185.353H291.979C294.035 185.353 295.701 183.687 295.701 181.631V179.823C295.701 177.767 294.035 176.101 291.979 176.101Z" fill="#EBEBEB"/>
<path d="M201.553 215.635H167.218C165.365 215.635 163.863 217.137 163.863 218.99V253.325C163.863 255.178 165.365 256.68 167.218 256.68H201.553C203.406 256.68 204.908 255.178 204.908 253.325V218.99C204.908 217.137 203.406 215.635 201.553 215.635Z" fill="#EBEBEB"/>
<path d="M210.762 265.775H158.018C155.963 265.775 154.296 267.441 154.296 269.497V271.305C154.296 273.361 155.963 275.027 158.018 275.027H210.762C212.818 275.027 214.484 273.361 214.484 271.305V269.497C214.484 267.441 212.818 265.775 210.762 265.775Z" fill="#EBEBEB"/>
<path d="M284.273 207.178H249.938C248.085 207.178 246.583 208.68 246.583 210.533V244.868C246.583 246.721 248.085 248.223 249.938 248.223H284.273C286.126 248.223 287.628 246.721 287.628 244.868V210.533C287.628 208.68 286.126 207.178 284.273 207.178Z" fill="#EBEBEB"/>
<path d="M293.482 257.318H240.738C238.682 257.318 237.016 258.984 237.016 261.04V262.848C237.016 264.904 238.682 266.57 240.738 266.57H293.482C295.537 266.57 297.203 264.904 297.203 262.848V261.04C297.203 258.984 295.537 257.318 293.482 257.318Z" fill="#EBEBEB"/>
<path d="M412.607 123.078H371.929C370.076 123.078 368.574 124.58 368.574 126.432V167.111C368.574 168.964 370.076 170.466 371.929 170.466H412.607C414.46 170.466 415.962 168.964 415.962 167.111V126.432C415.962 124.58 414.46 123.078 412.607 123.078Z" fill="#FF8106"/>
<path d="M400.166 150.668H384.51C384.395 150.666 384.285 150.619 384.204 150.538C384.122 150.456 384.075 150.347 384.073 150.231C384.073 150.116 384.119 150.004 384.201 149.922C384.283 149.841 384.394 149.795 384.51 149.795H399.799L401.547 140.105H383.034C382.918 140.105 382.807 140.059 382.725 139.978C382.643 139.896 382.597 139.784 382.597 139.669C382.599 139.553 382.646 139.444 382.727 139.362C382.809 139.281 382.918 139.234 383.034 139.232H402.036C402.099 139.233 402.162 139.247 402.219 139.275C402.276 139.302 402.327 139.341 402.368 139.389C402.411 139.437 402.442 139.494 402.459 139.557C402.475 139.619 402.477 139.684 402.464 139.747L400.594 150.301C400.578 150.403 400.526 150.496 400.447 150.563C400.369 150.63 400.27 150.667 400.166 150.668Z" fill="white"/>
<path d="M399.642 154.355H384.737C384.631 154.354 384.53 154.314 384.451 154.243C384.372 154.173 384.322 154.076 384.309 153.971L382.168 137.371H377.8C377.685 137.369 377.575 137.322 377.494 137.24C377.412 137.159 377.366 137.049 377.363 136.934C377.363 136.818 377.409 136.707 377.491 136.625C377.573 136.543 377.684 136.497 377.8 136.497H382.588C382.694 136.494 382.798 136.531 382.879 136.601C382.96 136.67 383.012 136.767 383.025 136.873L385.156 153.473H399.686C399.743 153.474 399.8 153.486 399.852 153.509C399.905 153.532 399.952 153.565 399.992 153.607C400.032 153.648 400.063 153.697 400.084 153.75C400.105 153.804 400.115 153.861 400.114 153.918C400.115 153.979 400.104 154.04 400.08 154.096C400.057 154.152 400.021 154.202 399.977 154.243C399.932 154.285 399.879 154.316 399.821 154.335C399.764 154.355 399.703 154.361 399.642 154.355Z" fill="white"/>
<path d="M387.175 159.667C386.72 159.669 386.275 159.536 385.896 159.284C385.517 159.033 385.221 158.674 385.046 158.255C384.87 157.835 384.824 157.373 384.911 156.926C384.999 156.48 385.217 156.07 385.538 155.748C385.859 155.425 386.268 155.206 386.714 155.116C387.16 155.027 387.623 155.072 388.043 155.246C388.464 155.419 388.823 155.714 389.076 156.092C389.329 156.47 389.464 156.914 389.464 157.369C389.464 157.977 389.223 158.56 388.794 158.991C388.365 159.422 387.783 159.665 387.175 159.667ZM387.175 155.954C386.892 155.952 386.616 156.035 386.38 156.19C386.145 156.346 385.961 156.568 385.852 156.829C385.743 157.09 385.714 157.377 385.769 157.654C385.823 157.931 385.959 158.185 386.159 158.385C386.359 158.585 386.613 158.721 386.89 158.775C387.167 158.83 387.454 158.801 387.715 158.692C387.976 158.583 388.198 158.399 388.354 158.164C388.509 157.928 388.592 157.652 388.59 157.369C388.588 156.995 388.438 156.636 388.173 156.371C387.908 156.106 387.549 155.956 387.175 155.954Z" fill="white"/>
<path d="M397.458 159.667C397.003 159.667 396.559 159.532 396.181 159.28C395.803 159.027 395.509 158.669 395.335 158.249C395.161 157.829 395.116 157.367 395.204 156.921C395.293 156.475 395.512 156.066 395.833 155.745C396.154 155.423 396.564 155.204 397.01 155.116C397.455 155.027 397.917 155.073 398.337 155.246C398.757 155.42 399.116 155.715 399.368 156.093C399.621 156.471 399.756 156.915 399.756 157.369C399.756 157.979 399.514 158.563 399.083 158.994C398.652 159.425 398.067 159.667 397.458 159.667ZM397.458 155.954C397.176 155.954 396.9 156.038 396.666 156.195C396.431 156.351 396.249 156.574 396.141 156.835C396.034 157.096 396.006 157.383 396.062 157.659C396.118 157.936 396.254 158.189 396.454 158.388C396.654 158.587 396.909 158.722 397.185 158.776C397.462 158.83 397.749 158.8 398.009 158.691C398.269 158.582 398.491 158.398 398.646 158.163C398.802 157.928 398.884 157.651 398.882 157.369C398.88 156.993 398.729 156.633 398.462 156.368C398.195 156.103 397.834 155.954 397.458 155.954Z" fill="white"/>
<path d="M389.341 150.668C389.23 150.666 389.124 150.623 389.043 150.547C388.963 150.471 388.913 150.368 388.904 150.258L388.275 140.036C388.268 139.921 388.306 139.808 388.381 139.722C388.457 139.635 388.563 139.581 388.677 139.573C388.735 139.568 388.793 139.575 388.848 139.593C388.903 139.611 388.953 139.641 388.997 139.679C389.04 139.717 389.075 139.764 389.1 139.816C389.124 139.869 389.138 139.925 389.14 139.983L389.778 150.205C389.785 150.32 389.747 150.432 389.672 150.519C389.597 150.606 389.491 150.659 389.376 150.668H389.341Z" fill="white"/>
<path d="M395.064 150.668C395.007 150.665 394.95 150.65 394.899 150.625C394.847 150.6 394.801 150.565 394.762 150.522C394.724 150.479 394.695 150.429 394.676 150.374C394.658 150.32 394.65 150.263 394.653 150.205L395.221 139.983C395.225 139.926 395.239 139.87 395.264 139.818C395.289 139.766 395.324 139.72 395.367 139.682C395.41 139.644 395.461 139.614 395.515 139.596C395.569 139.577 395.627 139.569 395.684 139.573C395.799 139.581 395.906 139.635 395.983 139.721C396.06 139.808 396.1 139.92 396.095 140.036L395.518 150.258C395.511 150.372 395.46 150.479 395.375 150.556C395.29 150.633 395.178 150.673 395.064 150.668Z" fill="white"/>
<path d="M383.636 145.557C383.52 145.557 383.409 145.511 383.327 145.429C383.245 145.347 383.199 145.236 383.199 145.12C383.199 145.005 383.245 144.893 383.327 144.811C383.409 144.73 383.52 144.684 383.636 144.684L401.11 144.509C401.225 144.513 401.335 144.56 401.417 144.641C401.5 144.722 401.549 144.83 401.555 144.946C401.555 145.062 401.509 145.173 401.427 145.255C401.346 145.336 401.234 145.382 401.119 145.382L383.645 145.557H383.636Z" fill="white"/>
<path d="M392.993 205.037H356.657C354.838 205.037 353.363 206.512 353.363 208.331V211.546C353.363 213.365 354.838 214.84 356.657 214.84H392.993C394.812 214.84 396.287 213.365 396.287 211.546V208.331C396.287 206.512 394.812 205.037 392.993 205.037Z" fill="#E0E0E0"/>
<path d="M392.993 186.41H356.657C354.838 186.41 353.363 187.885 353.363 189.704V192.919C353.363 194.738 354.838 196.213 356.657 196.213H392.993C394.812 196.213 396.287 194.738 396.287 192.919V189.704C396.287 187.885 394.812 186.41 392.993 186.41Z" fill="#E0E0E0"/>
<path d="M417.57 233.423H359.558C353.594 233.423 348.759 238.258 348.759 244.222V249.472C348.759 255.436 353.594 260.271 359.558 260.271H417.57C423.534 260.271 428.369 255.436 428.369 249.472V244.222C428.369 238.258 423.534 233.423 417.57 233.423Z" fill="#FF8106"/>
<path d="M386.991 245.576C386.991 246.921 385.978 247.76 384.37 247.76H383.339V249.332H381.662V243.409H384.37C385.978 243.383 386.991 244.221 386.991 245.576ZM385.305 245.576C385.305 245.025 384.956 244.702 384.257 244.702H383.33V246.449H384.257C384.956 246.441 385.305 246.117 385.305 245.576Z" fill="white"/>
<path d="M391.499 248.162H388.992L388.529 249.306H386.781L389.403 243.383H391.054L393.675 249.306H391.927L391.499 248.162ZM391.01 246.921L390.25 245.025L389.49 246.921H391.01Z" fill="white"/>
<path d="M396.969 247.183V249.332H395.291V247.183L393.037 243.409H394.784L396.191 245.759L397.598 243.409H399.223L396.969 247.183Z" fill="white"/>
<path d="M311.846 292.833C311.715 292.833 311.619 248.441 311.619 193.706C311.619 138.97 311.715 94.5695 311.846 94.5695C311.977 94.5695 312.073 138.952 312.073 193.706C312.073 248.459 311.995 292.833 311.846 292.833Z" fill="#EBEBEB"/>
<path d="M211.857 137.081C212.665 132.04 209.234 127.299 204.193 126.49C199.153 125.682 194.411 129.113 193.603 134.154C192.795 139.194 196.226 143.936 201.266 144.744C206.307 145.552 211.048 142.121 211.857 137.081Z" fill="#FF8106"/>
<path d="M201.912 139.328C201.716 139.329 201.525 139.265 201.37 139.144L198.12 136.628C197.937 136.486 197.818 136.276 197.789 136.046C197.761 135.816 197.824 135.584 197.967 135.401C198.109 135.218 198.319 135.099 198.549 135.07C198.779 135.041 199.011 135.105 199.194 135.248L201.816 137.292L206.184 132.234C206.335 132.058 206.549 131.948 206.78 131.93C206.894 131.922 207.009 131.935 207.118 131.971C207.228 132.006 207.329 132.063 207.416 132.138C207.503 132.212 207.575 132.303 207.627 132.405C207.679 132.508 207.71 132.619 207.719 132.734C207.728 132.848 207.714 132.963 207.679 133.072C207.643 133.181 207.586 133.282 207.512 133.369L202.628 139.057C202.537 139.154 202.425 139.228 202.301 139.275C202.177 139.322 202.044 139.34 201.912 139.328Z" fill="white"/>
<path d="M206.172 226.272C210.906 224.363 213.197 218.978 211.288 214.243C209.379 209.508 203.993 207.218 199.258 209.127C194.524 211.036 192.233 216.422 194.142 221.156C196.051 225.891 201.437 228.182 206.172 226.272Z" fill="#455A64"/>
<path d="M201.912 221.375C201.716 221.376 201.525 221.312 201.37 221.191L198.111 218.64C197.928 218.498 197.809 218.288 197.781 218.058C197.752 217.828 197.816 217.596 197.958 217.413C198.101 217.23 198.31 217.111 198.54 217.082C198.771 217.053 199.003 217.117 199.186 217.26L201.807 219.304L206.175 214.246C206.25 214.158 206.341 214.087 206.443 214.035C206.545 213.983 206.657 213.951 206.771 213.942C206.886 213.934 207.001 213.947 207.11 213.983C207.219 214.018 207.32 214.075 207.407 214.15C207.494 214.224 207.566 214.315 207.618 214.417C207.67 214.52 207.701 214.631 207.71 214.746C207.719 214.86 207.706 214.975 207.67 215.084C207.634 215.193 207.578 215.294 207.503 215.381L202.619 221.069C202.533 221.171 202.424 221.251 202.301 221.304C202.178 221.357 202.045 221.381 201.912 221.375Z" fill="white"/>
<path d="M422.864 186.41H419.361C417.296 186.41 415.622 188.084 415.622 190.15V191.967C415.622 194.032 417.296 195.706 419.361 195.706H422.864C424.93 195.706 426.604 194.032 426.604 191.967V190.15C426.604 188.084 424.93 186.41 422.864 186.41Z" fill="#E0E0E0"/>
<path d="M423.362 205.954H419.859C417.794 205.954 416.12 207.629 416.12 209.694V211.511C416.12 213.576 417.794 215.25 419.859 215.25H423.362C425.428 215.25 427.102 213.576 427.102 211.511V209.694C427.102 207.629 425.428 205.954 423.362 205.954Z" fill="#E0E0E0"/>
<path d="M103.763 65.7644H135.311V83.7883C135.3 87.1475 133.957 90.3652 131.578 92.7365C129.198 95.1077 125.976 96.4392 122.617 96.4391H116.501C113.134 96.4391 109.905 95.1017 107.525 92.721C105.144 90.3403 103.807 87.1114 103.807 83.7446V65.7644H103.763Z" fill="#FF8106"/>
<path d="M135.311 65.7644H166.86V83.7883C166.848 87.1475 165.505 90.3652 163.126 92.7365C160.747 95.1077 157.524 96.4392 154.165 96.4391H148.049C144.683 96.4391 141.454 95.1017 139.073 92.721C136.692 90.3403 135.355 87.1114 135.355 83.7446V65.7644H135.311Z" fill="#FF8106"/>
<path d="M166.86 65.7644H198.417V83.7883C198.405 87.149 197.062 90.3681 194.68 92.7396C192.299 95.111 189.074 96.4415 185.714 96.4391H179.598C176.231 96.4391 173.002 95.1017 170.622 92.721C168.241 90.3403 166.903 87.1114 166.903 83.7446V65.7644H166.86Z" fill="#FF8106"/>
<path d="M198.417 65.7644H230.123V83.7883C230.111 87.149 228.767 90.3681 226.386 92.7396C224.005 95.111 220.78 96.4415 217.419 96.4391H211.111C207.751 96.4392 204.527 95.1065 202.147 92.7334C199.768 90.3602 198.426 87.1403 198.417 83.7796V65.7644Z" fill="#FF8106"/>
<path d="M230.114 65.7644H261.662V83.7883C261.651 87.1475 260.308 90.3652 257.929 92.7365C255.549 95.1077 252.327 96.4392 248.968 96.4391H242.852C239.485 96.4391 236.256 95.1017 233.876 92.721C231.495 90.3403 230.157 87.1114 230.157 83.7446V65.7644H230.114Z" fill="#FF8106"/>
<path d="M261.662 65.7644H293.211V83.7883C293.199 87.143 291.86 90.3567 289.487 92.7272C287.113 95.0977 283.897 96.4322 280.542 96.4391H274.427C271.06 96.4391 267.831 95.1017 265.45 92.721C263.07 90.3403 261.732 87.1114 261.732 83.7446V65.7644H261.662Z" fill="#FF8106"/>
<path d="M293.211 65.7644H324.759V83.7883C324.748 87.1475 323.405 90.3652 321.026 92.7365C318.646 95.1077 315.424 96.4392 312.065 96.4391H305.949C302.582 96.4391 299.353 95.1017 296.973 92.721C294.592 90.3403 293.254 87.1114 293.254 83.7446V65.7644H293.211Z" fill="#FF8106"/>
<path d="M324.759 65.7644H356.832V83.7883C356.82 87.1475 355.478 90.3652 353.098 92.7365C350.719 95.1077 347.497 96.4392 344.137 96.4391H337.454C334.087 96.4391 330.858 95.1017 328.477 92.721C326.097 90.3403 324.759 87.1114 324.759 83.7446V65.7644Z" fill="#FF8106"/>
<path d="M356.465 65.7644H388.005V83.7883C387.993 87.1475 386.65 90.3652 384.271 92.7365C381.892 95.1077 378.669 96.4392 375.31 96.4391H369.194C365.828 96.4391 362.599 95.1017 360.218 92.721C357.837 90.3403 356.5 87.1114 356.5 83.7446V65.7644H356.465Z" fill="#FF8106"/>
<path d="M388.005 65.7644H419.553V83.7883C419.542 87.146 418.2 90.3624 415.823 92.7334C413.445 95.1044 410.225 96.4369 406.867 96.4391H400.752C399.083 96.446 397.43 96.1239 395.886 95.4913C394.342 94.8586 392.938 93.9277 391.754 92.7519C390.57 91.5762 389.629 90.1785 388.986 88.639C388.343 87.0994 388.009 85.4481 388.005 83.7796V65.7644Z" fill="#FF8106"/>
<path d="M419.562 65.7644H451.11V83.7883C451.099 87.1475 449.756 90.3652 447.377 92.7365C444.997 95.1077 441.775 96.4392 438.416 96.4391H432.3C428.933 96.4391 425.704 95.1017 423.324 92.721C420.943 90.3403 419.605 87.1114 419.605 83.7446V65.7644H419.562Z" fill="#FF8106"/>
<path d="M451.11 65.7644H482.659V83.7883C482.647 87.1475 481.305 90.3652 478.925 92.7365C476.546 95.1077 473.323 96.4392 469.964 96.4391H463.848C460.482 96.4391 457.253 95.1017 454.872 92.721C452.491 90.3403 451.154 87.1114 451.154 83.7446V65.7644H451.11Z" fill="#FF8106"/>
<g opacity="0.3">
<path d="M135.311 65.7644H166.86V83.7883C166.848 87.1475 165.505 90.3652 163.126 92.7365C160.747 95.1077 157.524 96.4392 154.165 96.4391H148.049C144.683 96.4391 141.454 95.1017 139.073 92.721C136.692 90.3403 135.355 87.1114 135.355 83.7446V65.7644H135.311Z" fill="white"/>
</g>
<g opacity="0.3">
<path d="M198.417 65.7644H230.123V83.7883C230.111 87.149 228.767 90.3681 226.386 92.7396C224.005 95.111 220.78 96.4415 217.419 96.4391H211.111C207.751 96.4392 204.527 95.1065 202.147 92.7334C199.768 90.3602 198.426 87.1403 198.417 83.7796V65.7644Z" fill="white"/>
</g>
<g opacity="0.3">
<path d="M261.662 65.7644H293.211V83.7883C293.199 87.143 291.86 90.3567 289.487 92.7272C287.113 95.0977 283.897 96.4322 280.542 96.4391H274.427C271.06 96.4391 267.831 95.1017 265.45 92.721C263.07 90.3403 261.732 87.1114 261.732 83.7446V65.7644H261.662Z" fill="white"/>
</g>
<g opacity="0.3">
<path d="M324.759 65.7644H356.832V83.7883C356.82 87.1475 355.478 90.3652 353.098 92.7365C350.719 95.1077 347.497 96.4392 344.137 96.4391H337.454C334.087 96.4391 330.858 95.1017 328.477 92.721C326.097 90.3403 324.759 87.1114 324.759 83.7446V65.7644Z" fill="white"/>
</g>
<g opacity="0.3">
<path d="M388.005 65.7644H419.553V83.7883C419.542 87.146 418.2 90.3624 415.823 92.7334C413.445 95.1044 410.225 96.4369 406.867 96.4391H400.752C399.083 96.446 397.43 96.1239 395.886 95.4913C394.342 94.8586 392.938 93.9277 391.754 92.7519C390.57 91.5762 389.629 90.1785 388.986 88.639C388.343 87.0994 388.009 85.4481 388.005 83.7796V65.7644Z" fill="white"/>
</g>
<g opacity="0.3">
<path d="M451.11 65.7644H482.659V83.7883C482.647 87.1475 481.305 90.3652 478.925 92.7365C476.546 95.1077 473.323 96.4392 469.964 96.4391H463.848C460.482 96.4391 457.253 95.1017 454.872 92.721C452.491 90.3403 451.154 87.1114 451.154 83.7446V65.7644H451.11Z" fill="white"/>
</g>
<path d="M135.311 86.1735C135.189 86.1735 135.084 81.6041 135.084 75.9689C135.084 70.3337 135.189 65.7644 135.311 65.7644C135.434 65.7644 135.539 70.3337 135.539 75.9689C135.539 81.6041 135.442 86.1735 135.311 86.1735Z" fill="#263238"/>
<path d="M166.633 86.1735C166.51 86.1735 166.405 81.6041 166.405 75.9689C166.405 70.3337 166.51 65.7644 166.633 65.7644C166.755 65.7644 166.86 70.3337 166.86 75.9689C166.86 81.6041 166.764 86.1735 166.633 86.1735Z" fill="#263238"/>
<path d="M198.417 86.1735C198.295 86.1735 198.19 81.6041 198.19 75.9689C198.19 70.3337 198.295 65.7644 198.417 65.7644C198.539 65.7644 198.644 70.3337 198.644 75.9689C198.644 81.6041 198.539 86.1735 198.417 86.1735Z" fill="#263238"/>
<path d="M230.114 85.955C229.983 85.955 229.887 81.377 229.887 75.7418C229.887 70.1065 229.983 65.5372 230.114 65.5372C230.245 65.5372 230.341 70.1065 230.341 75.7418C230.341 81.377 230.236 85.955 230.114 85.955Z" fill="#263238"/>
<path d="M261.662 85.7104C261.54 85.7104 261.435 81.2459 261.435 75.733C261.435 70.2201 261.54 65.7644 261.662 65.7644C261.785 65.7644 261.889 70.2289 261.889 75.733C261.889 81.2372 261.785 85.7104 261.662 85.7104Z" fill="#263238"/>
<path d="M293.499 85.3522C293.377 85.3522 293.272 80.8877 293.272 75.3835C293.272 69.8794 293.377 65.4062 293.499 65.4062C293.621 65.4062 293.735 69.8707 293.735 75.3835C293.735 80.8964 293.648 85.3522 293.499 85.3522Z" fill="#263238"/>
<path d="M324.759 84.994C324.637 84.994 324.532 80.6868 324.532 75.3835C324.532 70.0803 324.637 65.7731 324.759 65.7731C324.882 65.7731 324.987 70.0716 324.987 75.3835C324.987 80.6955 324.882 84.994 324.759 84.994Z" fill="#263238"/>
<path d="M356.648 84.994C356.526 84.994 356.421 80.6868 356.421 75.3835C356.421 70.0803 356.526 65.7731 356.648 65.7731C356.771 65.7731 356.876 70.0716 356.876 75.3835C356.876 80.6955 356.771 84.994 356.648 84.994Z" fill="#263238"/>
<path d="M388.005 84.994C387.874 84.994 387.777 80.6868 387.777 75.3835C387.777 70.0803 387.874 65.7731 388.005 65.7731C388.136 65.7731 388.232 70.0716 388.232 75.3835C388.232 80.6955 388.136 84.994 388.005 84.994Z" fill="#263238"/>
<path d="M419.693 84.994C419.571 84.994 419.466 80.6868 419.466 75.3835C419.466 70.0803 419.571 65.7731 419.693 65.7731C419.815 65.7731 419.92 70.0716 419.92 75.3835C419.92 80.6955 419.815 84.994 419.693 84.994Z" fill="#263238"/>
<path d="M451.381 84.994C451.25 84.994 451.154 80.6868 451.154 75.3835C451.154 70.0803 451.25 65.7731 451.381 65.7731C451.512 65.7731 451.608 70.0716 451.608 75.3835C451.608 80.6955 451.503 84.994 451.381 84.994Z" fill="#263238"/>
<path d="M477.574 258.34C477.574 258.34 477.495 257.798 477.312 256.837C477.056 255.478 476.651 254.151 476.106 252.88C475.318 250.994 474.156 249.288 472.69 247.865C470.908 246.094 468.501 245.096 465.989 245.088C463.477 245.08 461.063 246.062 459.27 247.821C457.796 249.238 456.628 250.942 455.837 252.827C455.287 254.095 454.876 255.419 454.614 256.776C454.43 257.737 454.386 258.279 454.343 258.279C454.329 258.145 454.329 258.011 454.343 257.877C454.343 257.615 454.395 257.239 454.465 256.75C454.671 255.367 455.047 254.014 455.583 252.722C456.361 250.784 457.536 249.031 459.034 247.576C459.948 246.667 461.033 245.947 462.225 245.457C463.418 244.967 464.695 244.717 465.985 244.721C467.274 244.725 468.55 244.983 469.739 245.481C470.929 245.978 472.009 246.705 472.917 247.62C474.404 249.085 475.57 250.844 476.342 252.784C476.869 254.077 477.239 255.429 477.443 256.811C477.521 257.3 477.548 257.685 477.565 257.947C477.585 258.077 477.588 258.209 477.574 258.34Z" fill="#455A64"/>
<path d="M481.584 258.34C481.584 258.34 481.505 257.798 481.322 256.837C481.066 255.478 480.662 254.151 480.116 252.88C479.328 250.994 478.166 249.288 476.7 247.865C474.921 246.092 472.515 245.094 470.004 245.085C467.493 245.077 465.08 246.06 463.289 247.821C461.81 249.236 460.639 250.94 459.847 252.827C459.297 254.095 458.887 255.419 458.624 256.776C458.44 257.737 458.397 258.279 458.362 258.279C458.339 258.146 458.339 258.01 458.362 257.877C458.362 257.615 458.414 257.239 458.484 256.75C458.694 255.368 459.07 254.015 459.602 252.722C460.381 250.788 461.557 249.037 463.053 247.585C463.968 246.676 465.052 245.956 466.244 245.466C467.437 244.976 468.715 244.726 470.004 244.73C471.293 244.734 472.569 244.992 473.759 245.489C474.948 245.987 476.028 246.714 476.936 247.629C478.423 249.094 479.589 250.852 480.361 252.792C480.888 254.086 481.258 255.438 481.462 256.82C481.54 257.309 481.567 257.694 481.584 257.956C481.6 258.083 481.6 258.212 481.584 258.34Z" fill="#455A64"/>
<path d="M442.871 256.907L488.163 256.558L489.15 318.309H438.328L442.871 256.907Z" fill="#EBEBEB"/>
<path d="M488.163 256.558H493.85L498.752 318.309H489.15L488.163 256.558Z" fill="#E0E0E0"/>
<path d="M478.561 280.872H448.909V285.843H478.561V280.872Z" fill="white"/>
<path d="M464.888 270.703C464.639 268.785 464.188 266.899 463.543 265.076C462.851 263.171 461.801 261.415 460.45 259.904C459.715 259.015 458.794 258.299 457.752 257.806C456.71 257.314 455.572 257.056 454.419 257.052C453.266 257.048 452.126 257.297 451.08 257.782C450.034 258.268 449.108 258.977 448.367 259.86C447.005 261.36 445.948 263.111 445.257 265.015C444.606 266.834 444.149 268.717 443.894 270.633C443.871 270.497 443.871 270.358 443.894 270.222C443.908 269.83 443.943 269.44 443.999 269.051C444.177 267.63 444.511 266.233 444.995 264.884C445.673 262.919 446.733 261.108 448.114 259.555C448.88 258.625 449.843 257.877 450.933 257.365C452.024 256.853 453.214 256.589 454.419 256.594C455.623 256.598 456.812 256.87 457.899 257.389C458.986 257.909 459.944 258.663 460.703 259.598C462.077 261.16 463.131 262.977 463.805 264.945C464.285 266.297 464.616 267.697 464.792 269.121C464.846 269.512 464.878 269.906 464.888 270.301C464.91 270.434 464.91 270.57 464.888 270.703Z" fill="#263238"/>
<path d="M468.523 270.703C468.274 268.785 467.823 266.899 467.177 265.076C466.489 263.169 465.439 261.413 464.085 259.904C463.35 259.015 462.429 258.299 461.386 257.806C460.344 257.314 459.206 257.056 458.053 257.052C456.9 257.048 455.761 257.297 454.715 257.782C453.669 258.268 452.743 258.977 452.002 259.86C450.639 261.36 449.583 263.111 448.891 265.015C448.241 266.834 447.784 268.717 447.528 270.633C447.505 270.497 447.505 270.358 447.528 270.222C447.543 269.83 447.578 269.44 447.633 269.051C447.812 267.63 448.146 266.233 448.629 264.884C449.308 262.919 450.368 261.108 451.748 259.555C452.514 258.625 453.477 257.877 454.568 257.365C455.658 256.853 456.849 256.589 458.053 256.594C459.258 256.598 460.447 256.87 461.534 257.389C462.62 257.909 463.578 258.663 464.338 259.598C465.715 261.158 466.769 262.975 467.439 264.945C467.92 266.297 468.251 267.697 468.427 269.121C468.488 269.628 468.523 269.995 468.531 270.292C468.55 270.428 468.547 270.567 468.523 270.703Z" fill="#263238"/>
<path d="M431.706 268.265L472.664 267.977L473.555 318.79H427.6L431.706 268.265Z" fill="#FF8106"/>
<path d="M472.664 267.977H477.801L482.231 318.79H473.555L472.664 267.977Z" fill="#FF8106"/>
<g opacity="0.3">
<path d="M472.664 267.977H477.801L482.231 318.79H473.555L472.664 267.977Z" fill="black"/>
</g>
<path d="M465.683 285.232H438.87V290.369H465.683V285.232Z" fill="white"/>
<path d="M151.885 255.204C151.885 255.204 140.702 255.85 139.802 257.825C139.802 257.825 139.654 266.055 147.569 274.346L145.996 277.692V283.179C149.675 276.049 153.781 265.129 153.781 265.129C153.781 265.129 153.964 257.458 151.885 255.204Z" fill="#455A64"/>
<g opacity="0.3">
<path d="M151.483 255.929C151.483 255.929 147.578 266.063 149.972 273.359C149.972 273.359 155.336 264.403 151.483 255.929Z" fill="black"/>
</g>
<path d="M169.07 268.85C169.07 268.85 163.88 258.943 161.722 258.943C161.722 258.943 154.165 262.202 149.858 272.817H146.145C146.145 272.817 144.17 264.29 134.237 259.607C134.237 259.607 128.566 269.82 128.374 269.715C131.865 272.948 136.386 274.845 141.139 275.071C149.15 275.49 160.796 274.739 160.796 274.739C160.796 274.739 167.838 271.672 169.07 268.85Z" fill="#455A64"/>
<g opacity="0.3">
<path d="M144.249 274.119C144.249 274.119 135.87 269.287 129.099 269.75C129.064 269.733 136.91 276.347 144.249 274.119Z" fill="black"/>
</g>
<g opacity="0.3">
<path d="M168.24 268.781C168.24 268.781 157.398 269.392 151.728 274.573C151.728 274.573 162.098 275.779 168.24 268.781Z" fill="black"/>
</g>
<path d="M185.373 274.634L182.411 319.165L113.679 318.519L113.137 273.961L185.373 274.634Z" fill="#FF8106"/>
<g opacity="0.3">
<path d="M172.329 274.512L171.91 319.069L182.411 319.165L185.373 274.634L172.329 274.512Z" fill="black"/>
</g>
<path d="M180.21 274.59L178.043 319.122L175.649 319.104L176.068 274.555L180.21 274.59Z" fill="#455A64"/>
<path d="M140.44 274.24L140.021 318.787L145.752 318.841L146.171 274.294L140.44 274.24Z" fill="#455A64"/>
<path d="M183.827 293.584H113.373V297.909H183.827V293.584Z" fill="#455A64"/>
</svg>
