<svg xmlns="http://www.w3.org/2000/svg" xmlns:xlink="http://www.w3.org/1999/xlink" viewBox="0 0 212.68 204.58"><defs><style>.cls-1{fill:#c8d3fb;}.cls-2{fill:url(#Безымянный_градиент_330);}.cls-3{fill:url(#Безымянный_градиент_330-2);}.cls-4{fill:url(#Безымянный_градиент_330-3);}.cls-5{fill:#1c0a76;}.cls-6{fill:url(#Безымянный_градиент_14);}.cls-13,.cls-7{fill:#fff;}.cls-8{fill:url(#Безымянный_градиент_18);}.cls-9{fill:url(#Безымянный_градиент_18-2);}.cls-10{fill:#6a6ae8;}.cls-11{fill:#312890;}.cls-12{opacity:0.08;}.cls-13{opacity:0.64;}.cls-14{fill:#3b31a1;}.cls-15{fill:#d35600;}.cls-16{fill:#ffd2a7;}.cls-17{fill:url(#Безымянный_градиент_18-3);}.cls-18{fill:url(#Безымянный_градиент_330-4);}.cls-19{fill:url(#Безымянный_градиент_140);}.cls-20{fill:#ffbc8e;}.cls-21{fill:url(#Безымянный_градиент_18-4);}.cls-22{fill:url(#Безымянный_градиент_18-5);}.cls-23{fill:url(#Безымянный_градиент_18-6);}.cls-24{fill:url(#Безымянный_градиент_18-7);}.cls-25{fill:url(#Безымянный_градиент_18-8);}.cls-26{fill:url(#Безымянный_градиент_18-9);}.cls-27{fill:url(#Безымянный_градиент_18-10);}.cls-28{fill:url(#Безымянный_градиент_18-11);}.cls-29{fill:url(#Безымянный_градиент_18-12);}.cls-30{fill:#191e3f;opacity:0.15;}.cls-31{fill:url(#Безымянный_градиент_18-13);}.cls-32{fill:url(#Безымянный_градиент_18-14);}.cls-33{fill:url(#Безымянный_градиент_18-15);}.cls-34{fill:url(#Безымянный_градиент_18-16);}.cls-35{fill:url(#Безымянный_градиент_18-17);}.cls-36{fill:url(#Безымянный_градиент_18-18);}.cls-37{fill:url(#Безымянный_градиент_18-19);}</style><linearGradient id="Безымянный_градиент_330" x1="7.97" y1="133.89" x2="246.89" y2="58.37" gradientUnits="userSpaceOnUse"><stop offset="0" stop-color="#fff"/><stop offset="1" stop-color="#d3dbeb"/></linearGradient><linearGradient id="Безымянный_градиент_330-2" x1="-0.44" y1="107.28" x2="238.48" y2="31.76" xlink:href="#Безымянный_градиент_330"/><linearGradient id="Безымянный_градиент_330-3" x1="93.04" y1="109.19" x2="188.09" y2="109.19" gradientTransform="translate(249.47 -31.6) rotate(89.88)" xlink:href="#Безымянный_градиент_330"/><linearGradient id="Безымянный_градиент_14" x1="643.65" y1="119.13" x2="782.14" y2="-1.4" gradientTransform="translate(-514.76)" gradientUnits="userSpaceOnUse"><stop offset="0" stop-color="#6a6ae8"/><stop offset="1" stop-color="#312890"/></linearGradient><linearGradient id="Безымянный_градиент_18" x1="-90.34" y1="31.11" x2="-87.05" y2="31.11" gradientTransform="translate(189.89)" gradientUnits="userSpaceOnUse"><stop offset="0" stop-color="#ffae00"/><stop offset="1" stop-color="#ff7800"/></linearGradient><linearGradient id="Безымянный_градиент_18-2" x1="105.14" y1="68.57" x2="174.29" y2="68.57" gradientTransform="matrix(1, 0, 0, 1, 0, 0)" xlink:href="#Безымянный_градиент_18"/><linearGradient id="Безымянный_градиент_18-3" x1="-1.64" y1="87.64" x2="33.85" y2="87.64" gradientTransform="matrix(-1, 0, 0, 1, 71.96, 0)" xlink:href="#Безымянный_градиент_18"/><linearGradient id="Безымянный_градиент_330-4" x1="12.23" y1="67.46" x2="23.75" y2="67.46" gradientTransform="matrix(-1, 0, 0, 1, 71.96, 0)" xlink:href="#Безымянный_градиент_330"/><linearGradient id="Безымянный_градиент_140" x1="-1625.5" y1="414.59" x2="-1589.11" y2="414.59" gradientTransform="matrix(-0.99, 0.13, 0.13, 0.99, -1596.19, -152.91)" gradientUnits="userSpaceOnUse"><stop offset="0" stop-color="#ffd000"/><stop offset="1" stop-color="#ff7400"/></linearGradient><linearGradient id="Безымянный_градиент_18-4" x1="-31.78" y1="347.17" x2="-6.37" y2="347.17" gradientTransform="matrix(-0.98, -0.22, -0.22, 0.98, 105.72, -264.26)" xlink:href="#Безымянный_градиент_18"/><linearGradient id="Безымянный_градиент_18-5" x1="129.86" y1="200.74" x2="165.17" y2="200.74" gradientTransform="matrix(1, 0, 0, 1, 0, 0)" xlink:href="#Безымянный_градиент_18"/><linearGradient id="Безымянный_градиент_18-6" x1="133.04" y1="196.12" x2="168.35" y2="196.12" gradientTransform="matrix(1, 0, 0, 1, 0, 0)" xlink:href="#Безымянный_градиент_18"/><linearGradient id="Безымянный_градиент_18-7" x1="130.81" y1="191.44" x2="166.12" y2="191.44" gradientTransform="matrix(1, 0, 0, 1, 0, 0)" xlink:href="#Безымянный_градиент_18"/><linearGradient id="Безымянный_градиент_18-8" x1="128.35" y1="186.82" x2="163.66" y2="186.82" gradientTransform="matrix(1, 0, 0, 1, 0, 0)" xlink:href="#Безымянный_градиент_18"/><linearGradient id="Безымянный_градиент_18-9" x1="133.04" y1="182.15" x2="168.35" y2="182.15" gradientTransform="matrix(1, 0, 0, 1, 0, 0)" xlink:href="#Безымянный_градиент_18"/><linearGradient id="Безымянный_градиент_18-10" x1="132.07" y1="168.2" x2="167.38" y2="168.2" gradientTransform="matrix(1, 0, 0, 1, 0, 0)" xlink:href="#Безымянный_градиент_18"/><linearGradient id="Безымянный_градиент_18-11" x1="133.04" y1="177.53" x2="168.35" y2="177.53" gradientTransform="matrix(1, 0, 0, 1, 0, 0)" xlink:href="#Безымянный_градиент_18"/><linearGradient id="Безымянный_градиент_18-12" x1="136.75" y1="172.86" x2="172.06" y2="172.86" gradientTransform="matrix(1, 0, 0, 1, 0, 0)" xlink:href="#Безымянный_градиент_18"/><linearGradient id="Безымянный_градиент_18-13" x1="117.56" y1="185.73" x2="146.69" y2="185.73" gradientTransform="matrix(1, 0, 0, 1, 0, 0)" xlink:href="#Безымянный_градиент_18"/><linearGradient id="Безымянный_градиент_18-14" x1="116.58" y1="185.3" x2="140.49" y2="185.3" gradientTransform="matrix(1, 0, 0, 1, 0, 0)" xlink:href="#Безымянный_градиент_18"/><linearGradient id="Безымянный_градиент_18-15" x1="161.71" y1="200.76" x2="197.03" y2="200.76" gradientTransform="matrix(1, 0, 0, 1, 0, 0)" xlink:href="#Безымянный_градиент_18"/><linearGradient id="Безымянный_градиент_18-16" x1="154.93" y1="186.8" x2="190.24" y2="186.8" gradientTransform="matrix(1, 0, 0, 1, 0, 0)" xlink:href="#Безымянный_градиент_18"/><linearGradient id="Безымянный_градиент_18-17" x1="157.45" y1="182.13" x2="192.77" y2="182.13" gradientTransform="matrix(1, 0, 0, 1, 0, 0)" xlink:href="#Безымянный_градиент_18"/><linearGradient id="Безымянный_градиент_18-18" x1="161.71" y1="196.13" x2="197.03" y2="196.13" gradientTransform="matrix(1, 0, 0, 1, 0, 0)" xlink:href="#Безымянный_градиент_18"/><linearGradient id="Безымянный_градиент_18-19" x1="159.61" y1="191.46" x2="194.92" y2="191.46" gradientTransform="matrix(1, 0, 0, 1, 0, 0)" xlink:href="#Безымянный_градиент_18"/></defs><g id="Слой_2" data-name="Слой 2"><g id="Layer1"><rect class="cls-1" x="18.72" y="203.21" width="180.31" height="1.37"/><path class="cls-2" d="M13.24,105.49C20.39,59.12,60.66-26.46,119.73,8c50.72,29.55,15.82,65.38,57.52,80.13,71.19,25.18,9.32,131.33-77,113S6.6,148.61,13.24,105.49Z"/><path class="cls-3" d="M156.43,23.19C153.08,40.1,159,71.6,192,82.38s21.56-15.14,0-36.25S161.48-2.27,156.43,23.19Z"/><path class="cls-1" d="M173.11,151.78H156.2v-9.26h16.91Zm-16-.95h15v-7.36h-15Z"/><path class="cls-1" d="M184.71,160.09H167.79v-9.26h16.92Zm-16-1h15v-7.36h-15Z"/><path class="cls-1" d="M131.35,72H114.44V62.78h16.91Zm-16-1h15V63.73h-15Z"/><path class="cls-1" d="M101.59,174.47H84.68v-9.25h16.91Zm-16-.95h15v-7.36h-15Z"/><path class="cls-1" d="M117.57,174.47H100.66v-9.25h16.91Zm-16-.95h15v-7.36h-15Z"/><path class="cls-1" d="M109.57,182.78H92.66v-9.26h16.91Zm-16-.95h15v-7.36h-15Z"/><path class="cls-1" d="M77,121.11H60.12v-9.26H77Zm-16-1h15V112.8h-15Z"/><path class="cls-1" d="M65.44,129.42H48.52v-9.26H65.44Zm-16-.95h15v-7.36h-15Z"/><path class="cls-1" d="M48.74,82.94H31.82V73.68H48.74Zm-16-1h15V74.63h-15Z"/><path class="cls-1" d="M64.72,82.94H47.8V73.68H64.72Zm-16-1h15V74.63h-15Z"/><path class="cls-1" d="M56.72,91.25H39.8V82H56.72Zm-16-1h15V82.94h-15Z"/><rect class="cls-4" x="56.14" y="61.82" width="168.85" height="94.73" transform="translate(31.1 249.53) rotate(-89.88)"/><path class="cls-5" d="M184.82,18.4l-54.77.31v7.11l27.74.06,19.77.11a12.06,12.06,0,0,1,12,12.08l-.26,137.55a12.07,12.07,0,0,1-12.09,12l-47.51.1,0,14.93,54.77.52a12.07,12.07,0,0,0,12.09-12l.3-160.69A12,12,0,0,0,184.82,18.4Z"/><path class="cls-6" d="M180.72,18.35q-.42,0-.84,0H95.66a7.81,7.81,0,0,0-7.82,7.81l0,169.19a7.81,7.81,0,0,0,7.81,7.81h84.23c.27,0,.55,0,.82,0a12.07,12.07,0,0,0,11.25-12l0-160.68A12.06,12.06,0,0,0,180.72,18.35Zm3.94,161.43a7.82,7.82,0,0,1-7.82,7.82h-74a7.82,7.82,0,0,1-7.81-7.82l0-146a7.81,7.81,0,0,1,7.81-7.81h74a7.81,7.81,0,0,1,7.81,7.82Z"/><path class="cls-5" d="M149.75,199l-20.08,0A3.65,3.65,0,0,1,126,195.3h0a3.66,3.66,0,0,1,3.65-3.64l20.08,0a3.64,3.64,0,0,1,3.64,3.65h0A3.64,3.64,0,0,1,149.75,199Z"/><path class="cls-5" d="M184.68,36.46H95.07v-7.6a3.1,3.1,0,0,1,3.1-3.1h83.39a3.1,3.1,0,0,1,3.11,3.1Z"/><path class="cls-7" d="M112.2,31.11a1.65,1.65,0,1,1,1.65,1.64A1.65,1.65,0,0,1,112.2,31.11Z"/><path class="cls-1" d="M105.87,31.11a1.65,1.65,0,1,1,3.29,0,1.65,1.65,0,0,1-3.29,0Z"/><path class="cls-8" d="M99.55,31.11a1.65,1.65,0,1,1,1.64,1.64A1.64,1.64,0,0,1,99.55,31.11Z"/><polygon class="cls-7" points="176.85 29.91 177.66 29.09 178.82 30.25 179.99 29.09 180.8 29.91 179.64 31.07 180.8 32.23 179.99 33.05 178.82 31.88 177.66 33.05 176.85 32.23 178.01 31.07 176.85 29.91"/><rect class="cls-9" x="105.14" y="55.96" width="69.14" height="25.22" rx="5.95"/><path class="cls-7" d="M122.67,75.28V61.86H127a16.16,16.16,0,0,1,3.22.2,3.52,3.52,0,0,1,1.93,1.31A4.19,4.19,0,0,1,133,66a4.38,4.38,0,0,1-.45,2.08,3.7,3.7,0,0,1-1.14,1.32A4.08,4.08,0,0,1,130,70a16.42,16.42,0,0,1-2.82.19h-1.76v5.06Zm2.71-11.15v3.81h1.48a7,7,0,0,0,2.14-.21,1.76,1.76,0,0,0,.85-.66,1.85,1.85,0,0,0,.31-1,1.75,1.75,0,0,0-.43-1.21,1.88,1.88,0,0,0-1.09-.6,13.37,13.37,0,0,0-1.95-.09Z"/><path class="cls-7" d="M145.89,75.28h-2.95l-1.17-3H136.4l-1.11,3h-2.87l5.23-13.42h2.86Zm-5-5.31-1.85-5-1.82,5Z"/><path class="cls-7" d="M149.13,75.28V69.63l-4.92-7.77h3.18l3.16,5.31,3.09-5.31h3.12l-4.93,7.79v5.63Z"/><rect class="cls-1" x="102.14" y="95.52" width="74.03" height="65.58"/><rect class="cls-5" x="154.49" y="107.5" width="8.13" height="8.13" transform="translate(270.13 -46.99) rotate(90)"/><path class="cls-5" d="M152.36,105.37v12.4h12.4v-12.4Zm12,12.06H152.7V105.72h11.71Z"/><rect class="cls-5" x="117.78" y="107.5" width="8.13" height="8.13" transform="translate(233.41 -10.27) rotate(90)"/><path class="cls-5" d="M115.64,105.37v12.4H128v-12.4Zm12.06,12.06H116V105.72H127.7Z"/><rect class="cls-5" x="154.49" y="141.38" width="8.13" height="8.13" transform="translate(304.01 -13.11) rotate(90)"/><path class="cls-5" d="M152.36,139.25v12.4h12.4v-12.4Zm12,12.05H152.7V139.59h11.71Z"/><rect class="cls-5" x="117.78" y="141.38" width="8.13" height="8.13" transform="translate(267.29 23.6) rotate(90)"/><path class="cls-5" d="M115.64,139.25v12.4H128v-12.4ZM127.7,151.3H116V139.59H127.7Z"/><rect class="cls-5" x="143.79" y="110.82" width="3.09" height="3.09" transform="translate(257.7 -32.96) rotate(90)"/><rect class="cls-5" x="140.7" y="112.37" width="3.09" height="3.09" transform="translate(256.15 -28.33) rotate(90)"/><rect class="cls-5" x="137.61" y="110.82" width="3.09" height="3.09" transform="translate(251.52 -26.79) rotate(90)"/><rect class="cls-5" x="134.52" y="108.48" width="3.09" height="3.09" transform="translate(246.09 -26.04) rotate(90)"/><rect class="cls-5" x="134.52" y="113.01" width="3.09" height="3.09" transform="translate(250.62 -21.51) rotate(90)"/><rect class="cls-5" x="130.74" y="117" width="3.09" height="3.09" transform="translate(250.83 -13.74) rotate(90)"/><rect class="cls-5" x="137.61" y="113.91" width="3.09" height="3.09" transform="translate(254.61 -23.7) rotate(90)"/><rect class="cls-5" x="137.61" y="119.75" width="3.09" height="3.09" transform="translate(260.44 -17.86) rotate(90)"/><rect class="cls-5" x="143.79" y="121.63" width="3.09" height="3.09" transform="translate(268.51 -22.15) rotate(90)"/><rect class="cls-5" x="146.88" y="124.72" width="3.09" height="3.09" transform="translate(274.69 -22.15) rotate(90)"/><rect class="cls-5" x="134.52" y="122.79" width="3.09" height="3.09" transform="translate(260.4 -11.73) rotate(90)"/><rect class="cls-5" x="132.29" y="120.09" width="3.09" height="3.09" transform="translate(255.47 -12.2) rotate(90)"/><rect class="cls-5" x="127.14" y="123.64" width="3.09" height="3.09" transform="translate(253.87 -3.5) rotate(90)"/><rect class="cls-5" x="124.05" y="120.55" width="3.09" height="3.09" transform="translate(247.69 -3.5) rotate(90)"/><rect class="cls-5" x="140.7" y="115.46" width="3.09" height="3.09" transform="translate(259.24 -25.24) rotate(90)"/><rect class="cls-5" x="143.79" y="115.46" width="3.09" height="3.09" transform="translate(262.33 -28.33) rotate(90)"/><rect class="cls-5" x="146.88" y="117.6" width="3.09" height="3.09" transform="translate(267.56 -29.28) rotate(90)"/><rect class="cls-5" x="140.7" y="118.55" width="3.09" height="3.09" transform="translate(262.33 -22.15) rotate(90)"/><rect class="cls-5" x="143.79" y="118.55" width="3.09" height="3.09" transform="translate(265.42 -25.24) rotate(90)"/><rect class="cls-5" x="140.84" y="128.06" width="3.09" height="3.09" transform="translate(271.99 -12.78) rotate(90)"/><rect class="cls-5" x="137.75" y="129.6" width="3.09" height="3.09" transform="translate(270.44 -8.14) rotate(90)"/><rect class="cls-5" x="134.66" y="128.06" width="3.09" height="3.09" transform="translate(265.81 -6.6) rotate(90)"/><rect class="cls-5" x="131.57" y="125.72" width="3.09" height="3.09" transform="translate(260.38 -5.85) rotate(90)"/><rect class="cls-5" x="131.57" y="130.25" width="3.09" height="3.09" transform="translate(264.9 -1.32) rotate(90)"/><rect class="cls-5" x="127.79" y="134.24" width="3.09" height="3.09" transform="translate(265.12 6.44) rotate(90)"/><rect class="cls-5" x="134.66" y="131.15" width="3.09" height="3.09" transform="translate(268.9 -3.51) rotate(90)"/><rect class="cls-5" x="134.66" y="136.98" width="3.09" height="3.09" transform="translate(274.73 2.33) rotate(90)"/><rect class="cls-5" x="140.84" y="138.87" width="3.09" height="3.09" transform="translate(282.8 -1.97) rotate(90)"/><rect class="cls-5" x="143.93" y="141.96" width="3.09" height="3.09" transform="translate(288.98 -1.97) rotate(90)"/><rect class="cls-5" x="131.57" y="140.03" width="3.09" height="3.09" transform="translate(274.69 8.46) rotate(90)"/><rect class="cls-5" x="129.34" y="137.33" width="3.09" height="3.09" transform="translate(269.76 7.99) rotate(90)"/><rect class="cls-5" x="137.75" y="132.69" width="3.09" height="3.09" transform="translate(273.53 -5.05) rotate(90)"/><rect class="cls-5" x="140.84" y="132.69" width="3.09" height="3.09" transform="translate(276.62 -8.14) rotate(90)"/><rect class="cls-5" x="143.93" y="134.84" width="3.09" height="3.09" transform="translate(281.85 -9.09) rotate(90)"/><rect class="cls-5" x="137.75" y="135.78" width="3.09" height="3.09" transform="translate(276.62 -1.97) rotate(90)"/><rect class="cls-5" x="140.84" y="135.78" width="3.09" height="3.09" transform="translate(279.71 -5.05) rotate(90)"/><rect class="cls-5" x="152.95" y="130.83" width="3.09" height="3.09" transform="translate(286.86 -22.12) rotate(90)"/><rect class="cls-5" x="156.04" y="133.92" width="3.09" height="3.09" transform="translate(293.04 -22.12) rotate(90)"/><rect class="cls-5" x="149.86" y="127.74" width="3.09" height="3.09" transform="translate(280.68 -22.12) rotate(90)"/><rect class="cls-5" x="146.77" y="130.83" width="3.09" height="3.09" transform="translate(280.68 -15.94) rotate(90)"/><rect class="cls-5" x="153.05" y="122.23" width="3.09" height="3.09" transform="translate(278.38 -30.82) rotate(90)"/><rect class="cls-5" x="149.96" y="119.14" width="3.09" height="3.09" transform="translate(272.2 -30.82) rotate(90)"/><polygon class="cls-5" points="161.11 102.3 161.11 101.95 168.23 101.95 168.23 109.56 167.89 109.56 167.89 102.3 161.11 102.3"/><polygon class="cls-5" points="111.58 109.56 111.58 101.95 118.69 101.95 118.69 102.3 111.92 102.3 111.92 109.56 111.58 109.56"/><polygon class="cls-5" points="161.11 156.25 161.11 155.91 167.89 155.91 167.89 148.64 168.23 148.64 168.23 156.25 161.11 156.25"/><polygon class="cls-5" points="111.58 156.25 111.58 148.64 111.92 148.64 111.92 155.91 118.69 155.91 118.69 156.25 111.58 156.25"/><path class="cls-10" d="M49.7,117.64a.42.42,0,0,0-.4-.31c-3.94.07-8.87.08-12.2,2.51-3.1,2.27-3.57,6.27-3.5,9.83a.42.42,0,0,0,.67.32l0,0A11.45,11.45,0,0,0,49.7,117.64Z"/><path class="cls-10" d="M30.65,133.73c0-2.74-.61-5.5-2.71-7.41-2.41-2.18-5.9-3.42-8.75-4.9-.29-.15-.75.11-.61.47,1.29,3.28,1.11,7.29,3.39,10.14a7.51,7.51,0,0,0,8.11,2.34.38.38,0,0,0,.27-.25A.39.39,0,0,0,30.65,133.73Z"/><path class="cls-10" d="M56.08,142.66c-1.94-1.5-4.43-1.35-6.77-1.25A19.45,19.45,0,0,0,41.74,143c-4.12,2-7,6.29-5.53,10.87a.41.41,0,0,0,.28.48c3.93,1.25,5.82-1.38,8.19-4a25,25,0,0,1,11.21-7.05C56.16,143.27,56.34,142.86,56.08,142.66Z"/><path class="cls-10" d="M65.47,152.44l-.15-.07A20,20,0,0,1,60.65,149s0,0,0,0c-1.66-1.44-3.35-2.79-5.33-3.15h0a5.77,5.77,0,0,0-2.93.24c-4.2,1.4-6.79,5.78-7.2,10a.36.36,0,0,0,.06.24.64.64,0,0,0,0,.07.45.45,0,0,0,.37.58,33,33,0,0,0,10.67-.73c3.12-.66,6.66-1.2,9.37-3A.42.42,0,0,0,65.47,152.44Z"/><path class="cls-10" d="M59.22,160.5c-4.6-.92-14.1-3.26-14.75,4.06a.34.34,0,0,0,.31.39c4.17,4.9,12.29,1,14.69-3.84A.42.42,0,0,0,59.22,160.5Z"/><path class="cls-10" d="M30.08,145.76a13.36,13.36,0,0,0-6.84-6.51.42.42,0,0,0-.52.4c0,5.32-1.26,13.7,4.52,16.64a.53.53,0,0,0,.12,0,.41.41,0,0,0,.71,0C29.85,153.13,31.73,149.4,30.08,145.76Z"/><path class="cls-10" d="M15,149.14A10.17,10.17,0,0,0,4.44,148C-.12,150.32.7,155.81,0,160a.42.42,0,0,0,.69.41c4.51-4,10.79-5.51,14.23-10.68h0A.36.36,0,0,0,15,149.14Z"/><path class="cls-10" d="M15.05,153.33a.41.41,0,0,0-.52-.15.38.38,0,0,0-.52-.11c-2.26,1.23-4.9,3-5.35,5.7-.53,3.25,1.3,6.43,1.51,9.64,0,.44.72.6.82.11.58-3.08,3.77-4.49,4.94-7.26A9.58,9.58,0,0,0,15.05,153.33Z"/><path class="cls-10" d="M29,172.24c-2.65-3.72-5.38-6.9-10-8.07a.42.42,0,0,0-.47.61c1,1.56,1,3.33,1.89,4.9a6.27,6.27,0,0,0,2.24,2.19c2,1.24,4.5,2.37,6.69,1.11C29.79,172.73,29.42,172.07,29,172.24Z"/><path class="cls-10" d="M35,167.85a.56.56,0,0,0,0-.12c-1.83-2.91-1.91-6.61-4.42-9.12a.43.43,0,0,0-.66.09,7,7,0,0,0-.85,6.56c1.06,2.4,3.3,3.05,5.73,3.3C35.15,168.61,35.22,168.08,35,167.85Z"/><path class="cls-10" d="M40.08,135.31c-.52-.44-1.22,0-1.73.22A12.89,12.89,0,0,0,35.6,137a6.41,6.41,0,0,0-2.76,4.8.38.38,0,0,0,0,.15c0,.06,0,.12,0,.17a.42.42,0,0,0,.8.17,9.2,9.2,0,0,0,4.94-3.3C39.16,138.31,41.29,136.32,40.08,135.31Z"/><path class="cls-10" d="M41,168.18c-.06-.06-.11-.13-.18-.19.52-3.56.74-7.67-2.76-9.76a.41.41,0,0,0-.61.25,10.45,10.45,0,0,0,3,10.29C40.79,169.14,41.38,168.55,41,168.18Z"/><path class="cls-11" d="M65.11,152a22.27,22.27,0,0,1-4.46-3s0,0,0,0a15.2,15.2,0,0,0-5.33-3.15h0a5.77,5.77,0,0,0-2.93.24c-4.2,1.4-6.79,5.78-7.2,10a.36.36,0,0,0,.06.24.64.64,0,0,0,0,.07.49.49,0,0,0,.36-.2.4.4,0,0,0,.22-.12c1.37-1.46,2.83-2.82,4.26-4.21a21,21,0,0,1,2.15-2.07c1.67-1.19,3.1-1,4.85-.46A30.18,30.18,0,0,1,62.91,152c.7.4,1.4,1.07,2.2.71a.38.38,0,0,0,.21-.37A.36.36,0,0,0,65.11,152Z"/><path class="cls-11" d="M28.2,166.05c-.39-1.61-.84-3.25-1.39-4.85l0,0a22.54,22.54,0,0,0,.88-7.76.39.39,0,0,0,.33-.28,13.58,13.58,0,0,0,.61-4.7c0-.53-.86-.53-.84,0a13.22,13.22,0,0,1-.26,3.27,23.46,23.46,0,0,0-.8-3.68.42.42,0,0,0-.81.22,21.64,21.64,0,0,1,.37,11.59,22.19,22.19,0,0,0-3.07-5.56c-3.09-4-8.7-6.36-13.15-4.5a.37.37,0,0,0-.3-.34,6.56,6.56,0,0,0-5,.76.42.42,0,0,0,.42.72,5.69,5.69,0,0,1,4-.73,8.64,8.64,0,0,0-2.79,2.54c-.32.44.41.86.72.42a8.34,8.34,0,0,1,9.4-2.78,11.21,11.21,0,0,1,2.73,1.35c-3.55-.07-6.25,2.31-8.68,4.67a.42.42,0,0,0,.59.59c.49-.47,1-.94,1.48-1.39a9.8,9.8,0,0,0-.07,2.54c0,.53.89.53.83,0a9,9,0,0,1,.24-3.23.92.92,0,0,0,0-.16,8.55,8.55,0,0,1,6-2.18.33.33,0,0,0,.38-.28,16.77,16.77,0,0,1,4.46,5.67,45.32,45.32,0,0,1,4.06,14,9,9,0,0,1-4.43-2.67c-.37-.4-.95.19-.59.59a9.76,9.76,0,0,0,2,1.7,10,10,0,0,1-1.44-.1c-.53-.08-.75.72-.22.8a10.71,10.71,0,0,0,2.4.12.4.4,0,0,0,.34-.23,10.08,10.08,0,0,0,1.94.66h.08c.31,2.37.49,4.72.6,7,0,.53.86.53.83,0A71.86,71.86,0,0,0,28.2,166.05Z"/><path class="cls-11" d="M42,148.92a25.81,25.81,0,0,0-2.15,1.73,13,13,0,0,1,1.92-4.12c.31-.44-.41-.86-.72-.42a13.53,13.53,0,0,0-2.21,5.12.4.4,0,0,0,0,.31,27.22,27.22,0,0,0-4.72,6.18c-.23-2.88-.41-5.75-.55-8.63-.1-2.05-.26-4.34-.32-6.7a9.76,9.76,0,0,1,3.48-3.28c.49-.23.07-1-.42-.72a9,9,0,0,0-3.08,2.66c0-1.1,0-2.22.08-3.32a.39.39,0,0,0,0-.38c.42-5.89,2.19-11.45,7.83-14,.48-.22.06-.94-.42-.72a12.36,12.36,0,0,0-3.6,2.48,5.52,5.52,0,0,1,.38-2.37c.2-.5-.61-.71-.8-.22a6.28,6.28,0,0,0-.34,3.35s0,0,0,.05c-2.4,2.86-3.39,6.68-3.75,10.64l-3.63-4.2a.35.35,0,0,0,.2-.35,6.34,6.34,0,0,0-1.12-3.23c-.31-.44-1,0-.72.42a5.43,5.43,0,0,1,.94,2.34l-1.35-1.56c-.35-.41-.93.18-.59.59,2.06,2.39,4.12,4.77,6.18,7.17-.09,1.45-.1,2.92-.08,4.35l0,.07a.34.34,0,0,0,.06.49c0,1.4.08,2.77.14,4.06q.39,10,1.5,19.89a8.3,8.3,0,0,1-3.08-3.89c-.24-.48-1-.06-.72.42.86,1.72,1.84,3.52,3.67,4.35a.36.36,0,0,0,.22,0q.72,6.36,1.71,12.7c.09.53.89.3.81-.22q-1.63-10.41-2.51-20.89a.35.35,0,0,0,.2-.18,26.2,26.2,0,0,1,7.94-9.24C42.89,149.32,42.47,148.6,42,148.92Z"/><path class="cls-11" d="M55.83,149.57a10.28,10.28,0,0,0-4.8,1.11,15.72,15.72,0,0,1,2-1.82c.42-.32,0-1-.42-.72A18,18,0,0,0,49,151.88a.37.37,0,0,0-.07.16,21.55,21.55,0,0,0-6.2,8.82,37.64,37.64,0,0,0-1.83,6,13.13,13.13,0,0,1-1-2.52,2.81,2.81,0,0,0-1.08-1.71c-.46-.29-.88.43-.43.72.68.42.84,1.64,1.08,2.34a7.55,7.55,0,0,0,.92,1.92.41.41,0,0,0,.32.18,150.35,150.35,0,0,0-1.77,15.32c0,.53.78.53.83,0,.45-4.7.74-9.5,1.59-14.18a.44.44,0,0,0,.18-.11,24.34,24.34,0,0,1,5.19-4.7,5.82,5.82,0,0,0,2.08,1.25c.51.17.72-.64.22-.81a4.62,4.62,0,0,1-1.53-.86,10.77,10.77,0,0,1,1.74-.72c.51-.15.29-1-.22-.8a11.49,11.49,0,0,0-2.27,1,.47.47,0,0,0-.32.19,22,22,0,0,0-4.77,4.12c.27-1.31.59-2.62,1-3.9a26.65,26.65,0,0,1,3.85-7.88h0a16.15,16.15,0,0,1,2.91-.67c.53-.07.3-.88-.22-.8a14.62,14.62,0,0,0-1.84.37c2.18-2.51,5-4.28,8.49-4.21A.42.42,0,0,0,55.83,149.57Z"/><polygon class="cls-1" points="48.88 175.55 48.21 179.68 47.02 187.08 44.43 203.21 25.47 203.21 22.88 187.08 21.69 179.68 21.02 175.55 48.88 175.55"/><polygon class="cls-12" points="28.94 179.68 28.28 175.55 21.02 175.55 21.69 179.68 22.88 187.08 25.47 203.21 32.72 203.21 30.13 187.08 28.94 179.68"/><path class="cls-13" d="M42.21,201.88h-.08c-.48,0-.85-.3-.81-.61l3.26-24.54c0-.31.47-.54,1-.52s.85.3.81.61l-3.26,24.54C43.06,201.66,42.67,201.88,42.21,201.88Z"/><path class="cls-14" d="M72.73,112.48a22.27,22.27,0,0,0-6.17-11.24c-2-1.7-7.59-1.53-9.85,3.11s-3.1,7.46-2.47,15.82,7.56,36.93,7.57,43.2,13,5.59,12.36-3.39S74.26,119.55,72.73,112.48Z"/><path class="cls-5" d="M54.06,114.27a21.35,21.35,0,0,1,2.65-9.92,7.15,7.15,0,0,1,5.69-4l.4,0,.36,0a8.43,8.43,0,0,1,1,.06,5.64,5.64,0,0,1,1.21.28,3.55,3.55,0,0,1,.52.23,1.36,1.36,0,0,1,.24.13,4.43,4.43,0,0,1,.42.29l.26.24.16.16.06,0a.8.8,0,0,0,.13.13l.06.07.14.15.07.07.44.5a.27.27,0,0,0,.07.08l.16.21a.39.39,0,0,1,.08.1l.18.22.07.09q.25.31.51.69a.36.36,0,0,1,.07.1l.2.27.08.13.19.29a1,1,0,0,1,.08.11c.17.28.35.56.52.86l.08.13c.06.11.13.22.19.34l.08.15.19.34.07.15c.09.16.17.33.25.5h0c.09.17.17.35.25.52l.07.16.17.38c0,.07,0,.13.07.19s.11.26.16.39a1.34,1.34,0,0,1,.07.18c.07.19.15.38.21.57h0c.07.19.13.39.2.59s0,.12,0,.19.09.28.13.42,0,.15.07.22.08.29.11.44l.06.2.15.64h0a3.7,3.7,0,0,1,.07.38l0,.13a2.93,2.93,0,0,0,0,.29c0,.06,0,.12,0,.17s0,.2,0,.3,0,.13,0,.19,0,.22,0,.33l0,.19c0,.13,0,.27,0,.41s0,.09,0,.14c0,.39.07.8.11,1.24v.13c0,.18,0,.36,0,.54s0,.12,0,.18,0,.35,0,.53a1.09,1.09,0,0,0,0,.18l0,.59a.76.76,0,0,1,0,.15c0,.24,0,.49,0,.75h0c0,.82.08,1.67.11,2.57v.06l0,.84v.07q0,.44,0,.9h0c-5.54,4-15.08,3.88-14.77,6.7.14,1.27,4.17,28.4,4.65,29.45,0,.12-.74,4-1.6,4a4.21,4.21,0,0,1,0-.51c0-6.17-6.71-33.92-7.53-42.78v0c0-.14,0-.27,0-.4-.1-1.31-.16-2.48-.19-3.54C54,115.78,54,115,54.06,114.27Z"/><path class="cls-14" d="M42.68,112.59a28.69,28.69,0,0,1,8.14-11.38c2.29-1.74,7.85-1.67,9.3,3s1.79,7.42-.3,15.82-10,37.08-11.09,43.38-12.9,1.31-11.55-7.89C38.68,145.29,39.92,119.71,42.68,112.59Z"/><path class="cls-5" d="M55.56,125c-2.91-.48-7.46-1.25-8.51-.93a5.38,5.38,0,0,0-3.93,5c0,2.74-4.31,29.12-4.3,29.24a20.55,20.55,0,0,1-1.74-1.62,10.53,10.53,0,0,1,.1-1.24c1.5-10.18,2.74-35.76,5.5-42.88a29.38,29.38,0,0,1,7.67-11c.18-.15.33-.28.47-.38,2.29-1.74,7.85-1.67,9.3,3s1.79,7.42-.3,15.82c-.1.41-.57,1.81-1,3.11A2.93,2.93,0,0,1,55.56,125Z"/><path class="cls-15" d="M63.76,60.89C66.14,62.81,72.5,72,76.65,81.06c0,0,.89,2.43.89,2.46h0a11.75,11.75,0,0,1,.86,3.3c.24,4.67-6.42,4.43-6.77,4.15-5.51-4.56-15.29-22.16-15.92-24.45C54.06,60.61,59.9,57.79,63.76,60.89Z"/><path class="cls-16" d="M71.74,84.49c5.89-3.14,29.27-8.33,31.83-11.26s7.47,4.45,2.79,5.45S85.52,89.44,79,91.56C69.38,94.66,70.24,85.29,71.74,84.49Z"/><path class="cls-15" d="M78.09,81.9s-1.71,5.59,2.16,10c0,0-4.68,1.95-7.52,0s-2.65-5.91-1.9-7.29S76.66,81.91,78.09,81.9Z"/><path class="cls-5" d="M53.3,47.94c.56,4.21-4.6,5.88-4.6,5.88-.42-3.12-3.93-4.88-5.08-8.68s1.18-8.12,6.71-8C53.73,37.29,52.75,43.73,53.3,47.94Z"/><path class="cls-17" d="M48.82,59.87c-3,.38-8.35,1.71-10,4.53s-.43,29.72,1.61,47.33c0,0,24.45,10.33,33.13-.77,0,0-6-45.34-9.51-49.55C61.2,57.91,51.77,59.48,48.82,59.87Z"/><path class="cls-18" d="M48.21,59.94S58.53,74.29,59.73,75.47c0,0-.38-12.32-.6-16Z"/><path class="cls-19" d="M50.1,53.87c-.12-.55-.22-.9-.22-.9s5.86-4.67,6.64.07Z"/><polygon class="cls-5" points="89.36 110.89 125.98 64.83 67.33 69.64 74.96 83.92 57.17 93.42 63.96 106.12 81.74 96.62 89.36 110.89"/><path class="cls-16" d="M56.38,62.94l1.78-3.39s-1.84-1.24-1.59-4.48c.6-7.91-6.69-2.1-6.69-2.1s1.32,6.59-1.06,6.89Z"/><path class="cls-20" d="M56.34,61.39c-4.11.53-3.9-4.61-4.1-5.58S49.88,53,49.88,53s1.32,6.59-1.06,6.89l7.56,3.08,1-2A2.16,2.16,0,0,1,56.34,61.39Z"/><path class="cls-15" d="M38.11,68.25h4l-.67,16.14s.06,31.05,26.82,30.41c-10.67,4.18-27.84-3.07-27.84-3.07A297.25,297.25,0,0,1,38.11,68.25Z"/><path class="cls-16" d="M58.6,41.62l2,9.14c.36,2.73-2.49,5.35-5.36,5.73h0a5.12,5.12,0,0,1-5.86-4.25l0-.23A3.21,3.21,0,0,1,46,49.17c-.4-3,1.75-2.06,1.75-2.06l-.17-1.29a2.73,2.73,0,0,1,2.34-3.06Z"/><path class="cls-20" d="M47.72,47.11l-.19-1.41a2.62,2.62,0,0,1,2.24-2.92l1.47-.19a.28.28,0,0,1,0,.09l1.38,10.46a3.43,3.43,0,0,0,4,2.73,6.54,6.54,0,0,0,2-.88,6.65,6.65,0,0,1-3.37,1.5,5.12,5.12,0,0,1-5.86-4.25l0-.23A3.21,3.21,0,0,1,46,49.17C45.57,46.14,47.72,47.11,47.72,47.11Z"/><path class="cls-1" d="M57.27,58.52a9.47,9.47,0,0,1-.89,4.42,2,2,0,0,1,2.5.64,1.66,1.66,0,0,0,1.07.6,22.78,22.78,0,0,0-.84-4.86Z"/><path class="cls-1" d="M50.07,58.35c1.34,2,6.31,4.59,6.31,4.59s-1.52-.32-3,1.65a3.48,3.48,0,0,1-1.6,1.14s-3.16-2.43-3.59-5.79Z"/><path class="cls-5" d="M50.93,41.7a6.61,6.61,0,0,0,6,1.44c3.71-.86,4.29,1.07,4.29,1.07s.87-7.07-4.24-8.87-7.66,1.87-7.66,1.87Z"/><path class="cls-21" d="M58.68,89.86c-.93-2.67-2.29-4.69-6.07-11.08-.12-.28-.25-.57-.4-.85-2.63-5.19-3.84-11.75-4.38-12.67-2-3.43-10.42-4.71-10.09,3.93C38.05,77,45.21,91,50.13,93.76a6,6,0,0,0,6.25-.42C57.18,92.72,59,90.63,58.68,89.86Z"/><path class="cls-16" d="M54.87,86.54c5.7-1.11,22.72,1.1,25.82-.68,2.11-1.21,1.06,5.8-.66,5.53-3.94-.62-18.57,3.48-24.38,4C50.7,95.91,51,87.3,54.87,86.54Z"/><path class="cls-16" d="M91,88.94c-1.38-.81-2.7-1.61-1.61-1.1,1.39.67,2.78-.61,1.4-1.26a21.79,21.79,0,0,0-5.53-2.25c-2.09-.34-6.06,2.63-8,2.91-.8.11,0,3.84.62,4.06,2.13.71,4.45-.57,4.78-.47a18.19,18.19,0,0,1,2,1.46c1,.73,2.79-.14,1.84-.86-.61-.46-.32-.67.56-.06,1.13.79,3-.21,1.85-1-.48-.33-.56-.59.11-.2C90.36,91,92.35,89.73,91,88.94Z"/><path class="cls-16" d="M31.85,198.8c3-1.05,3.75-5.67,4.06-8.41L40.32,192s-1.74,4.69-1,7.88-.26,2.89-.26,2.89H25.45A24.54,24.54,0,0,1,31.85,198.8Z"/><path class="cls-5" d="M25.18,203.13H38.93s.51.16.7-.87a3.79,3.79,0,0,0,0-1.91c0-.27-.06-.54-.08-.82a7.91,7.91,0,0,1-3.25-.85c-.57-1.53-2.56-2.22-3.07-1.44-.82,1.4-2.54,1.72-3.73,2.13-2.6.87-3.24,1.89-3.86,2.89A5.19,5.19,0,0,0,25.18,203.13Z"/><path class="cls-5" d="M25.18,203.13H38.93s.51.16.7-.87h-14A5.19,5.19,0,0,0,25.18,203.13Z"/><path class="cls-14" d="M37.93,154.28c-4,3.25-2.16,26.66-4.17,42.23,0,0,4.61,1,7.4-.18,0,0,7.58-27.39,7.58-33.76C48.74,151.37,42.21,150.79,37.93,154.28Z"/><path class="cls-16" d="M76,199.11c-3-1-1.65-5.87-2-8.6l-4.4,1.63a80.65,80.65,0,0,1-1,8.1c-.66,3.2.29,2.89.29,2.89L82.72,203A28.44,28.44,0,0,0,76,199.11Z"/><path class="cls-5" d="M76,199.11c-.92-.28-1.13-.89-1.69-1.77-.35-.62-1.43.46-2,1.67,0,0-2.38,1-3.66.58,0,.22-.06.44-.1.65-.66,3.2.29,2.89.29,2.89L82.72,203C82,200.39,79,200,76,199.11Z"/><path class="cls-5" d="M68.38,202.3c.06,1,.52.83.52.83L82.72,203a2.55,2.55,0,0,0-.34-.83Z"/><path class="cls-14" d="M73.33,159.13c2.55,2.83,1,22.26,1.7,36.31,0,0-4.65,1.36-7.31.16,0,0-7.35-27-5.76-32.62C64.1,155.48,69.9,155.34,73.33,159.13Z"/><path class="cls-5" d="M62,163a12.74,12.74,0,0,1,1.23-3c0,.36,5.08,24.23,5.66,35.93a5.57,5.57,0,0,1-.73-.19,3.7,3.7,0,0,1-.4-.16s-2.34-8.83-4.25-17.85C62.2,171.44,61.29,165.32,62,163Z"/><path class="cls-5" d="M37.93,154.28a9.2,9.2,0,0,1,1.62-1.06c-.53,2.14-2.62,11-2.48,17.39.16,7.06-1.19,23.9-1.77,26.15-.92-.11-1.54-.25-1.54-.25C35.77,180.94,34,157.53,37.93,154.28Z"/><path class="cls-22" d="M165.17,202.19a.83.83,0,0,1-.82.84l-6,0-27.69.08a.83.83,0,0,1-.83-.83v-3a.83.83,0,0,1,.83-.83h2.88l24.74-.08,6,0a1.07,1.07,0,0,1,.31.06.84.84,0,0,1,.52.77Z"/><path class="cls-15" d="M130.7,203.28a1,1,0,0,1-1-1v-3a1,1,0,0,1,1-1l33.64-.1a.92.92,0,0,1,.36.07,1,1,0,0,1,.62.9v3a1,1,0,0,1-1,1Zm33.63-4.78-33.64.1a.7.7,0,0,0-.68.69v3a.69.69,0,0,0,.68.69l33.65-.11a.69.69,0,0,0,.68-.68v-3a.69.69,0,0,0-.44-.63A.7.7,0,0,0,164.33,198.5Z"/><path class="cls-23" d="M168.35,197.57a.84.84,0,0,1-.83.84h-2.88l-6.22,0-24.54.08a.78.78,0,0,1-.31-.06.84.84,0,0,1-.52-.77v-3a.84.84,0,0,1,.83-.84l22.35-.07,11.29,0a.83.83,0,0,1,.83.83Z"/><path class="cls-15" d="M133.88,198.66a1,1,0,0,1-.37-.08,1,1,0,0,1-.61-.9v-3a1,1,0,0,1,1-1l33.64-.11a1,1,0,0,1,.69.29.94.94,0,0,1,.29.69v3a1,1,0,0,1-1,1Zm33.64-4.78h0l-33.64.1a.67.67,0,0,0-.48.2.7.7,0,0,0-.2.49v3a.68.68,0,0,0,.42.63.6.6,0,0,0,.26.05l33.64-.1a.69.69,0,0,0,.69-.69v-3a.67.67,0,0,0-.21-.48A.63.63,0,0,0,167.52,193.88Z"/><path class="cls-24" d="M166.12,192.9a.81.81,0,0,1-.82.83l-9.09,0h0l-24.55.07a.84.84,0,0,1-.84-.83v-3a.85.85,0,0,1,.57-.79,1.09,1.09,0,0,1,.26,0l19.88-.06,11.58,0h2.18a.84.84,0,0,1,.84.83Z"/><path class="cls-15" d="M131.66,194a1,1,0,0,1-1-1v-3a1,1,0,0,1,.66-.92.89.89,0,0,1,.31-.06l33.64-.1a1,1,0,0,1,1,1v3a1,1,0,0,1-1,1Zm33.62-4.78-33.64.11-.22,0a.69.69,0,0,0-.46.65v3a.69.69,0,0,0,.69.69l24.51-.08.07,0,0,0,9,0a.69.69,0,0,0,.68-.68v-3A.69.69,0,0,0,165.28,189.2Z"/><path class="cls-25" d="M163.66,188.27a.82.82,0,0,1-.56.79.81.81,0,0,1-.27.05l-11.24,0-20.21.06h-2.19a.83.83,0,0,1-.83-.83v-3a.84.84,0,0,1,.83-.84h4.52l20.39-.06h0l8.72,0,.18,0a.84.84,0,0,1,.65.81Z"/><path class="cls-15" d="M129.19,189.36a1,1,0,0,1-1-1v-3a1,1,0,0,1,1-1l25.06-.08h0l8.58,0a.83.83,0,0,1,.22,0,1,1,0,0,1,.76.95v3a1,1,0,0,1-.66.93.86.86,0,0,1-.32.05Zm24.87-4.75-24.88.07a.69.69,0,0,0-.69.69l0,3a.67.67,0,0,0,.68.68l33.64-.1a.54.54,0,0,0,.22,0,.67.67,0,0,0,.46-.65v-3a.68.68,0,0,0-.53-.66l-.15,0-8.66,0,0,0Z"/><path class="cls-26" d="M168.35,183.61a.83.83,0,0,1-.83.83H163l-8.86,0-20.26.06-.18,0a.82.82,0,0,1-.65-.8v-3a.84.84,0,0,1,.63-.81l.2,0,19.19-.06,14.45,0a.75.75,0,0,1,.21,0,.83.83,0,0,1,.62.81Z"/><path class="cls-15" d="M133.88,184.69a.83.83,0,0,1-.22,0,1,1,0,0,1-.76-.94v-3a1,1,0,0,1,.75-.95.75.75,0,0,1,.23,0l33.64-.1a1,1,0,0,1,.25,0,1,1,0,0,1,.73.95v3a1,1,0,0,1-1,1Zm33.63-4.78-33.64.11a.34.34,0,0,0-.15,0,.66.66,0,0,0-.53.66v3a.68.68,0,0,0,.53.66h.15l33.64-.1a.68.68,0,0,0,.69-.68v-3a.67.67,0,0,0-.51-.66A.52.52,0,0,0,167.51,179.91Z"/><path class="cls-27" d="M167.38,169.65a.83.83,0,0,1-.74.83h-.09l-16.27,0-12.79,0h0l-4.58,0a.84.84,0,0,1-.84-.83v-3a.83.83,0,0,1,.83-.84h2.38l17.52-.06,13.73,0,.17,0a.83.83,0,0,1,.67.81Z"/><path class="cls-15" d="M132.9,170.74a1,1,0,0,1-1-1v-3a1,1,0,0,1,1-1l33.63-.11.2,0a1,1,0,0,1,.79,1v3a1,1,0,0,1-.88,1h-.1l-33.64.11ZM166.53,166l-33.63.1a.68.68,0,0,0-.69.69v3a.68.68,0,0,0,.68.68h0l33.64-.1h.06a.69.69,0,0,0,.62-.69v-3a.69.69,0,0,0-.55-.67Z"/><path class="cls-28" d="M168.35,179a.82.82,0,0,1-.63.81.64.64,0,0,1-.2,0l-14.36,0-19.28.06a.76.76,0,0,1-.21,0,.83.83,0,0,1-.62-.8v-3a.83.83,0,0,1,.83-.83h3.59l11.51,0,18.54-.06h.13a.83.83,0,0,1,.7.82Z"/><path class="cls-15" d="M133.88,180.07a1,1,0,0,1-1-1v-3a1,1,0,0,1,1-1l33.64-.11.15,0a1,1,0,0,1,.83,1v3a1,1,0,0,1-.74.95,1.57,1.57,0,0,1-.24,0Zm33.63-4.78-33.64.1a.68.68,0,0,0-.48.21.67.67,0,0,0-.2.48v3a.68.68,0,0,0,.51.66.47.47,0,0,0,.17,0l33.64-.1.16,0a.69.69,0,0,0,.53-.66v-3a.69.69,0,0,0-.59-.67Z"/><path class="cls-29" d="M172.06,174.31a.83.83,0,0,1-.83.83h-3.59l-18.65.06-11.4,0h-.13a.86.86,0,0,1-.71-.82v-3a.83.83,0,0,1,.74-.83h.09l12.7,0,16.35-.05h4.58a.82.82,0,0,1,.84.83Z"/><path class="cls-15" d="M137.59,175.39h-.15a1,1,0,0,1-.83-1v-3a1,1,0,0,1,.87-1h.11l33.63-.1a1,1,0,0,1,.7.28,1,1,0,0,1,.29.7v3a1,1,0,0,1-.29.69.94.94,0,0,1-.69.29Zm0-4.67h-.05a.68.68,0,0,0-.61.68v3a.7.7,0,0,0,.59.67h.1l33.64-.11a.66.66,0,0,0,.48-.2.67.67,0,0,0,.2-.48v-3a.68.68,0,0,0-.2-.49.66.66,0,0,0-.48-.19l-33.64.1Z"/><path class="cls-30" d="M168.34,194.56v3a.84.84,0,0,1-.83.84h-2.88a.84.84,0,0,1,.52.77v3a.83.83,0,0,1-.82.84l-6,0a.87.87,0,0,1-.45-.73v-3a.84.84,0,0,1,.64-.81.44.44,0,0,1-.16-.06.24.24,0,0,1-.11-.06.86.86,0,0,1-.37-.68v-3a.83.83,0,0,1,.56-.79h-1.82a.81.81,0,0,1-.46-.14l11.29,0A.83.83,0,0,1,168.34,194.56Z"/><path class="cls-30" d="M153.4,179.93h0Z"/><path class="cls-30" d="M168.36,183.61a.84.84,0,0,1-.84.83H163a.84.84,0,0,1,.65.81v3a.82.82,0,0,1-.56.79h2.18a.84.84,0,0,1,.84.83v3a.84.84,0,0,1-.83.84l-9.09,0h0a.81.81,0,0,1-.37-.69v-3a.84.84,0,0,1,.79-.83H152a.8.8,0,0,1-.41-.1.13.13,0,0,1-.06,0,.8.8,0,0,1-.37-.67v-3a.83.83,0,0,1,.83-.83h2.38a.53.53,0,0,1-.22-.08l0,0h0a.86.86,0,0,1-.41-.72v-3a.83.83,0,0,1,.62-.81H168a.8.8,0,0,1,.34.67Z"/><path class="cls-30" d="M149.23,188.56c-1.56,7.59-6.83,13.23-12.81,14.48h0a12.15,12.15,0,0,1-4.88,0h0l-1.42-.25a.84.84,0,0,1-.23-.57v-3a.83.83,0,0,1,.83-.83h2.88a.83.83,0,0,1-.52-.77v-3a.82.82,0,0,1,.5-.76h-1.88a.83.83,0,0,1-.84-.83v-3a.84.84,0,0,1,.57-.79h-2.19a.83.83,0,0,1-.83-.83v-3a.84.84,0,0,1,.83-.84h4.52a.82.82,0,0,1-.65-.8v-3a.84.84,0,0,1,.64-.81.83.83,0,0,1-.63-.8v-3a.84.84,0,0,1,.83-.84h3.61a.81.81,0,0,1-.72-.81v-3a.83.83,0,0,1,.78-.84l-4.62,0a.84.84,0,0,1-.84-.83v-2.45a11.88,11.88,0,0,1,3,.23l3.59.74C146.48,169.88,151.2,179,149.23,188.56Z"/><path class="cls-31" d="M125.2,202.13c-5.73-3.16-8.86-10.92-7.19-19s7.52-13.94,14-14.66l.12-.57,3.59.74c7.79,1.6,12.51,10.69,10.54,20.29s-9.89,16.09-17.69,14.49l-3.48-.62Z"/><path class="cls-15" d="M114.42,182.34c-2,9.61,2.86,18.81,10.65,20.41s15.6-5,17.58-14.61-2.75-18.69-10.54-20.29S116.39,172.74,114.42,182.34Z"/><path class="cls-32" d="M116.94,182.87c-1.62,7.89,2.35,15.44,8.75,16.76s12.81-4.11,14.43-12-2.25-15.35-8.65-16.66S118.56,175,116.94,182.87Z"/><path class="cls-15" d="M127.63,200a9.34,9.34,0,0,1-2-.2,11,11,0,0,1-7.49-6,17.15,17.15,0,0,1,4.15-20.43,10.9,10.9,0,0,1,9.18-2.53c6.47,1.33,10.4,8.89,8.77,16.84a16.75,16.75,0,0,1-5.47,9.53A11.19,11.19,0,0,1,127.63,200ZM117.08,182.9a16.21,16.21,0,0,0,1.36,10.74,10.69,10.69,0,0,0,7.28,5.84,10.48,10.48,0,0,0,8.89-2.51A16.51,16.51,0,0,0,140,187.6c1.6-7.79-2.23-15.19-8.54-16.49a10.63,10.63,0,0,0-8.94,2.47,16.28,16.28,0,0,0-5.42,9.32Z"/><path class="cls-15" d="M127.18,178a5.21,5.21,0,0,1,1.31,0,3.94,3.94,0,0,1,1.21.41,3.84,3.84,0,0,1,1.05.82,4.46,4.46,0,0,1,.78,1.28l-1.56.36a3.2,3.2,0,0,0-1.05-1.08,2.53,2.53,0,0,0-1.39-.31l1,4.36,1,.2a7.94,7.94,0,0,1,1,.24,8.15,8.15,0,0,1,.91.34,4,4,0,0,1,.78.5,3.31,3.31,0,0,1,.6.69,3,3,0,0,1,.37.93,3.42,3.42,0,0,1,0,1.62,3.56,3.56,0,0,1-.62,1.3,4.14,4.14,0,0,1-1.06,1,5.81,5.81,0,0,1-1.3.64l.5,2.18-1.58.37-.51-2.22a4.34,4.34,0,0,1-1.44-.23,4.7,4.7,0,0,1-1.31-.69,5.45,5.45,0,0,1-1.11-1.09,5.68,5.68,0,0,1-.8-1.43l1.65-.38a5.15,5.15,0,0,0,.48.87,3.8,3.8,0,0,0,.62.69,2.84,2.84,0,0,0,.73.47,2.31,2.31,0,0,0,.81.21l-1.09-4.74c-.48-.09-1-.2-1.4-.32a5.43,5.43,0,0,1-1.26-.5,3.63,3.63,0,0,1-1-.79,3,3,0,0,1-.58-1.24,2.81,2.81,0,0,1,0-1.29,3.37,3.37,0,0,1,.5-1.17,4.21,4.21,0,0,1,.92-1,5,5,0,0,1,1.22-.69l-.32-1.4,1.58-.36Zm-2.58,4a1.44,1.44,0,0,0,.27.6,1.77,1.77,0,0,0,.49.45,3.28,3.28,0,0,0,.65.32c.25.09.52.16.8.23l-.86-3.74a2.36,2.36,0,0,0-1.16.93A1.57,1.57,0,0,0,124.6,182Zm7,5.16a1.19,1.19,0,0,0-.33-.6,2,2,0,0,0-.61-.44,4.46,4.46,0,0,0-.8-.33c-.29-.08-.6-.16-.91-.22l1,4.2a3.1,3.1,0,0,0,.84-.47,2.64,2.64,0,0,0,.58-.63,2,2,0,0,0,.28-.73A1.87,1.87,0,0,0,131.58,187.18Z"/><path class="cls-33" d="M196.2,203l-33.64.11a.84.84,0,0,1-.84-.83v-3a.83.83,0,0,1,.83-.83l33.64-.1a.84.84,0,0,1,.84.83v3A.83.83,0,0,1,196.2,203Z"/><path class="cls-15" d="M162.55,203.29a1,1,0,0,1-1-1v-3a1,1,0,0,1,.28-.69,1,1,0,0,1,.69-.29l33.64-.1h0a1,1,0,0,1,1,1v3a1,1,0,0,1-1,1l-33.64.1Zm33.64-4.78h0l-33.64.11a.68.68,0,0,0-.68.68v3a.68.68,0,0,0,.68.68h0l33.64-.11a.69.69,0,0,0,.68-.68v-3A.69.69,0,0,0,196.19,198.51Z"/><path class="cls-34" d="M189.41,189.09l-33.64.1a.83.83,0,0,1-.83-.83v-3a.84.84,0,0,1,.83-.84l33.64-.1a.83.83,0,0,1,.83.83v3A.84.84,0,0,1,189.41,189.09Z"/><path class="cls-15" d="M155.77,189.34a1,1,0,0,1-1-1v-3a1,1,0,0,1,1-1l33.64-.11h0a1,1,0,0,1,1,1v3a1,1,0,0,1-.28.7,1,1,0,0,1-.7.28l-33.64.11Zm33.63-4.78h0l-33.64.1a.66.66,0,0,0-.48.2.7.7,0,0,0-.2.49v3a.68.68,0,0,0,.68.68h0l33.64-.1a.68.68,0,0,0,.49-.2.71.71,0,0,0,.19-.49v-3a.73.73,0,0,0-.21-.48A.67.67,0,0,0,189.4,184.56Z"/><path class="cls-35" d="M191.94,184.42l-33.64.1a.84.84,0,0,1-.84-.83v-3a.83.83,0,0,1,.83-.83l33.64-.11a.84.84,0,0,1,.84.83v3A.83.83,0,0,1,191.94,184.42Z"/><path class="cls-15" d="M158.29,184.67a1,1,0,0,1-1-1v-3a1,1,0,0,1,1-1l33.64-.1h0a1,1,0,0,1,1,1v3a1,1,0,0,1-1,1l-33.64.1Zm33.63-4.78h0l-33.64.1a.73.73,0,0,0-.48.21.67.67,0,0,0-.2.48v3a.68.68,0,0,0,.2.49.72.72,0,0,0,.48.2h0l33.64-.11a.68.68,0,0,0,.68-.68v-3a.68.68,0,0,0-.69-.68Z"/><path class="cls-36" d="M196.2,198.42l-33.64.1a.84.84,0,0,1-.84-.83v-3a.83.83,0,0,1,.83-.83l33.64-.11a.84.84,0,0,1,.84.83v3A.84.84,0,0,1,196.2,198.42Z"/><path class="cls-15" d="M162.55,198.67a1,1,0,0,1-1-1v-3a1,1,0,0,1,.28-.69,1,1,0,0,1,.69-.29l33.64-.1a1,1,0,0,1,.7.28,1,1,0,0,1,.29.69v3a1,1,0,0,1-.28.7,1,1,0,0,1-.69.29l-33.64.1Zm33.64-4.78h0l-33.64.1a.68.68,0,0,0-.48.21.67.67,0,0,0-.2.48v3a.7.7,0,0,0,.2.49.71.71,0,0,0,.48.19h0l33.64-.1a.68.68,0,0,0,.68-.69v-3a.68.68,0,0,0-.68-.68Z"/><path class="cls-37" d="M194.09,193.74l-33.64.11a.83.83,0,0,1-.83-.83v-3a.84.84,0,0,1,.83-.84l33.64-.1a.83.83,0,0,1,.83.83v3A.83.83,0,0,1,194.09,193.74Z"/><path class="cls-15" d="M160.45,194a1,1,0,0,1-1-1v-3a1,1,0,0,1,.29-.7,1,1,0,0,1,.69-.29l33.64-.1h0a1,1,0,0,1,1,1v3a1,1,0,0,1-1,1l-33.64.1Zm33.63-4.78h0l-33.64.11a.68.68,0,0,0-.68.68v3a.69.69,0,0,0,.68.68h0l33.64-.1a.7.7,0,0,0,.69-.69v-3A.7.7,0,0,0,194.08,189.21Z"/></g></g></svg>