<svg xmlns="http://www.w3.org/2000/svg" xmlns:xlink="http://www.w3.org/1999/xlink" viewBox="0 0 205.48 193.13"><defs><style>.cls-1{fill:none;}.cls-2{fill:url(#Безымянный_градиент_330);}.cls-3{fill:url(#Безымянный_градиент_330-2);}.cls-4{fill:url(#Безымянный_градиент_330-3);}.cls-5{fill:#c8d3fb;}.cls-6{fill:#6a6ae8;}.cls-7{fill:#312890;}.cls-8{opacity:0.08;}.cls-30,.cls-9{fill:#fff;}.cls-9{opacity:0.64;}.cls-10{fill:url(#Безымянный_градиент_330-5);}.cls-11{fill:#1c0a76;}.cls-12{fill:url(#Безымянный_градиент_14);}.cls-13{fill:url(#Безымянный_градиент_330-6);}.cls-14{fill:#3b31a1;}.cls-15{fill:#ffd2a7;}.cls-16{fill:#d35600;}.cls-17{fill:url(#Безымянный_градиент_18);}.cls-18{fill:url(#Безымянный_градиент_330-7);}.cls-19{fill:url(#Безымянный_градиент_140);}.cls-20{fill:#ffbc8e;}.cls-21{fill:url(#Безымянный_градиент_18-2);}.cls-22{clip-path:url(#clip-path);}.cls-23{fill:url(#Безымянный_градиент_14-2);}.cls-24{fill:url(#Безымянный_градиент_14-3);}.cls-25{fill:url(#Безымянный_градиент_18-3);}.cls-26{fill:url(#Безымянный_градиент_14-4);}.cls-27{clip-path:url(#clip-path-2);}.cls-28{fill:url(#Безымянный_градиент_330-8);}.cls-29{fill:url(#Безымянный_градиент_330-9);}.cls-30{opacity:0.34;}.cls-31{fill:url(#Безымянный_градиент_330-10);}.cls-32{fill:url(#Безымянный_градиент_14-5);}.cls-33{fill:url(#Безымянный_градиент_14-6);}.cls-34{fill:url(#Безымянный_градиент_14-7);}.cls-35{fill:url(#Безымянный_градиент_18-4);}.cls-36{fill:url(#Безымянный_градиент_18-5);}.cls-37{fill:url(#Безымянный_градиент_18-6);}.cls-38{fill:url(#Безымянный_градиент_18-7);}.cls-39{fill:url(#Безымянный_градиент_18-8);}.cls-40{fill:url(#Безымянный_градиент_18-9);}.cls-41{fill:url(#Безымянный_градиент_18-10);}.cls-42{fill:url(#Безымянный_градиент_18-11);}.cls-43{fill:#191e3f;opacity:0.15;}.cls-44{fill:url(#Безымянный_градиент_18-12);}.cls-45{fill:url(#Безымянный_градиент_18-13);}.cls-46{fill:url(#Безымянный_градиент_18-14);}.cls-47{fill:url(#Безымянный_градиент_18-15);}.cls-48{fill:url(#Безымянный_градиент_18-16);}.cls-49{fill:url(#Безымянный_градиент_18-17);}.cls-50{fill:url(#Безымянный_градиент_18-18);}</style><linearGradient id="Безымянный_градиент_330" x1="-16.01" y1="130.6" x2="234.32" y2="62.2" gradientUnits="userSpaceOnUse"><stop offset="0" stop-color="#fff"/><stop offset="1" stop-color="#d3dbeb"/></linearGradient><linearGradient id="Безымянный_градиент_330-2" x1="0" y1="95.87" x2="194.22" y2="95.87" xlink:href="#Безымянный_градиент_330"/><linearGradient id="Безымянный_градиент_330-3" x1="-33.67" y1="65.95" x2="216.65" y2="-2.45" xlink:href="#Безымянный_градиент_330"/><linearGradient id="Безымянный_градиент_330-5" x1="17.25" y1="95.07" x2="106.85" y2="95.07" xlink:href="#Безымянный_градиент_330"/><linearGradient id="Безымянный_градиент_14" x1="389.68" y1="107.43" x2="528.18" y2="-13.09" gradientTransform="matrix(-1, 0, 0, 1, 462.72, 0)" gradientUnits="userSpaceOnUse"><stop offset="0" stop-color="#6a6ae8"/><stop offset="1" stop-color="#312890"/></linearGradient><linearGradient id="Безымянный_градиент_330-6" x1="158.79" y1="21.13" x2="173.66" y2="21.13" gradientTransform="translate(313.38 -59.01) rotate(144.18)" xlink:href="#Безымянный_градиент_330"/><linearGradient id="Безымянный_градиент_18" x1="161.62" y1="59.97" x2="151.5" y2="112.35" gradientUnits="userSpaceOnUse"><stop offset="0" stop-color="#ffae00"/><stop offset="1" stop-color="#ff7800"/></linearGradient><linearGradient id="Безымянный_градиент_330-7" x1="150.52" y1="67.25" x2="161.1" y2="67.25" xlink:href="#Безымянный_градиент_330"/><linearGradient id="Безымянный_градиент_140" x1="-6296.93" y1="908.91" x2="-6263.53" y2="908.91" gradientTransform="translate(6503.61 -44.03) rotate(7.35)" gradientUnits="userSpaceOnUse"><stop offset="0" stop-color="#ffd000"/><stop offset="1" stop-color="#ff7400"/></linearGradient><linearGradient id="Безымянный_градиент_18-2" x1="172.81" y1="62.14" x2="162.68" y2="114.51" xlink:href="#Безымянный_градиент_18"/><clipPath id="clip-path"><path class="cls-1" d="M127,164.85c0,4.31-23.66,11-28,11l-74,0a7.82,7.82,0,0,1-7.82-7.82l0-146a7.8,7.8,0,0,1,7.81-7.81H99c4.31,0,39.24,58,39.24,62.35Z"/></clipPath><linearGradient id="Безымянный_градиент_14-2" x1="29.48" y1="41.67" x2="58.6" y2="41.67" gradientTransform="matrix(1, 0, 0, 1, 0, 0)" xlink:href="#Безымянный_градиент_14"/><linearGradient id="Безымянный_градиент_14-3" x1="19.41" y1="101.29" x2="128.93" y2="101.29" gradientTransform="translate(0.54 -0.74)" xlink:href="#Безымянный_градиент_14"/><linearGradient id="Безымянный_градиент_18-3" x1="8.95" y1="74.72" x2="134.3" y2="74.72" xlink:href="#Безымянный_градиент_18"/><linearGradient id="Безымянный_градиент_14-4" x1="79.82" y1="67.68" x2="121.35" y2="67.68" gradientTransform="matrix(-0.87, 0.49, 0.49, 0.87, 125.33, -34.35)" xlink:href="#Безымянный_градиент_14"/><clipPath id="clip-path-2"><path class="cls-1" d="M89.38,63.94a20.77,20.77,0,1,1-28.3-7.81A20.76,20.76,0,0,1,89.38,63.94Z"/></clipPath><linearGradient id="Безымянный_градиент_330-8" x1="53.45" y1="90.85" x2="88.4" y2="90.85" gradientTransform="matrix(-1, 0, 0, 1, 179.41, -11.23)" xlink:href="#Безымянный_градиент_330"/><linearGradient id="Безымянный_градиент_330-9" x1="53.44" y1="83.7" x2="88.4" y2="83.7" gradientTransform="matrix(-1, 0, 0, 1, 175.88, -10.29)" xlink:href="#Безымянный_градиент_330"/><linearGradient id="Безымянный_градиент_330-10" x1="55.02" y1="49.08" x2="77.99" y2="49.08" gradientTransform="matrix(-0.87, 0.49, 0.49, 0.87, 125.33, -34.35)" xlink:href="#Безымянный_градиент_330"/><linearGradient id="Безымянный_градиент_14-5" x1="34.37" y1="142.76" x2="76" y2="142.76" gradientTransform="matrix(1, 0, 0, 1, 0, 0)" xlink:href="#Безымянный_градиент_14"/><linearGradient id="Безымянный_градиент_14-6" x1="21.29" y1="122.89" x2="89.07" y2="122.89" gradientTransform="matrix(1, 0, 0, 1, 0, 0)" xlink:href="#Безымянный_градиент_14"/><linearGradient id="Безымянный_градиент_14-7" x1="48.73" y1="160.3" x2="61.64" y2="160.3" gradientTransform="matrix(1, 0, 0, 1, 0, 0)" xlink:href="#Безымянный_градиент_14"/><linearGradient id="Безымянный_градиент_18-4" x1="78.09" y1="189.65" x2="113.4" y2="189.65" xlink:href="#Безымянный_градиент_18"/><linearGradient id="Безымянный_градиент_18-5" x1="81.27" y1="185.02" x2="116.58" y2="185.02" xlink:href="#Безымянный_градиент_18"/><linearGradient id="Безымянный_градиент_18-6" x1="79.04" y1="180.35" x2="114.35" y2="180.35" xlink:href="#Безымянный_градиент_18"/><linearGradient id="Безымянный_градиент_18-7" x1="76.58" y1="175.72" x2="111.89" y2="175.72" xlink:href="#Безымянный_градиент_18"/><linearGradient id="Безымянный_градиент_18-8" x1="81.27" y1="171.06" x2="116.58" y2="171.06" xlink:href="#Безымянный_градиент_18"/><linearGradient id="Безымянный_градиент_18-9" x1="80.3" y1="157.1" x2="115.61" y2="157.1" xlink:href="#Безымянный_градиент_18"/><linearGradient id="Безымянный_градиент_18-10" x1="81.27" y1="166.43" x2="116.58" y2="166.43" xlink:href="#Безымянный_градиент_18"/><linearGradient id="Безымянный_градиент_18-11" x1="84.98" y1="161.76" x2="120.29" y2="161.76" xlink:href="#Безымянный_градиент_18"/><linearGradient id="Безымянный_градиент_18-12" x1="65.79" y1="174.63" x2="94.92" y2="174.63" xlink:href="#Безымянный_градиент_18"/><linearGradient id="Безымянный_градиент_18-13" x1="64.81" y1="174.2" x2="88.72" y2="174.2" xlink:href="#Безымянный_градиент_18"/><linearGradient id="Безымянный_градиент_18-14" x1="109.94" y1="189.66" x2="145.26" y2="189.66" xlink:href="#Безымянный_градиент_18"/><linearGradient id="Безымянный_градиент_18-15" x1="103.16" y1="175.7" x2="138.47" y2="175.7" xlink:href="#Безымянный_градиент_18"/><linearGradient id="Безымянный_градиент_18-16" x1="105.68" y1="171.04" x2="141" y2="171.04" xlink:href="#Безымянный_градиент_18"/><linearGradient id="Безымянный_градиент_18-17" x1="109.94" y1="185.03" x2="145.26" y2="185.03" xlink:href="#Безымянный_градиент_18"/><linearGradient id="Безымянный_градиент_18-18" x1="107.84" y1="180.36" x2="143.15" y2="180.36" xlink:href="#Безымянный_градиент_18"/></defs><g id="Слой_2" data-name="Слой 2"><g id="Layer1"><path class="cls-2" d="M4.65,99.3C-4.61,117,2.19,133.71,6,143.07c7.82,19.3,34.06,44,97,48.36,81,5.56,93.3-64.87,91-95.2S188.17,26.09,121.69,4,81.27,58.69,30.12,81.24C21,85.24,9.29,90.44,4.65,99.3Z"/><path class="cls-3" d="M4.65,99.3C-4.61,117,2.19,133.71,6,143.07c7.82,19.3,34.06,44,97,48.36,81,5.56,93.3-64.87,91-95.2S188.17,26.09,121.69,4,81.27,58.69,30.12,81.24C21,85.24,9.29,90.44,4.65,99.3Z"/><path class="cls-4" d="M9.46,67.26a5.33,5.33,0,0,0,4.39,3.25c7.6.74,18.56-2.48,29.9-16.73,12.67-15.93,26.56-32.36,13-31.09S20.62,36.88,12.47,50.4C7.47,58.7,8.17,64.23,9.46,67.26Z"/><path class="cls-3" d="M4.65,99.3C-4.61,117,2.19,133.71,6,143.07c7.82,19.3,34.06,44,97,48.36,81,5.56,93.3-64.87,91-95.2S188.17,26.09,121.69,4,81.27,58.69,30.12,81.24C21,85.24,9.29,90.44,4.65,99.3Z"/><rect class="cls-5" x="6.96" y="191.76" width="180.31" height="1.37"/><path class="cls-5" d="M46.31,130.51H29.39v-9.26H46.31Zm-16-.95h15V122.2h-15Z"/><path class="cls-5" d="M34.71,138.81H17.8v-9.25H34.71Zm-16-.95h15v-7.35h-15Z"/><path class="cls-5" d="M88.07,50.77H71.15V41.51H88.07Zm-16-1h15V42.46h-15Z"/><path class="cls-5" d="M117.83,153.2H100.91v-9.26h16.92Zm-16-.95h15v-7.36h-15Z"/><path class="cls-5" d="M101.84,153.2H84.93v-9.26h16.91Zm-16-.95h15v-7.36h-15Z"/><path class="cls-5" d="M109.84,161.51H92.93v-9.26h16.91Zm-16-.95h15V153.2h-15Z"/><path class="cls-5" d="M104,93.1H87.12V83.84H104Zm-16-.95h15V84.79h-15Z"/><path class="cls-5" d="M115.63,101.41H98.71V92.15h16.92Zm-16-1h15V93.1h-15Z"/><path class="cls-5" d="M170.68,61.67H153.77V52.41h16.91Zm-16-1h15V53.36h-15Z"/><path class="cls-5" d="M154.7,61.67H137.79V52.41H154.7Zm-16-1h15V53.36h-15Z"/><path class="cls-5" d="M162.7,70H145.79V60.72H162.7Zm-16-1h15V61.67h-15Z"/><path class="cls-6" d="M189.41,106.19a.43.43,0,0,0-.41-.3c-3.93.06-8.86.07-12.19,2.51-3.1,2.26-3.57,6.26-3.5,9.82a.43.43,0,0,0,.67.33l0,0A11.46,11.46,0,0,0,189.41,106.19Z"/><path class="cls-6" d="M170.36,122.29c0-2.74-.61-5.51-2.71-7.41-2.41-2.18-5.9-3.42-8.75-4.9-.29-.15-.76.1-.61.47,1.29,3.28,1.1,7.28,3.38,10.13a7.54,7.54,0,0,0,8.12,2.35,4.25,4.25,0,0,0,.57-.64Z"/><path class="cls-6" d="M195.78,131.21c-1.93-1.5-4.43-1.35-6.77-1.25a19.54,19.54,0,0,0-7.57,1.64c-4.11,2-7,6.28-5.52,10.86a.41.41,0,0,0,.28.49c3.92,1.24,5.82-1.38,8.18-4a25,25,0,0,1,11.22-7.06C195.87,131.82,196.05,131.41,195.78,131.21Z"/><path class="cls-6" d="M205.18,141l-.15-.07a19.44,19.44,0,0,1-4.68-3.38v0c-1.66-1.43-3.35-2.79-5.33-3.15h0a5.78,5.78,0,0,0-2.93.25c-4.21,1.4-6.79,5.77-7.21,10a.36.36,0,0,0,.07.24l0,.07a.46.46,0,0,0,.38.58,32.67,32.67,0,0,0,10.66-.73c3.13-.66,6.66-1.19,9.38-3A.42.42,0,0,0,205.18,141Z"/><path class="cls-6" d="M198.93,149.05c-4.6-.92-14.1-3.26-14.75,4.07a.35.35,0,0,0,.31.39c4.17,4.89,12.28,1,14.68-3.85A.41.41,0,0,0,198.93,149.05Z"/><path class="cls-6" d="M169.79,134.31a13.3,13.3,0,0,0-6.84-6.5.41.41,0,0,0-.53.4c.05,5.32-1.26,13.69,4.53,16.63l.12,0a.4.4,0,0,0,.7,0C169.56,141.69,171.44,138,169.79,134.31Z"/><path class="cls-6" d="M154.73,137.7a10.2,10.2,0,0,0-10.58-1.15c-4.56,2.32-3.74,7.81-4.44,12a.42.42,0,0,0,.7.41c4.51-3.95,10.79-5.5,14.23-10.68h0A.37.37,0,0,0,154.73,137.7Z"/><path class="cls-6" d="M154.75,141.88a.41.41,0,0,0-.51-.15.4.4,0,0,0-.52-.11c-2.26,1.24-4.91,3-5.35,5.7-.53,3.26,1.3,6.43,1.5,9.64,0,.44.73.6.82.11.58-3.08,3.78-4.48,4.95-7.26A9.55,9.55,0,0,0,154.75,141.88Z"/><path class="cls-6" d="M168.69,160.8c-2.66-3.73-5.38-6.91-10-8.08a.42.42,0,0,0-.47.61c1,1.57,1,3.33,1.88,4.91a6.46,6.46,0,0,0,2.25,2.19c2,1.24,4.5,2.36,6.69,1.11A.41.41,0,0,0,168.69,160.8Z"/><path class="cls-6" d="M174.67,156.4a.31.31,0,0,0,0-.12c-1.82-2.91-1.9-6.61-4.42-9.12a.42.42,0,0,0-.65.09,7,7,0,0,0-.85,6.57c1.06,2.39,3.29,3.05,5.72,3.3C174.85,157.16,174.93,156.64,174.67,156.4Z"/><path class="cls-6" d="M179.78,123.86c-.52-.43-1.21,0-1.72.22a13.21,13.21,0,0,0-2.76,1.51,6.43,6.43,0,0,0-2.76,4.81.38.38,0,0,0,0,.15,1,1,0,0,0,0,.17.43.43,0,0,0,.81.16,9.17,9.17,0,0,0,4.93-3.3C178.87,126.86,181,124.88,179.78,123.86Z"/><path class="cls-6" d="M180.7,156.73a1.62,1.62,0,0,1-.18-.19c.52-3.55.74-7.67-2.76-9.76a.41.41,0,0,0-.61.25,10.43,10.43,0,0,0,3,10.29C180.5,157.69,181.09,157.1,180.7,156.73Z"/><path class="cls-6" d="M204.82,140.57a22.19,22.19,0,0,1-4.47-3v0a15.29,15.29,0,0,0-5.33-3.15h0a5.78,5.78,0,0,0-2.93.25c-4.21,1.4-6.79,5.77-7.21,10a.36.36,0,0,0,.07.24l0,.07a.46.46,0,0,0,.36-.2.37.37,0,0,0,.23-.12c1.36-1.46,2.82-2.81,4.26-4.21a20.88,20.88,0,0,1,2.15-2.06c1.67-1.2,3.1-1,4.85-.46a30.06,30.06,0,0,1,5.9,2.73c.71.4,1.4,1.08,2.21.71a.39.39,0,0,0,.21-.37A.38.38,0,0,0,204.82,140.57Z"/><path class="cls-7" d="M167.91,154.61c-.4-1.62-.84-3.26-1.39-4.86l0,0a22.76,22.76,0,0,0,.88-7.75.4.4,0,0,0,.32-.28,13.15,13.15,0,0,0,.61-4.7c0-.54-.86-.54-.83,0a12.69,12.69,0,0,1-.27,3.26,21.81,21.81,0,0,0-.8-3.68c-.15-.51-1-.29-.8.22a21.78,21.78,0,0,1,.37,11.6,22.08,22.08,0,0,0-3.07-5.57c-3.09-3.95-8.71-6.36-13.15-4.49a.35.35,0,0,0-.3-.34,6.47,6.47,0,0,0-5,.76.42.42,0,0,0,.42.72,5.63,5.63,0,0,1,4-.74,8.81,8.81,0,0,0-2.8,2.55c-.31.43.41.85.72.42a8.34,8.34,0,0,1,9.4-2.79,11.1,11.1,0,0,1,2.74,1.35c-3.56-.07-6.25,2.31-8.68,4.68-.38.37.21,1,.59.59s1-1,1.48-1.4a9.39,9.39,0,0,0-.08,2.54c.06.53.89.54.84,0a8.81,8.81,0,0,1,.24-3.23.43.43,0,0,0,0-.16,8.55,8.55,0,0,1,6-2.17.35.35,0,0,0,.38-.28,16.86,16.86,0,0,1,4.46,5.66,45.6,45.6,0,0,1,4.06,14,8.87,8.87,0,0,1-4.44-2.67c-.36-.39-.95.2-.59.59a10,10,0,0,0,2,1.7,8.72,8.72,0,0,1-1.44-.1c-.52-.08-.75.72-.22.81a11.37,11.37,0,0,0,2.4.12.41.41,0,0,0,.35-.24,9.88,9.88,0,0,0,1.94.67h.08c.3,2.36.49,4.72.6,7,0,.53.85.54.83,0A71.76,71.76,0,0,0,167.91,154.61Z"/><path class="cls-7" d="M181.74,137.47c-.75.55-1.46,1.12-2.15,1.73a13.38,13.38,0,0,1,1.93-4.12c.31-.44-.42-.85-.72-.42a13.77,13.77,0,0,0-2.22,5.12.44.44,0,0,0,.06.32,26.88,26.88,0,0,0-4.72,6.17q-.34-4.31-.56-8.63c-.1-2-.26-4.33-.31-6.69a9.71,9.71,0,0,1,3.48-3.29c.49-.22.06-.94-.42-.72a8.8,8.8,0,0,0-3.08,2.67c0-1.11,0-2.22.08-3.33a.42.42,0,0,0,0-.38c.42-5.88,2.19-11.45,7.82-14.05.49-.22.07-.94-.42-.72a12.5,12.5,0,0,0-3.6,2.48,5.64,5.64,0,0,1,.39-2.36c.19-.5-.61-.72-.81-.23a6.31,6.31,0,0,0-.33,3.36s0,0,0,0c-2.39,2.86-3.39,6.69-3.75,10.65q-1.8-2.11-3.62-4.21a.34.34,0,0,0,.19-.35,6.16,6.16,0,0,0-1.12-3.23c-.3-.43-1,0-.72.42a5.5,5.5,0,0,1,1,2.34l-1.35-1.56c-.35-.41-.94.18-.59.59l6.18,7.17c-.09,1.46-.1,2.92-.08,4.35l-.06.08a.33.33,0,0,0,.07.48c0,1.41.08,2.78.13,4.07q.41,10,1.5,19.89a8.39,8.39,0,0,1-3.07-3.89c-.24-.48-1-.06-.72.42.86,1.72,1.84,3.51,3.67,4.35a.42.42,0,0,0,.22,0q.72,6.38,1.71,12.7c.08.53.89.31.8-.22q-1.62-10.4-2.5-20.89a.38.38,0,0,0,.19-.17,26.23,26.23,0,0,1,7.94-9.25C182.59,137.88,182.18,137.15,181.74,137.47Z"/><path class="cls-7" d="M195.54,138.13a10.17,10.17,0,0,0-4.81,1.11,16.42,16.42,0,0,1,2-1.82c.42-.33,0-1-.42-.72a17.87,17.87,0,0,0-3.64,3.73.44.44,0,0,0-.08.17,21.51,21.51,0,0,0-6.2,8.82,37.19,37.19,0,0,0-1.82,6,12.32,12.32,0,0,1-1-2.52,2.81,2.81,0,0,0-1.08-1.71c-.45-.29-.87.43-.42.72.68.42.83,1.64,1.08,2.34a7.36,7.36,0,0,0,.91,1.92.41.41,0,0,0,.33.18,153.6,153.6,0,0,0-1.78,15.32c-.05.54.79.53.84,0,.45-4.69.74-9.5,1.59-14.17a.36.36,0,0,0,.17-.11,24.64,24.64,0,0,1,5.2-4.7,5.9,5.9,0,0,0,2.07,1.24c.51.17.73-.63.23-.8a5,5,0,0,1-1.53-.86,9.42,9.42,0,0,1,1.73-.72.42.42,0,0,0-.22-.81,11.18,11.18,0,0,0-2.26,1,.39.39,0,0,0-.32.19,22.2,22.2,0,0,0-4.78,4.11c.28-1.31.6-2.61,1-3.89a27.1,27.1,0,0,1,3.86-7.89h0a16.18,16.18,0,0,1,2.91-.68c.53-.07.3-.87-.22-.8a15.77,15.77,0,0,0-1.84.37,10.89,10.89,0,0,1,8.49-4.21A.42.42,0,0,0,195.54,138.13Z"/><polygon class="cls-5" points="188.58 164.1 187.92 168.23 186.73 175.63 184.14 191.76 165.18 191.76 162.58 175.63 161.4 168.23 160.73 164.1 188.58 164.1"/><polygon class="cls-8" points="168.65 168.23 167.99 164.1 160.73 164.1 161.4 168.23 162.58 175.63 165.18 191.76 172.43 191.76 169.84 175.63 168.65 168.23"/><path class="cls-9" d="M181.92,190.43h-.08c-.49,0-.85-.3-.81-.61l3.26-24.54c0-.31.46-.54,1-.51s.85.3.81.61l-3.26,24.54C182.76,190.21,182.37,190.43,181.92,190.43Z"/><path class="cls-10" d="M106.85,168.08a7.81,7.81,0,0,1-7.8,7.81l-74,0a7.82,7.82,0,0,1-7.82-7.82l0-146a7.8,7.8,0,0,1,7.81-7.81H99A7.8,7.8,0,0,1,106.83,22Z"/><path class="cls-11" d="M17.11,6.7,71.88,7v7.11l-27.74,0-19.77.11a12.08,12.08,0,0,0-12,12.09l.26,137.55a12.05,12.05,0,0,0,12.09,12l47.51.1,0,14.94-54.77.51a12.07,12.07,0,0,1-12.09-12L5.07,18.79A12.06,12.06,0,0,1,17.11,6.7Z"/><path class="cls-12" d="M10,18.69l0,160.68a12.06,12.06,0,0,0,11.25,12c.27,0,.55,0,.82,0l84.23,0a7.81,7.81,0,0,0,7.81-7.81l0-169.18a7.82,7.82,0,0,0-7.82-7.82H22.05c-.28,0-.56,0-.83,0A12.06,12.06,0,0,0,10,18.69Zm7.26,3.36a7.81,7.81,0,0,1,7.81-7.82H99A7.81,7.81,0,0,1,106.83,22l0,146a7.82,7.82,0,0,1-7.81,7.82h-74a7.82,7.82,0,0,1-7.82-7.81Z"/><path class="cls-11" d="M52.18,187.3l20.08-.05a3.64,3.64,0,0,0,3.64-3.65h0A3.65,3.65,0,0,0,72.25,180l-20.08,0a3.65,3.65,0,0,0-3.64,3.66h0A3.65,3.65,0,0,0,52.18,187.3Z"/><rect class="cls-13" x="162.07" y="14.19" width="8.32" height="13.88" transform="translate(288.65 135.55) rotate(-144.18)"/><path class="cls-11" d="M167.48,12.78l3.88,2.85-.37.5-2-1.42-1.41-1a1,1,0,0,0-1.48.24l-6.52,9a1.07,1.07,0,0,0,.24,1.48l3.38,2.45L162.46,28l-3.92-2.79a1.06,1.06,0,0,1-.24-1.48L166,13A1.07,1.07,0,0,1,167.48,12.78Z"/><path class="cls-6" d="M166.34,13.27l-7.7,10.67a1.06,1.06,0,0,0,.18,1.43l.06.05,5.69,4.1a1.05,1.05,0,0,0,1.48-.23l7.7-10.68a1,1,0,0,0-.24-1.47L167.82,13l-.06,0A1,1,0,0,0,166.34,13.27Zm-1.49,14.78-4.66-3.37A1.07,1.07,0,0,1,160,23.2l6.52-9a1.07,1.07,0,0,1,1.48-.24l1.4,1-.08.24a.34.34,0,0,0,.12.41l1.18.85a.33.33,0,0,0,.42,0l.21-.15,1.41,1a1,1,0,0,1,.23,1.47l-6.51,9A1.07,1.07,0,0,1,164.85,28.05Z"/><path class="cls-11" d="M161.22,26.66l1.43,1a.33.33,0,0,0,.45-.07h0a.33.33,0,0,0-.07-.45l-1.43-1a.33.33,0,0,0-.45.07h0A.33.33,0,0,0,161.22,26.66Z"/><path class="cls-11" d="M170.63,15.88a.14.14,0,0,1,.2,0,.15.15,0,0,1-.17.24A.14.14,0,0,1,170.63,15.88Z"/><path class="cls-11" d="M169.72,15.4l.54.39a.15.15,0,0,0,.2,0h0a.15.15,0,0,0,0-.2l-.53-.38a.14.14,0,0,0-.2,0h0A.14.14,0,0,0,169.72,15.4Z"/><path class="cls-14" d="M138.59,108.57a20.41,20.41,0,0,1,5.67-10.32c1.84-1.56,7-1.4,9,2.86s2.84,6.84,2.26,14.51-6.94,33.89-6.95,39.65-12,5.13-11.34-3.11S137.19,115.05,138.59,108.57Z"/><path class="cls-11" d="M155.73,110.2a19.74,19.74,0,0,0-2.43-9.09,6.57,6.57,0,0,0-5.23-3.71l-.37,0h-.32a5.68,5.68,0,0,0-.93.05,4.74,4.74,0,0,0-1.11.26,3.45,3.45,0,0,0-.48.2l-.22.12a4.17,4.17,0,0,0-.38.27l-.24.22-.15.14-.05.06-.12.12-.06.06-.13.14-.06.06-.4.46-.07.07-.15.19-.07.09-.17.2-.06.09c-.16.2-.31.41-.47.63l-.07.09c-.05.09-.11.17-.17.26a1,1,0,0,0-.08.11c-.06.09-.12.17-.17.26l-.07.11c-.17.25-.33.52-.49.79a.75.75,0,0,1-.07.12c-.05.1-.11.2-.17.3l-.08.15-.17.31-.07.14c-.07.15-.15.3-.23.46h0c-.07.15-.15.31-.22.47a1,1,0,0,1-.07.15l-.15.35c0,.06-.05.12-.07.17l-.15.37-.06.15-.2.53h0l-.18.55a1.09,1.09,0,0,0-.05.17l-.12.39-.06.2-.11.41a1.21,1.21,0,0,1-.05.18c0,.2-.09.39-.13.59h0c0,.11,0,.23-.07.35a.5.5,0,0,1,0,.12c0,.09,0,.18,0,.27l0,.16a2.51,2.51,0,0,1,0,.27,1.1,1.1,0,0,1,0,.18c0,.09,0,.2,0,.3a1,1,0,0,1,0,.17c0,.12,0,.25,0,.37v.14c0,.36-.07.73-.11,1.13v.13c0,.16,0,.32,0,.49a.86.86,0,0,0,0,.16c0,.16,0,.33,0,.49a1,1,0,0,1,0,.17c0,.18,0,.35,0,.54a.57.57,0,0,1,0,.13l0,.69h0c0,.74-.07,1.53-.1,2.35v.06c0,.25,0,.51,0,.77v.06l0,.83h0c5.08,3.63,13.84,3.56,13.56,6.14-.13,1.17-3.83,26.06-4.27,27-.05.1.68,3.67,1.47,3.64a3.44,3.44,0,0,0,0-.46c0-5.66,6.17-31.13,6.92-39.26v0l0-.37c.09-1.2.15-2.27.17-3.25C155.75,111.59,155.75,110.87,155.73,110.2Z"/><path class="cls-14" d="M167.43,108.67A26.34,26.34,0,0,0,160,98.23c-2.11-1.6-7.2-1.54-8.53,2.7s-1.65,6.81.27,14.52,9.16,34,10.18,39.8,11.84,1.21,10.59-7.24C171.1,138.68,170,115.2,167.43,108.67Z"/><path class="cls-11" d="M155.6,120.09c2.68-.44,6.85-1.14,7.82-.85a4.91,4.91,0,0,1,3.6,4.57c0,2.51,4,26.72,3.95,26.83a17.46,17.46,0,0,0,1.6-1.49,9.09,9.09,0,0,0-.1-1.14c-1.37-9.33-2.5-32.81-5-39.34a27,27,0,0,0-7-10.1c-.16-.14-.31-.25-.43-.34-2.11-1.6-7.2-1.54-8.53,2.7s-1.65,6.81.27,14.52c.09.38.52,1.66.92,2.85A2.7,2.7,0,0,0,155.6,120.09Z"/><path class="cls-15" d="M144.65,71.41C140.92,69.3,130.33,58,129,54.91c-1.52-3.6.32-6.41,4.23-5.22,4.19,1.28,15.85,13,17.14,15C152.74,68.32,149.32,74.05,144.65,71.41Z"/><path class="cls-15" d="M135.55,54.07c.85-5.32-1.87-20.18-.29-23.09s4.42-5,2.76-6.93-3.93-2.09-6.34-1.83c-1.58.17-1.44,3-1,6.67s-2.46,17.4-2.54,22.81S135,57.67,135.55,54.07Z"/><path class="cls-16" d="M128.54,50.28c2.9,2.09,5,.87,8.16,0,.2.21.41.43.61.66,3.61,4.14,13.8,12.4,14.41,13.2,2.28,3,.42,10.81-7,7.45C137.92,68.54,130,59,127.86,54.16c-.81-1.83-1.46-4.07.19-4.6A2.14,2.14,0,0,0,128.54,50.28Z"/><path class="cls-11" d="M158.77,50.37c-1.72,3.5-6.52,2.15-6.52,2.15,1.28-2.6-.51-5.74.56-9.22s5-5.59,9.17-2.65C164.52,42.46,160.49,46.88,158.77,50.37Z"/><path class="cls-17" d="M160.54,60.28c2.71.35,7.66,1.58,9.13,4.16s.4,27.28-1.48,43.43c0,0-22.43,9.48-30.4-.7,0,0,5.55-41.61,8.73-45.47C149.17,58.48,157.83,59.93,160.54,60.28Z"/><path class="cls-18" d="M161.1,60.35s-9.47,13.17-10.58,14.25c0,0,.35-11.3.55-14.69Z"/><path class="cls-19" d="M159.36,54.78c.11-.5.2-.83.2-.83s-5.38-4.28-6.09.07Z"/><path class="cls-15" d="M153.6,63.1,152,60s1.69-1.13,1.46-4.11c-.55-7.26,6.14-1.93,6.14-1.93s-1.21,6,1,6.33Z"/><path class="cls-20" d="M153.64,61.68c3.76.48,3.58-4.23,3.76-5.12S159.56,54,159.56,54s-1.21,6,1,6.33L153.6,63.1l-1-1.83A2.06,2.06,0,0,0,153.64,61.68Z"/><path class="cls-15" d="M166,48.25l-3.12,8c-1.11,2.26-4.62,2.81-7,1.64h0a4.7,4.7,0,0,1-2.3-6.23l.09-.19a3,3,0,0,1-1.15-3.91c1.24-2.51,2.39-.67,2.39-.67l.52-1.08a2.51,2.51,0,0,1,3.35-1.13Z"/><path class="cls-20" d="M154.93,46.9l.57-1.17a2.39,2.39,0,0,1,3.2-1.09l1.22.6,0,.07L155.6,54a3.15,3.15,0,0,0,1.64,4.1,6,6,0,0,0,2,.37,6.07,6.07,0,0,1-3.34-.57,4.7,4.7,0,0,1-2.3-6.23l.09-.19a3,3,0,0,1-1.15-3.91C153.78,45.06,154.93,46.9,154.93,46.9Z"/><path class="cls-5" d="M159.38,58.89c-1.22,1.89-5.78,4.21-5.78,4.21s1.4-.29,2.74,1.52a3.11,3.11,0,0,0,1.46,1s2.9-2.22,3.3-5.31Z"/><path class="cls-5" d="M152.78,59.05a8.67,8.67,0,0,0,.82,4.05,1.85,1.85,0,0,0-2.3.59,1.52,1.52,0,0,1-1,.55,21.07,21.07,0,0,1,.77-4.46Z"/><path class="cls-11" d="M160.14,44.41A6,6,0,0,0,164,48.56c3.27,1.23,2.73,3,2.73,3s4.27-5,1.29-8.94-6.8-2.47-6.8-2.47Z"/><path class="cls-15" d="M174.87,50.68c-2.37-4.84-4.11-19.85-6.48-22.17s-5.68-3.45-4.66-5.82,3.15-3.15,5.52-3.6c1.57-.3,2.26,2.45,2.89,6.09s7.44,15.92,9.1,21.07S176.48,54,174.87,50.68Z"/><path class="cls-21" d="M172.24,72.23a5.77,5.77,0,0,1-2.52,1.86c-5.38,1.78-8.88-4.36-7.35-7.55.47-1,11.74-15.76,11.91-16,3.51.23,5.59,0,7.18-3.31l.06-.13a9.19,9.19,0,0,0,.36-.86c1.86.21,2.63,1.21,2.8,3.36C185.11,55.27,177.42,65.58,172.24,72.23Z"/><path class="cls-16" d="M184.68,49.57c-.17-2.15-.94-3.15-2.8-3.36-.08.23-.18.46-.28.69a3.54,3.54,0,0,1,1.23,2.83c.43,5.71-7.26,16-12.44,22.67a14,14,0,0,1-1.65,1.93c.71.06.17,0,1-.24a5.77,5.77,0,0,0,2.52-1.86C177.42,65.58,185.11,55.27,184.68,49.57Z"/><path class="cls-15" d="M177.37,187.78c-2.77-1-3.44-5.2-3.73-7.72l-4,1.46s1.6,4.3,1,7.23.24,2.65.24,2.65h12.68A26.18,26.18,0,0,0,177.37,187.78Z"/><path class="cls-14" d="M183.48,191.75H170.87s-.46.15-.65-.79a3.65,3.65,0,0,1,0-1.76c0-.24.05-.49.07-.75a7.33,7.33,0,0,0,3-.78c.51-1.41,2.34-2,2.81-1.32.75,1.29,2.33,1.58,3.42,2a5.5,5.5,0,0,1,3.55,2.66A4.16,4.16,0,0,1,183.48,191.75Z"/><path class="cls-14" d="M183.48,191.75H170.87s-.46.15-.65-.79h12.85A4.16,4.16,0,0,1,183.48,191.75Z"/><path class="cls-14" d="M171.78,146.92c3.66,3,2,24.47,3.83,38.76,0,0-4.23.94-6.78-.17,0,0-7-25.13-7-31C161.86,144.25,167.86,143.72,171.78,146.92Z"/><path class="cls-15" d="M135.57,188.06c2.78-.93,1.52-5.38,1.82-7.89l4,1.5s.34,4.5.94,7.43-.26,2.65-.26,2.65l-12.69-.12A26.4,26.4,0,0,1,135.57,188.06Z"/><path class="cls-14" d="M135.57,188.06c.85-.26,1-.82,1.55-1.62.33-.57,1.32.42,1.81,1.53,0,0,2.18.89,3.35.54,0,.2.05.4.09.59.61,2.94-.26,2.65-.26,2.65l-12.69-.12C130.07,189.23,132.89,188.89,135.57,188.06Z"/><path class="cls-14" d="M142.58,191c-.05.9-.47.76-.47.76l-12.69-.12a2.39,2.39,0,0,1,.32-.77Z"/><path class="cls-14" d="M138,151.38c-2.34,2.6-.9,20.43-1.56,33.32,0,0,4.27,1.25,6.71.14,0,0,6.75-24.81,5.28-29.93C146.51,148,141.19,147.9,138,151.38Z"/><path class="cls-11" d="M148.47,154.91a11.08,11.08,0,0,0-1.13-2.72c0,.33-4.65,22.24-5.19,33a4.37,4.37,0,0,0,.67-.17,3.17,3.17,0,0,0,.37-.15s2.15-8.1,3.9-16.38C148.26,162.67,149.09,157.06,148.47,154.91Z"/><path class="cls-11" d="M171.78,146.92a7.86,7.86,0,0,0-1.48-1c.49,2,2.4,10.13,2.27,16-.14,6.48,1.1,21.93,1.63,24,.84-.11,1.41-.23,1.41-.23C173.77,171.39,175.44,149.91,171.78,146.92Z"/><g class="cls-22"><path class="cls-6" d="M40.7,58.5c-5.73-3.16-8.86-10.92-7.19-19S41,25.51,47.49,24.8l.11-.57,3.6.73C59,26.57,63.71,35.65,61.74,45.25S51.85,61.34,44.05,59.74l-3.48-.62Z"/><path class="cls-23" d="M29.92,38.72c-2,9.6,2.86,18.8,10.65,20.4s15.6-5,17.58-14.6S55.4,25.83,47.6,24.23,31.89,29.11,29.92,38.72Z"/><path class="cls-6" d="M32.44,39.24C30.82,47.13,34.79,54.69,41.19,56S54,51.89,55.62,44,53.37,28.66,47,27.34,34.06,31.35,32.44,39.24Z"/><path class="cls-11" d="M42.68,34.35a5.21,5.21,0,0,1,1.31,0,3.92,3.92,0,0,1,1.21.4,3.66,3.66,0,0,1,1,.82A4.4,4.4,0,0,1,47,36.9l-1.56.36a3.13,3.13,0,0,0-1.06-1.08A2.48,2.48,0,0,0,43,35.87l1,4.36,1,.2c.34.06.67.15,1,.24A6.6,6.6,0,0,1,47,41a3.94,3.94,0,0,1,.78.49,3.13,3.13,0,0,1,.6.7,2.79,2.79,0,0,1,.37.93,3.38,3.38,0,0,1,0,1.61,3.48,3.48,0,0,1-.62,1.3,4.14,4.14,0,0,1-1.06,1,6.32,6.32,0,0,1-1.3.65l.5,2.18-1.58.36L44.15,48a4.08,4.08,0,0,1-1.43-.23,4.9,4.9,0,0,1-1.32-.69A5.91,5.91,0,0,1,40.3,46a6.08,6.08,0,0,1-.81-1.43l1.66-.38a6.06,6.06,0,0,0,.48.87,4.12,4.12,0,0,0,.62.69,2.8,2.8,0,0,0,.73.46,2.31,2.31,0,0,0,.81.21L42.7,41.69c-.48-.1-1-.2-1.4-.32a5.91,5.91,0,0,1-1.26-.5,3.67,3.67,0,0,1-1-.8,3,3,0,0,1-.58-1.24,2.81,2.81,0,0,1,0-1.29,3.37,3.37,0,0,1,.5-1.17,4.13,4.13,0,0,1,.91-1,4.64,4.64,0,0,1,1.23-.69l-.33-1.4L42.36,33Zm-2.58,4a1.5,1.5,0,0,0,.27.6,1.84,1.84,0,0,0,.48.44,3.11,3.11,0,0,0,.66.32,5.79,5.79,0,0,0,.8.23l-.86-3.73a2.29,2.29,0,0,0-1.16.92A1.59,1.59,0,0,0,40.1,38.4Zm7,5.15a1.19,1.19,0,0,0-.33-.6,2.23,2.23,0,0,0-.61-.44,3.82,3.82,0,0,0-.8-.32,9.32,9.32,0,0,0-.91-.23l1,4.2a3.08,3.08,0,0,0,.84-.46,2.4,2.4,0,0,0,.57-.63,2,2,0,0,0,.27-1.52Z"/><path class="cls-5" d="M131.38,88l-2.86,23.79-4.08,33.94-.14,1.18a3.14,3.14,0,0,1-3.49,2.74l-4.62-.56L100.9,147.2l-8.16-1-4.9-.59L18.3,137.27a3.14,3.14,0,0,1-2.74-3.49l7.09-58.9a3.13,3.13,0,0,1,3.48-2.75l.89.11,4.9.59,8.57,1,21.17,2.55,4.9.59,8.16,1,.9.1,17.2,2.07,35.82,4.31A3.14,3.14,0,0,1,131.38,88Z"/><rect class="cls-24" x="19.95" y="93.23" width="109.52" height="14.67" transform="translate(12.61 -8.24) rotate(6.9)"/><path class="cls-25" d="M9.36,75.94,21.19,96.79l16.87,29.73.58,1a3.13,3.13,0,0,0,4.27,1.18L47,126.44l13.39-7.6,7.15-4.06,4.29-2.43,60.92-34.57a3.15,3.15,0,0,0,1.19-4.28L104.61,21.9a3.13,3.13,0,0,0-4.27-1.18l-.78.44-4.29,2.43-7.51,4.26L69.21,38.38l-4.28,2.44-7.16,4-.79.45L41.92,53.87,10.54,71.67A3.14,3.14,0,0,0,9.36,75.94Z"/><path class="cls-26" d="M89.38,63.94a20.77,20.77,0,1,1-28.3-7.81A20.76,20.76,0,0,1,89.38,63.94Z"/><g class="cls-27"><path class="cls-5" d="M86.63,71.33a5.41,5.41,0,0,0-1,0,1.09,1.09,0,0,0-.58.63,5.25,5.25,0,0,0-.25.55,2.75,2.75,0,0,0,.05-.34c0-.33-.1-.69-.07-1a1.37,1.37,0,0,1,.29-.85.84.84,0,0,1,1.31-.12,1.15,1.15,0,0,1,.23.62C86.65,71,86.62,71.16,86.63,71.33Z"/><path class="cls-5" d="M90.9,66c0,.32-.16.46-.31.7-.52.9-.16,1.3.16,2.11a3,3,0,0,1-.27,2.53c-.17.37-.72,1.12-.65,1.48.15.79,1,.23,1.47.23,1,0,1.25.68,1.4,1.5.3,1.62.53,3.3.69,4.94a3.39,3.39,0,0,1,0,1.52c-.32.77-1.17.64-1.17,1.78s1.49,2.23,1,3.5c-.4,1.08-2.26.63-3.12.63a.17.17,0,0,1-.13-.05,4.66,4.66,0,0,0-2.25.45c-.69.39-.86,1.11-1.34,1.67a1.59,1.59,0,0,1-2,.41c-.18-.08-.36-.32-.53-.39a2.48,2.48,0,0,0-1.91.39,1.73,1.73,0,0,1-.95.41,1.05,1.05,0,0,1-.66-.22c-.19-.16-.22-.42-.36-.61a1.55,1.55,0,0,0-1.74-.62.21.21,0,0,1-.26-.16,1.63,1.63,0,0,1,.08-.74c.42-.26.86-.46,1.28-.74a.38.38,0,0,0,.14-.51c-.37-.52-.55-.46-1.15-.57l-.63.07A1,1,0,0,1,77,85a1.54,1.54,0,0,1-.25-.32c1.5-1.08,4.23-1.27,5.06-3.06.14-.3.12-.68.26-1,.89-1.78.74-.61,1.58-1.22A2.91,2.91,0,0,0,85,77.83a4.71,4.71,0,0,0,.15-2.32c-.05-.52,0-2.69.55-3.19s2.15.62,2-1.17a.33.33,0,0,0-.08-.21,2.36,2.36,0,0,1,.22-1,5.91,5.91,0,0,0,.54-1,2,2,0,0,0-.42-1.5,5.55,5.55,0,0,1-1.17-3c0-.57.18-1.8,1-1.83a.67.67,0,0,1,.44.17l.18.28a1.08,1.08,0,0,0,.66.45,3.13,3.13,0,0,1,.3.2c.27.25.3.59.46.89.64,1.2.47.42.86,1A.91.91,0,0,1,90.9,66Z"/><path class="cls-5" d="M76.93,91.24a4.93,4.93,0,0,0-1.69-.91c-.18-.08-.8-.28-.87-.49s.35-.74.6-.78a2.53,2.53,0,0,1,.9.15,3.23,3.23,0,0,0,.47.15,6.7,6.7,0,0,1,1.41.16c.27.12.33.26.5.5s.28.76.59,1c.1.08.44.16.61.26A1,1,0,0,1,80,92.67a1.22,1.22,0,0,1-.93.7,2.94,2.94,0,0,1-1.2-.66A8.81,8.81,0,0,0,76.93,91.24Z"/><path class="cls-5" d="M70.24,88.88a10.54,10.54,0,0,1-1.1,1.22c-.46.49-2,1.61-1,2.17a.9.9,0,0,0,.63.52,1.39,1.39,0,0,0,1-.15l.11,0a3.19,3.19,0,0,1,1.57-.34c.21,0,.42.14.64.19s.39,0,.59.18.2.23.34.33a4.33,4.33,0,0,1,.69.39c.22.26.34.58,0,.74-.21,0-.41,0-.61.06l-.7-.13h-.07a1.34,1.34,0,0,1-.23-.13c-.42-.3-.69-.54-1.21-.45a1.44,1.44,0,0,0-.57-.2.89.89,0,0,0-.83.42c-.1.16-.07.32-.22.46a4.32,4.32,0,0,1-.43.22c-.38.26-.84.79-.65,1.29a.7.7,0,0,0,.28.33,4.68,4.68,0,0,0,1.26.84.18.18,0,0,1,.06.29.84.84,0,0,1,0,1c-.45.65-1.47.51-2.14.45a12.78,12.78,0,0,1-5.63-2.16,25.44,25.44,0,0,0-3-1.56,7.2,7.2,0,0,1-2.37-1.51,3.48,3.48,0,0,1-.88-1.85,2.79,2.79,0,0,1,0-.58A11.46,11.46,0,0,1,57.05,89a2.6,2.6,0,0,0,.77-1.47c.08-1.18-1.09-1.94-2.12-2.3A4.92,4.92,0,0,1,55,83.87,8.87,8.87,0,0,1,55,82.41a4.9,4.9,0,0,0,.12-2c-.22-.74-.85-.89-1.42-1.25A1.3,1.3,0,0,1,53,77.52c.24-.77-.18-1.37,0-2.15a9.88,9.88,0,0,1,.39-1.16A2.2,2.2,0,0,0,52.86,72c-1-1.11-2.57-2.49-1.38-4.07.66-.87,2.36-1.12,2.88,0,.15.32.13.56.32.9a2.2,2.2,0,0,0,1,.92c.45.24,1,.39,1.43.61a2.59,2.59,0,0,1,1.64,1.94c.15.73.11,1.36.76,1.89a8,8,0,0,0,1.45.69c.59.31,1.79,1,2,1.75s-.62,1.38-1,1.79a6.45,6.45,0,0,1-.81.76,6.36,6.36,0,0,0-1,.69c-.25.31-.19.83-.22,1.2a7.1,7.1,0,0,1-.69,2.24,2.33,2.33,0,0,1-.61.87c-.12.11-.36.2-.47.31-.84.93-.19.85.27,1.31s.41.93.23,1.64-.32,1.19-.48,1.78l0,.2c-.25.55,0,.92.89,1.1.24-.19.16-.93.17-1.2a2,2,0,0,1,.58-1.55,10.83,10.83,0,0,0,.83-1.17.92.92,0,0,1,.73-.41c.79-.09,1.24.58,1.89.87a3.77,3.77,0,0,0,2.37,0c.52-.13,1-.62,1.54-.68a1.1,1.1,0,0,1,.66.25c.64.37,1.28.76,1.91,1.15S70.61,88.29,70.24,88.88Z"/><path class="cls-5" d="M82.16,74.34a2.15,2.15,0,0,1-.31,2.41,20.67,20.67,0,0,1-2.57,2.88,9.14,9.14,0,0,1-1.33.9,2.23,2.23,0,0,0-.9,1.19,3.82,3.82,0,0,1-.14.56,1,1,0,0,1-.64.58,8.11,8.11,0,0,0-1.09.3c-.32.15-.59.38-.91.52a1.59,1.59,0,0,1-1.57-.06,1.67,1.67,0,0,1-2.35-.05,3.23,3.23,0,0,1-.8-3.31,3.89,3.89,0,0,0,.14-.83,1.55,1.55,0,0,0-.58-.92c-.13-.26-.22-.3-.25-.6a1.25,1.25,0,0,1,.41-1c.56-.53,1.11-.24,1.74-.35a1.9,1.9,0,0,0,.36-.09,1.79,1.79,0,0,0,1.16-.25,2,2,0,0,0,.89-2.43,15.43,15.43,0,0,0-1-3.13c-.34-.71-1.1-.77-1.74-1a2.17,2.17,0,0,0-.38-.43,1,1,0,0,1-.21-.21.7.7,0,0,1-.07-.41c0-.39.24-.67.22-1.1a2.13,2.13,0,0,0-1-1.65c-.3-.23-.62-.43-.63-.85,0-1,1.64-.78,2.25-.61a4.12,4.12,0,0,1,1.69.92c.78.73,1.1,1.67,2.24,2a.22.22,0,0,1,.13.31c-.4.93,1.15,1.2,1.7,1.44a5.08,5.08,0,0,1,1.44.93,3.06,3.06,0,0,1,.8,1.2c.23.63,0,1.67.52,2.11C80.2,74,81.49,73.34,82.16,74.34Z"/><path class="cls-5" d="M77.14,65.1C77,65,76.83,65,76.65,65c-.45-.1-.41-.22-.68-.53a1.22,1.22,0,0,0-1.06-.4c-1,.2-.38,1.49.14,1.87.27.2.52.17.8.31s.25.33.36.63a1.48,1.48,0,0,0,1.07.8h0l.09.07a.21.21,0,0,0,.25,0l.06,0a.23.23,0,0,0,.19-.31,2.82,2.82,0,0,0-.14-.69C77.62,66.28,77.57,65.39,77.14,65.1Z"/><path class="cls-5" d="M85,56.13a7.23,7.23,0,0,1-3.71-1.39c-1-.55-2-.38-3-.85-1.9-.89-3.66-1.24-5.63-.29a.21.21,0,0,0-.08.29c.34.66.92.72,1.61.66a3.5,3.5,0,0,1,2.3.43,1.24,1.24,0,0,1,.44,1.71c-.17.48-.25,1,.19,1.34.71.58,1.77.06,1.48,1.45-.42,1.91,1.86,1,3,1.15.61.06,1.8.61,2.42.22a.69.69,0,0,0,.33-.84c1.4-.52,1.16-2.25.77-3.45a.05.05,0,0,0,0,0A.22.22,0,0,0,85,56.13Z"/><path class="cls-5" d="M69.58,52.37c-.61-.75-2.37.11-3.06.29a48.7,48.7,0,0,0-5.2,1.57c-.83.31-7,2.91-5.57,4.2a.22.22,0,0,0,.11,0,3.08,3.08,0,0,0,0,1.65,2,2,0,0,0,.43.61,2.37,2.37,0,0,1,.56.62c.08.16,0,.36.12.53.48,1,1.27.13,1.65-.41a9.3,9.3,0,0,1,1.9-1.91c.86-.66,1.68-.5,2.66-.68a2.34,2.34,0,0,0,1.84-2.2,1.59,1.59,0,0,1,1.07-1.5c.25-.08.56,0,.83-.08.62-.18,1-.75,1.56-1.06S70.24,53.18,69.58,52.37Z"/></g><rect class="cls-28" x="91.08" y="78.26" width="34.95" height="2.84" transform="translate(-25.18 63.95) rotate(-29.57)"/><rect class="cls-29" x="87.55" y="72.04" width="34.95" height="2.84" transform="translate(-22.57 61.39) rotate(-29.57)"/><polygon class="cls-30" points="44.38 52.47 46.5 113.28 46.96 126.44 60.35 118.84 59.39 91.19 59.24 86.92 58.23 58.07 57.77 44.87 56.98 45.32 44.38 52.47"/><polygon class="cls-30" points="64.92 40.81 65.39 54.28 66.04 72.83 66.79 94.45 67.5 114.78 71.79 112.34 71.18 94.96 70.12 64.38 69.74 53.48 69.21 38.38 64.92 40.81"/><polygon class="cls-30" points="99.56 21.15 95.27 23.59 97.85 97.55 102.14 95.11 99.56 21.15"/><path class="cls-31" d="M96.31,30,79.84,39.36a2,2,0,0,0-.75,2.75l5.37,9.47a2,2,0,0,0,2.75.76L103.67,43a2,2,0,0,0,.76-2.75l-5.37-9.47A2,2,0,0,0,96.31,30Z"/></g><path class="cls-32" d="M55.18,136.17A43.92,43.92,0,0,0,37.27,140,4.91,4.91,0,0,0,35,146.9h0a4.93,4.93,0,0,0,6.28,2,34.32,34.32,0,0,1,27.75,0,4.93,4.93,0,0,0,6.28-2h0A4.91,4.91,0,0,0,73.09,140,43.88,43.88,0,0,0,55.18,136.17Z"/><path class="cls-33" d="M55.18,114.58A69.88,69.88,0,0,0,24,121.84,4.91,4.91,0,0,0,22,128.69l0,0a4.9,4.9,0,0,0,6.4,2,60.28,60.28,0,0,1,53.62,0,4.9,4.9,0,0,0,6.4-2l0,0a4.9,4.9,0,0,0-2.07-6.85A69.85,69.85,0,0,0,55.18,114.58Z"/><path class="cls-34" d="M61.64,160.3a6.46,6.46,0,1,1-6.46-6.45A6.46,6.46,0,0,1,61.64,160.3Z"/><path class="cls-35" d="M113.4,191.1a.83.83,0,0,1-.83.83l-5.95,0L78.93,192a.83.83,0,0,1-.83-.83v-3a.83.83,0,0,1,.83-.83H81.8l24.73-.08h6a1.06,1.06,0,0,1,.31.05.85.85,0,0,1,.52.78Z"/><path class="cls-16" d="M78.93,192.18a1,1,0,0,1-1-1v-3a1,1,0,0,1,1-1l33.64-.1a.92.92,0,0,1,.36.07,1,1,0,0,1,.62.91v3a1,1,0,0,1-1,1Zm33.63-4.78-33.64.11a.68.68,0,0,0-.68.68v3a.68.68,0,0,0,.68.68l33.64-.1a.7.7,0,0,0,.69-.69v-3a.71.71,0,0,0-.44-.64A.74.74,0,0,0,112.56,187.4Z"/><path class="cls-36" d="M116.58,186.47a.84.84,0,0,1-.83.84h-2.88l-6.23,0-24.53.07a.78.78,0,0,1-.31-.06.82.82,0,0,1-.52-.77v-3a.83.83,0,0,1,.83-.83l22.35-.07,11.29,0a.83.83,0,0,1,.83.83Z"/><path class="cls-16" d="M82.11,187.56a.94.94,0,0,1-.37-.07,1,1,0,0,1-.61-.91v-3a1,1,0,0,1,1-1l33.64-.1a.91.91,0,0,1,.69.28.94.94,0,0,1,.29.69v3a1,1,0,0,1-1,1Zm33.64-4.78h0l-33.64.1a.68.68,0,0,0-.48.21.67.67,0,0,0-.2.48v3a.66.66,0,0,0,.42.63.58.58,0,0,0,.26.06l33.64-.11a.7.7,0,0,0,.69-.69l0-3a.67.67,0,0,0-.2-.48A.65.65,0,0,0,115.75,182.78Z"/><path class="cls-37" d="M114.35,181.8a.82.82,0,0,1-.83.83l-9.08,0h0l-24.55.08a.84.84,0,0,1-.84-.83v-3a.83.83,0,0,1,.57-.79.75.75,0,0,1,.26-.05L99.75,178l11.58,0h2.18a.84.84,0,0,1,.84.83Z"/><path class="cls-16" d="M79.89,182.88a1,1,0,0,1-1-1v-3a1,1,0,0,1,.67-.93.85.85,0,0,1,.31-.06l33.64-.1a1,1,0,0,1,1,1v3a1,1,0,0,1-.28.69,1,1,0,0,1-.69.29Zm33.62-4.78-33.64.11a.6.6,0,0,0-.22,0,.67.67,0,0,0-.46.64v3a.69.69,0,0,0,.69.68l24.51-.07.07,0,0,0,9,0a.7.7,0,0,0,.69-.69v-3A.69.69,0,0,0,113.51,178.1Z"/><path class="cls-38" d="M111.89,177.17a.82.82,0,0,1-.56.79.86.86,0,0,1-.27,0l-11.24,0-20.21.07H77.42a.83.83,0,0,1-.83-.83v-3a.83.83,0,0,1,.83-.83l4.52,0,20.39-.06h0l8.72,0a.57.57,0,0,1,.18,0,.82.82,0,0,1,.65.8Z"/><path class="cls-16" d="M77.42,178.26a1,1,0,0,1-1-1v-3a1,1,0,0,1,1-1l25.06-.08h0l8.58,0,.22,0a1,1,0,0,1,.76.95v3a1,1,0,0,1-.66.92.87.87,0,0,1-.32.06Zm24.87-4.75-24.88.07a.69.69,0,0,0-.69.69v3a.69.69,0,0,0,.69.69l33.64-.11a.54.54,0,0,0,.22,0,.67.67,0,0,0,.46-.64v-3a.68.68,0,0,0-.53-.66l-.15,0-8.66,0,0,0Z"/><path class="cls-39" d="M116.58,172.51a.83.83,0,0,1-.83.83l-4.52,0-8.86,0-20.26.06a.55.55,0,0,1-.18,0,.82.82,0,0,1-.65-.8v-3a.82.82,0,0,1,.63-.8.69.69,0,0,1,.2,0l19.19-.06,14.45,0,.21,0a.84.84,0,0,1,.62.81Z"/><path class="cls-16" d="M82.11,173.59l-.22,0a1,1,0,0,1-.76-.95v-3a1,1,0,0,1,.75-.95.75.75,0,0,1,.23,0l33.64-.1a1,1,0,0,1,.25,0,1,1,0,0,1,.73.95v3a1,1,0,0,1-1,1Zm33.63-4.77-33.64.1-.15,0a.67.67,0,0,0-.53.66v3a.68.68,0,0,0,.53.66l.15,0,33.64-.11a.69.69,0,0,0,.69-.68l0-3a.67.67,0,0,0-.51-.66A.47.47,0,0,0,115.74,168.82Z"/><path class="cls-40" d="M115.61,158.55a.83.83,0,0,1-.74.83h-.09l-16.27.05-12.79,0H81.14a.84.84,0,0,1-.84-.83v-3a.82.82,0,0,1,.83-.83h2.38l17.51-.06,13.74,0,.17,0a.83.83,0,0,1,.67.81Z"/><path class="cls-16" d="M81.13,159.64a1,1,0,0,1-1-1v-3a1,1,0,0,1,1-1l33.63-.11.2,0a1,1,0,0,1,.79,1v3a1,1,0,0,1-.88,1h-.1l-33.64.11Zm33.63-4.78-33.63.1a.69.69,0,0,0-.49.21.67.67,0,0,0-.2.48v3a.68.68,0,0,0,.68.68h0l33.64-.1h.06a.7.7,0,0,0,.62-.68v-3a.69.69,0,0,0-.55-.67Z"/><path class="cls-41" d="M116.58,167.89a.81.81,0,0,1-.63.8.64.64,0,0,1-.2,0l-14.36,0-19.28.06a.75.75,0,0,1-.21,0,.85.85,0,0,1-.62-.81v-3a.83.83,0,0,1,.83-.83h3.59l11.51,0,18.54-.06h.13a.84.84,0,0,1,.7.82Z"/><path class="cls-16" d="M82.11,169a1,1,0,0,1-1-1v-3a1,1,0,0,1,.29-.69.94.94,0,0,1,.69-.29l33.64-.1h.15a1,1,0,0,1,.83,1v3a1,1,0,0,1-.74,1,.88.88,0,0,1-.24,0Zm33.63-4.78-33.64.11a.66.66,0,0,0-.48.2.67.67,0,0,0-.2.48v3a.68.68,0,0,0,.51.66.47.47,0,0,0,.17,0l33.64-.1a.41.41,0,0,0,.16,0,.69.69,0,0,0,.53-.66l0-3a.68.68,0,0,0-.58-.67Z"/><path class="cls-42" d="M120.29,163.21a.83.83,0,0,1-.83.83h-3.59l-18.65.06-11.4,0h-.13a.85.85,0,0,1-.71-.82v-3a.82.82,0,0,1,.74-.83h.09l12.7,0,16.35-.05h4.58a.84.84,0,0,1,.84.83Z"/><path class="cls-16" d="M85.82,164.3l-.15,0a1,1,0,0,1-.83-1v-3a1,1,0,0,1,.87-1h.11l33.63-.1a1,1,0,0,1,.7.29,1,1,0,0,1,.29.69v3a1,1,0,0,1-1,1Zm0-4.68h-.05a.7.7,0,0,0-.62.68v3a.7.7,0,0,0,.59.67h.1l33.64-.1a.68.68,0,0,0,.48-.21.67.67,0,0,0,.2-.48v-3a.7.7,0,0,0-.2-.49.71.71,0,0,0-.48-.19l-33.64.1Z"/><path class="cls-43" d="M116.57,183.46v3a.84.84,0,0,1-.83.84h-2.88a.85.85,0,0,1,.52.78v3a.83.83,0,0,1-.83.83l-5.95,0a.87.87,0,0,1-.45-.73v-3a.82.82,0,0,1,.63-.81l-.16-.06-.11-.07a.86.86,0,0,1-.36-.68v-3a.83.83,0,0,1,.56-.79h-1.82a.88.88,0,0,1-.46-.13l11.29,0A.83.83,0,0,1,116.57,183.46Z"/><path class="cls-43" d="M101.63,168.83h0Z"/><path class="cls-43" d="M116.58,172.51a.83.83,0,0,1-.83.83l-4.52,0a.82.82,0,0,1,.65.8v3a.84.84,0,0,1-.56.79h2.18a.84.84,0,0,1,.84.83v3a.84.84,0,0,1-.84.83l-9.08,0h0a.81.81,0,0,1-.37-.69v-3a.84.84,0,0,1,.78-.83h-4.62a.79.79,0,0,1-.4-.1l-.06,0a.83.83,0,0,1-.37-.68v-3a.83.83,0,0,1,.83-.83h2.38a.53.53,0,0,1-.22-.08l0,0h0a.85.85,0,0,1-.41-.71v-3a.83.83,0,0,1,.62-.81h13.7a.81.81,0,0,1,.34.67Z"/><path class="cls-43" d="M97.46,177.47c-1.56,7.58-6.83,13.22-12.81,14.47h0a11.92,11.92,0,0,1-4.87,0h0l-1.42-.25a.84.84,0,0,1-.23-.57v-3a.83.83,0,0,1,.83-.83H81.8a.83.83,0,0,1-.52-.77v-3a.83.83,0,0,1,.49-.76H79.89a.82.82,0,0,1-.84-.82v-3a.83.83,0,0,1,.57-.79H77.42a.83.83,0,0,1-.83-.83v-3a.83.83,0,0,1,.83-.83l4.52,0a.82.82,0,0,1-.65-.8v-3a.82.82,0,0,1,.64-.81.85.85,0,0,1-.63-.81v-3a.83.83,0,0,1,.83-.83h3.61a.85.85,0,0,1-.73-.82v-3a.81.81,0,0,1,.78-.83H81.14a.84.84,0,0,1-.84-.83v-2.45a11.88,11.88,0,0,1,3,.23l3.59.74C94.71,158.78,99.43,167.86,97.46,177.47Z"/><path class="cls-44" d="M73.43,191c-5.73-3.16-8.86-10.92-7.19-19.05s7.52-13.94,14-14.66l.12-.57,3.59.74c7.79,1.6,12.51,10.69,10.54,20.29s-9.89,16.09-17.69,14.49l-3.48-.62Z"/><path class="cls-16" d="M62.65,171.24c-2,9.61,2.86,18.81,10.65,20.41s15.6-5,17.58-14.61-2.75-18.68-10.54-20.29S64.62,161.64,62.65,171.24Z"/><path class="cls-45" d="M65.17,171.77c-1.62,7.89,2.35,15.45,8.75,16.76s12.81-4.11,14.43-12-2.25-15.35-8.65-16.66S66.79,163.88,65.17,171.77Z"/><path class="cls-16" d="M75.86,188.87a9.34,9.34,0,0,1-2-.2,11,11,0,0,1-7.49-6,17.15,17.15,0,0,1,4.15-20.43,10.92,10.92,0,0,1,9.17-2.53c6.48,1.33,10.41,8.89,8.78,16.84A16.77,16.77,0,0,1,83,186.1,11.18,11.18,0,0,1,75.86,188.87ZM65.31,171.8a16.24,16.24,0,0,0,1.36,10.75A10.71,10.71,0,0,0,74,188.38a10.46,10.46,0,0,0,8.89-2.51,16.51,16.51,0,0,0,5.37-9.37c1.6-7.79-2.23-15.19-8.54-16.49a10.65,10.65,0,0,0-8.94,2.47,16.23,16.23,0,0,0-5.42,9.32Z"/><path class="cls-16" d="M75.41,166.88a5.21,5.21,0,0,1,1.31,0,3.94,3.94,0,0,1,1.21.41,3.66,3.66,0,0,1,1,.82,4.27,4.27,0,0,1,.79,1.28l-1.56.36a3.13,3.13,0,0,0-1.06-1.08,2.48,2.48,0,0,0-1.38-.31l1,4.36,1,.2c.34.06.67.15,1,.24a6.6,6.6,0,0,1,.91.35,3.94,3.94,0,0,1,.78.49,3.13,3.13,0,0,1,.6.7,2.79,2.79,0,0,1,.37.93,3.38,3.38,0,0,1,0,1.61,3.48,3.48,0,0,1-.62,1.3,4.14,4.14,0,0,1-1.06,1,6.32,6.32,0,0,1-1.3.65l.5,2.18-1.58.36-.51-2.22a4.1,4.1,0,0,1-1.44-.23,4.7,4.7,0,0,1-1.31-.69A5.45,5.45,0,0,1,73,178.52a5.82,5.82,0,0,1-.81-1.42l1.66-.39a5.15,5.15,0,0,0,.48.87,3.8,3.8,0,0,0,.62.69,2.6,2.6,0,0,0,.73.47,2.31,2.31,0,0,0,.81.21l-1.09-4.73c-.48-.1-1-.2-1.4-.33a5.42,5.42,0,0,1-1.26-.49,3.67,3.67,0,0,1-1-.8,3,3,0,0,1-.58-1.24,2.81,2.81,0,0,1,0-1.29,3.37,3.37,0,0,1,.5-1.17,4.13,4.13,0,0,1,.91-1,5,5,0,0,1,1.23-.7l-.32-1.39,1.58-.37Zm-2.58,4.05a1.5,1.5,0,0,0,.27.6,1.84,1.84,0,0,0,.48.44,3.11,3.11,0,0,0,.66.32,7.63,7.63,0,0,0,.8.23l-.86-3.73a2.29,2.29,0,0,0-1.16.92A1.59,1.59,0,0,0,72.83,170.93Zm7,5.15a1.19,1.19,0,0,0-.33-.6,2,2,0,0,0-.61-.44,3.82,3.82,0,0,0-.8-.32,9.32,9.32,0,0,0-.91-.23l1,4.2a3.1,3.1,0,0,0,.84-.47,2.8,2.8,0,0,0,.58-.62,2.09,2.09,0,0,0,.28-.74A1.87,1.87,0,0,0,79.81,176.08Z"/><path class="cls-46" d="M144.43,191.94l-33.64.11a.84.84,0,0,1-.84-.83v-3a.84.84,0,0,1,.83-.84l33.64-.1a.84.84,0,0,1,.84.83v3A.83.83,0,0,1,144.43,191.94Z"/><path class="cls-16" d="M110.78,192.19a1,1,0,0,1-1-1v-3a1,1,0,0,1,.28-.7,1,1,0,0,1,.69-.29l33.64-.1h0a1,1,0,0,1,1,1v3a1,1,0,0,1-1,1l-33.64.1Zm33.63-4.77h0l-33.64.1a.68.68,0,0,0-.68.69v3a.68.68,0,0,0,.68.68h0l33.64-.1a.7.7,0,0,0,.68-.69v-3A.68.68,0,0,0,144.41,187.42Z"/><path class="cls-47" d="M137.64,178l-33.64.1a.83.83,0,0,1-.83-.83v-3a.83.83,0,0,1,.83-.83l33.64-.11a.83.83,0,0,1,.83.83v3A.84.84,0,0,1,137.64,178Z"/><path class="cls-16" d="M104,178.24a1,1,0,0,1-1-1v-3a1,1,0,0,1,1-1l33.64-.1h0a1,1,0,0,1,.69.28.94.94,0,0,1,.29.69v3a1,1,0,0,1-.29.7,1,1,0,0,1-.69.29l-33.64.1Zm33.63-4.78h0l-33.64.1a.69.69,0,0,0-.48.21.67.67,0,0,0-.2.48v3a.7.7,0,0,0,.2.49.71.71,0,0,0,.48.19h0l33.64-.1a.7.7,0,0,0,.49-.2.71.71,0,0,0,.19-.49v-3a.68.68,0,0,0-.68-.68Z"/><path class="cls-48" d="M140.17,173.32l-33.64.11a.84.84,0,0,1-.84-.83v-3a.83.83,0,0,1,.83-.83l33.64-.1a.84.84,0,0,1,.84.83v3A.83.83,0,0,1,140.17,173.32Z"/><path class="cls-16" d="M106.52,173.57a1,1,0,0,1-1-1v-3a1,1,0,0,1,.29-.69.94.94,0,0,1,.69-.29l33.64-.1h0a1,1,0,0,1,1,1v3a1,1,0,0,1-.28.69,1,1,0,0,1-.69.29l-33.64.1Zm33.63-4.78h0l-33.64.11a.68.68,0,0,0-.68.68v3a.68.68,0,0,0,.68.68h0l33.64-.11a.68.68,0,0,0,.68-.68v-3a.68.68,0,0,0-.69-.69Z"/><path class="cls-49" d="M144.43,187.32l-33.64.1a.83.83,0,0,1-.84-.82v-3a.83.83,0,0,1,.83-.83l33.64-.1a.83.83,0,0,1,.84.82v3A.83.83,0,0,1,144.43,187.32Z"/><path class="cls-16" d="M110.78,187.57a1,1,0,0,1-1-1v-3a1,1,0,0,1,1-1l33.64-.1a1,1,0,0,1,.7.28,1,1,0,0,1,.28.69v3a1,1,0,0,1-.28.69,1,1,0,0,1-.69.29l-33.64.1Zm33.64-4.78h0l-33.64.11a.68.68,0,0,0-.68.68v3a.68.68,0,0,0,.68.69h0l33.64-.11a.68.68,0,0,0,.68-.68v-3a.68.68,0,0,0-.68-.69Z"/><path class="cls-50" d="M142.32,182.65l-33.64.1a.83.83,0,0,1-.83-.83v-3a.84.84,0,0,1,.83-.84l33.64-.1a.83.83,0,0,1,.83.83v3A.84.84,0,0,1,142.32,182.65Z"/><path class="cls-16" d="M108.68,182.9a1,1,0,0,1-1-1v-3a1,1,0,0,1,1-1l33.64-.11h0a1,1,0,0,1,1,1v3a1,1,0,0,1-1,1l-33.64.11Zm33.63-4.78h0l-33.64.1a.68.68,0,0,0-.68.69v3a.67.67,0,0,0,.68.68h0l33.64-.1a.69.69,0,0,0,.69-.69v-3A.69.69,0,0,0,142.31,178.12Z"/></g></g></svg>