<svg width="623" height="465" viewBox="0 0 623 465" fill="none" xmlns="http://www.w3.org/2000/svg">
<path d="M622.956 407.911H0V408.223H622.956V407.911Z" fill="#EBEBEB"/>
<path d="M560.536 427.958H519.271V428.27H560.536V427.958Z" fill="#EBEBEB"/>
<path d="M412.671 431.347H401.844V431.658H412.671V431.347Z" fill="#EBEBEB"/>
<path d="M518.025 416.396H494.116V416.708H518.025V416.396Z" fill="#EBEBEB"/>
<path d="M119.171 418.489H65.3604V418.801H119.171V418.489Z" fill="#EBEBEB"/>
<path d="M138.159 418.489H130.272V418.801H138.159V418.489Z" fill="#EBEBEB"/>
<path d="M280.517 423.747H163.8V424.058H280.517V423.747Z" fill="#EBEBEB"/>
<path d="M295.281 352.344H54.7081C52.8235 352.34 51.0172 351.589 49.6857 350.256C48.3543 348.922 47.6064 347.114 47.6064 345.23V7.05186C47.6229 5.17804 48.3779 3.38636 49.7076 2.06599C51.0373 0.745626 52.8343 0.00320995 54.7081 0H295.281C297.168 0 298.978 0.749525 300.312 2.08369C301.646 3.41785 302.395 5.22736 302.395 7.11415V345.23C302.395 347.116 301.646 348.926 300.312 350.26C298.978 351.594 297.168 352.344 295.281 352.344ZM54.7081 0.249183C52.9061 0.252484 51.179 0.970646 49.906 2.24604C48.6329 3.52143 47.9179 5.24983 47.9179 7.05186V345.23C47.9179 347.032 48.6329 348.76 49.906 350.035C51.179 351.311 52.9061 352.029 54.7081 352.032H295.281C297.084 352.029 298.813 351.311 300.088 350.036C301.363 348.761 302.081 347.033 302.084 345.23V7.05186C302.081 5.24869 301.363 3.52031 300.088 2.24528C298.813 0.970241 297.084 0.252477 295.281 0.249183H54.7081Z" fill="#EBEBEB"/>
<path d="M564.784 352.344H324.199C322.313 352.34 320.505 351.59 319.172 350.256C317.838 348.923 317.088 347.115 317.084 345.23V7.05186C317.104 5.1769 317.862 3.38524 319.194 2.06521C320.525 0.74519 322.324 0.00317494 324.199 0H564.784C566.656 0.00648434 568.45 0.750349 569.777 2.07037C571.104 3.39038 571.857 5.18019 571.873 7.05186V345.23C571.873 347.112 571.127 348.918 569.798 350.251C568.47 351.585 566.667 352.337 564.784 352.344ZM324.199 0.249183C322.395 0.252477 320.667 0.970241 319.392 2.24528C318.117 3.52031 317.399 5.24869 317.396 7.05186V345.23C317.399 347.033 318.117 348.761 319.392 350.036C320.667 351.311 322.395 352.029 324.199 352.032H564.784C566.587 352.029 568.316 351.311 569.591 350.036C570.866 348.761 571.583 347.033 571.587 345.23V7.05186C571.583 5.24869 570.866 3.52031 569.591 2.24528C568.316 0.970241 566.587 0.252477 564.784 0.249183H324.199Z" fill="#EBEBEB"/>
<path d="M315.477 128.105C313.535 118.799 309.853 109.943 304.625 102.003L313.97 90.7148L294.035 70.7802L282.747 80.1246C274.813 74.8825 265.962 71.184 256.658 69.2228L255.287 54.6831H226.98L225.61 69.2228C216.307 71.165 207.456 74.8468 199.52 80.0747L188.232 70.7304L168.298 90.665L177.642 101.953C172.414 109.893 168.732 118.749 166.79 128.055L152.238 129.425V157.67L166.79 159.041C168.734 168.346 172.416 177.201 177.642 185.142L168.198 196.48L188.132 216.415L199.42 207.07C207.353 212.303 216.206 215.986 225.51 217.922L226.88 232.475H255.138L256.508 217.922C265.815 215.983 274.672 212.301 282.61 207.07L293.898 216.415L313.833 196.48L304.488 185.192C309.714 177.251 313.396 168.396 315.34 159.09L329.892 157.72V129.475L315.477 128.105ZM279.346 143.591C279.346 151.156 277.102 158.551 272.899 164.842C268.697 171.132 262.723 176.034 255.734 178.929C248.744 181.824 241.054 182.582 233.634 181.106C226.214 179.63 219.399 175.987 214.05 170.638C208.7 165.288 205.058 158.473 203.582 151.053C202.106 143.634 202.863 135.943 205.758 128.954C208.653 121.965 213.556 115.991 219.846 111.788C226.136 107.585 233.531 105.342 241.096 105.342C246.121 105.339 251.097 106.326 255.739 108.246C260.382 110.167 264.601 112.984 268.154 116.537C271.708 120.089 274.526 124.307 276.449 128.949C278.371 133.591 279.36 138.567 279.358 143.591H279.346Z" fill="#E0E0E0"/>
<path d="M396.511 263.697L397.446 274.101H417.742L418.726 263.647C425.41 262.254 431.772 259.612 437.477 255.86L445.588 262.576L459.953 248.21L453.238 240.1C456.992 234.396 459.634 228.034 461.025 221.349L471.478 220.364V200.118L461.025 199.134C459.634 192.449 456.992 186.087 453.238 180.383L459.953 172.272L445.588 157.919L437.477 164.635C431.775 160.874 425.413 158.228 418.726 156.835L417.742 146.382H397.446L396.461 156.835C389.775 158.23 383.413 160.876 377.71 164.635L369.6 157.919L355.247 172.272L361.962 180.383C358.204 186.086 355.557 192.448 354.163 199.134L343.709 200.118V220.414L354.163 221.398C355.557 228.084 358.204 234.447 361.962 240.149L355.247 248.26L369.6 262.626L377.71 255.91C383.432 259.665 389.81 262.307 396.511 263.697ZM407.65 237.745C402.21 237.747 396.892 236.136 392.369 233.114C387.846 230.092 384.321 225.796 382.241 220.769C380.161 215.743 379.619 210.212 380.685 204.878C381.75 199.544 384.374 194.645 388.225 190.803C392.075 186.961 396.98 184.348 402.317 183.295C407.653 182.242 413.183 182.796 418.204 184.888C423.226 186.979 427.514 190.513 430.525 195.043C433.537 199.573 435.137 204.895 435.122 210.335C435.102 217.609 432.199 224.579 427.05 229.717C421.9 234.855 414.924 237.742 407.65 237.745Z" fill="#E0E0E0"/>
<path d="M137.686 363.707L138.184 369.039H148.538L149.049 363.719C152.456 363.001 155.698 361.649 158.605 359.732L162.741 363.158L170.067 355.845L166.641 351.708C168.556 348.797 169.904 345.551 170.615 342.14L175.948 341.641V331.288L170.615 330.79C169.904 327.378 168.556 324.132 166.641 321.221L170.067 317.084L162.741 309.759L158.605 313.185C155.697 311.272 152.455 309.923 149.049 309.21L148.538 303.878H138.184L137.686 309.21C134.279 309.923 131.037 311.272 128.13 313.185L123.993 309.759L116.667 317.084L120.094 321.221C118.172 324.129 116.824 327.376 116.119 330.79L110.787 331.288V341.641L116.119 342.14C116.824 345.553 118.172 348.801 120.094 351.708L116.667 355.845L123.993 363.158L128.13 359.732C131.035 361.65 134.278 362.999 137.686 363.707ZM143.367 350.475C140.595 350.475 137.885 349.653 135.58 348.113C133.275 346.573 131.479 344.383 130.418 341.822C129.357 339.261 129.079 336.443 129.62 333.724C130.161 331.005 131.496 328.507 133.456 326.547C135.416 324.587 137.914 323.252 140.633 322.711C143.352 322.17 146.17 322.448 148.731 323.509C151.292 324.57 153.481 326.366 155.022 328.671C156.562 330.976 157.384 333.686 157.384 336.458C157.384 338.299 157.021 340.122 156.317 341.822C155.612 343.523 154.58 345.068 153.278 346.37C151.977 347.671 150.432 348.704 148.731 349.408C147.031 350.112 145.208 350.475 143.367 350.475Z" fill="#F0F0F0"/>
<path d="M509.889 337.841L510.3 342.227H518.823L519.234 337.841C522.041 337.254 524.712 336.142 527.108 334.565L530.509 337.393L536.539 331.363L533.711 327.961C535.291 325.567 536.403 322.895 536.988 320.087L541.374 319.676V311.154L536.988 310.743C536.4 307.935 535.289 305.264 533.711 302.869L536.539 299.467L530.509 293.437L527.108 296.265C524.712 294.688 522.041 293.576 519.234 292.989L518.823 288.603H510.3L509.889 292.989C507.082 293.576 504.411 294.688 502.015 296.265L498.614 293.437L492.584 299.467L495.412 302.869C493.834 305.264 492.723 307.935 492.135 310.743L487.75 311.154V319.676L492.135 320.087C492.72 322.895 493.832 325.567 495.412 327.961L492.584 331.412L498.614 337.443L502.015 334.614C504.414 336.174 507.085 337.269 509.889 337.841ZM514.562 326.952C512.28 326.952 510.049 326.275 508.152 325.008C506.255 323.74 504.776 321.938 503.903 319.83C503.029 317.722 502.801 315.402 503.246 313.164C503.691 310.926 504.79 308.87 506.404 307.257C508.017 305.643 510.073 304.545 512.311 304.1C514.549 303.654 516.868 303.883 518.977 304.756C521.085 305.629 522.887 307.108 524.154 309.005C525.422 310.903 526.099 313.133 526.099 315.415C526.095 318.474 524.879 321.406 522.716 323.569C520.553 325.732 517.62 326.949 514.562 326.952Z" fill="#F0F0F0"/>
<path d="M288.715 405.856H312.886L314.057 393.397C322.023 391.75 329.604 388.604 336.396 384.127L346.052 392.126L363.121 375.019L355.085 365.376C359.557 358.586 362.702 351.01 364.354 343.049L376.814 341.878V317.707L364.354 316.536C362.7 308.58 359.555 301.009 355.085 294.222L363.071 284.566L345.977 267.472L336.396 275.459C329.607 270.99 322.037 267.841 314.082 266.177L312.911 253.717H288.74L287.569 266.177C279.609 267.839 272.034 270.988 265.242 275.459L255.586 267.472L238.467 284.566L246.466 294.222C241.987 301.005 238.837 308.578 237.184 316.536L224.725 317.707V341.878L237.184 343.049C238.835 351.012 241.985 358.589 246.466 365.376L238.467 375.019L255.561 392.113L265.217 384.115C272.004 388.595 279.581 391.745 287.544 393.397L288.715 405.856ZM300.8 362.51C294.33 362.51 288.004 360.592 282.624 356.996C277.243 353.401 273.05 348.292 270.573 342.313C268.097 336.335 267.449 329.756 268.711 323.41C269.974 317.063 273.09 311.234 277.666 306.658C282.241 302.082 288.071 298.966 294.418 297.704C300.764 296.441 307.343 297.089 313.321 299.566C319.299 302.042 324.409 306.235 328.004 311.616C331.599 316.996 333.518 323.322 333.518 329.793C333.525 334.094 332.683 338.353 331.042 342.329C329.401 346.304 326.992 349.916 323.953 352.96C320.914 356.003 317.305 358.418 313.332 360.065C309.36 361.712 305.101 362.56 300.8 362.56V362.51Z" fill="#E0E0E0"/>
<path d="M423.809 361.638L422.563 359.146C420.557 355.331 417.118 352.467 413.002 351.185C408.886 349.902 404.429 350.306 400.61 352.306L394.779 355.359C390.965 357.37 388.104 360.811 386.822 364.929C385.54 369.046 385.941 373.503 387.939 377.324L389.185 379.754L385.124 381.897L399.763 409.78L442.51 387.354L427.871 359.458L423.809 361.638ZM414.888 382.968L417.442 387.84L414.353 389.472L411.799 384.6C411.209 384.577 410.636 384.401 410.135 384.089C409.635 383.776 409.225 383.338 408.945 382.819C408.708 382.416 408.554 381.969 408.495 381.505C408.435 381.041 408.47 380.57 408.598 380.12C408.727 379.67 408.945 379.251 409.24 378.888C409.535 378.525 409.901 378.226 410.315 378.009C410.729 377.791 411.183 377.661 411.649 377.624C412.116 377.588 412.585 377.647 413.027 377.797C413.47 377.947 413.878 378.186 414.226 378.499C414.574 378.812 414.854 379.192 415.05 379.617C415.32 380.14 415.447 380.726 415.419 381.314C415.391 381.903 415.208 382.473 414.888 382.968ZM417.38 365.052L395.589 376.49L394.343 373.998C393.237 371.879 393.016 369.408 393.729 367.126C394.441 364.845 396.028 362.939 398.143 361.825L403.962 358.773C406.073 357.662 408.538 357.432 410.819 358.132C413.099 358.832 415.01 360.406 416.134 362.51L417.38 365.052Z" fill="#F0F0F0"/>
<path d="M124.977 213.487L125.887 210.895C127.296 206.821 127.033 202.354 125.155 198.473C123.278 194.592 119.939 191.613 115.87 190.188L109.64 188.033C105.561 186.627 101.09 186.897 97.2099 188.785C93.3297 190.672 90.3573 194.023 88.9455 198.1L88.036 200.704L83.7127 199.196L73.3716 228.961L118.984 244.759L129.313 214.994L124.977 213.487ZM103.323 221.598L101.517 226.756L98.2151 225.61L100.022 220.414C99.6345 219.971 99.3699 219.434 99.254 218.857C99.1382 218.28 99.1752 217.683 99.3613 217.125C99.6636 216.258 100.298 215.546 101.125 215.146C101.952 214.747 102.904 214.692 103.772 214.994C104.639 215.297 105.351 215.931 105.751 216.759C106.15 217.586 106.205 218.538 105.902 219.405C105.701 219.964 105.357 220.46 104.905 220.845C104.453 221.23 103.907 221.489 103.323 221.598ZM118.137 211.12L94.8885 203.084L95.7855 200.48C96.5742 198.224 98.2246 196.373 100.375 195.331C102.526 194.29 105.002 194.143 107.26 194.923L113.49 197.078C115.748 197.864 117.601 199.514 118.643 201.666C119.685 203.817 119.83 206.295 119.047 208.553L118.137 211.12Z" fill="#F0F0F0"/>
<path d="M533.163 198.935L530.497 198.087C534.148 197.44 537.476 195.589 539.951 192.828C542.426 190.067 543.904 186.556 544.149 182.857C544.395 179.157 543.394 175.482 541.305 172.419C539.217 169.355 536.162 167.08 532.629 165.956C529.096 164.832 525.288 164.925 521.814 166.219C518.339 167.513 515.399 169.935 513.462 173.096C511.525 176.258 510.704 179.977 511.129 183.661C511.554 187.344 513.201 190.778 515.807 193.415L513.154 192.568C509.264 191.326 505.041 191.678 501.411 193.547C497.781 195.416 495.041 198.648 493.792 202.535L491.126 210.933L540.514 226.619L543.218 218.284C543.83 216.353 544.056 214.321 543.883 212.303C543.709 210.284 543.139 208.32 542.205 206.523C541.271 204.726 539.991 203.13 538.44 201.828C536.888 200.526 535.095 199.543 533.163 198.935Z" fill="#F0F0F0"/>
<path d="M354.076 48.466L352.418 49.1637C353.936 47.321 354.793 45.0228 354.852 42.6362C354.91 40.2495 354.167 37.912 352.741 35.9972C351.315 34.0824 349.289 32.7007 346.986 32.0728C344.682 31.445 342.235 31.6071 340.035 32.5334C337.834 33.4597 336.008 35.0967 334.847 37.183C333.686 39.2692 333.258 41.6842 333.631 44.0423C334.004 46.4004 335.156 48.5655 336.904 50.1917C338.652 51.8179 340.895 52.8114 343.273 53.0135L341.616 53.7112C339.2 54.7395 337.287 56.68 336.293 59.1109C335.299 61.5419 335.305 64.2669 336.309 66.6936L338.502 71.9265L369.263 58.9939L367.058 53.7735C366.03 51.3569 364.089 49.4438 361.658 48.4499C359.227 47.4561 356.502 47.4618 354.076 48.466Z" fill="#F0F0F0"/>
<path d="M131.444 83.4761L129.687 83.1148C131.99 82.4617 134.008 81.0555 135.417 79.1208C136.827 77.186 137.547 74.8346 137.463 72.4422C137.379 70.0499 136.495 67.7549 134.953 65.9239C133.411 64.093 131.3 62.8319 128.957 62.3422C126.613 61.8525 124.174 62.1626 122.027 63.2228C119.881 64.2829 118.152 66.032 117.117 68.1905C116.082 70.3489 115.801 72.7921 116.318 75.1294C116.834 77.4667 118.12 79.5633 119.969 81.0839L118.212 80.7226C115.63 80.1998 112.947 80.7201 110.748 82.1698C108.548 83.6196 107.013 85.881 106.476 88.4597L105.317 94.004L137.972 100.807L139.131 95.2624C139.67 92.6805 139.163 89.9902 137.722 87.781C136.282 85.5718 134.024 84.0238 131.444 83.4761Z" fill="#F0F0F0"/>
<path d="M311.478 464.177C444.893 464.177 553.048 457.862 553.048 450.073C553.048 442.284 444.893 435.969 311.478 435.969C178.063 435.969 69.9082 442.284 69.9082 450.073C69.9082 457.862 178.063 464.177 311.478 464.177Z" fill="#F5F5F5"/>
<path d="M459.966 97.7044H237.06C232.023 97.7044 227.939 101.788 227.939 106.824V380.514C227.939 385.551 232.023 389.634 237.06 389.634H459.966C465.002 389.634 469.086 385.551 469.086 380.514V106.824C469.086 101.788 465.002 97.7044 459.966 97.7044Z" fill="#FD7D00"/>
<path opacity="0.6" d="M459.966 97.7044H237.06C232.023 97.7044 227.939 101.788 227.939 106.824V380.514C227.939 385.551 232.023 389.634 237.06 389.634H459.966C465.002 389.634 469.086 385.551 469.086 380.514V106.824C469.086 101.788 465.002 97.7044 459.966 97.7044Z" fill="white"/>
<path d="M430.014 277.552H266.999V305.46H430.014V277.552Z" fill="white"/>
<g opacity="0.4">
<path d="M275.222 290.958C275.215 290.411 275.319 289.869 275.528 289.364C275.737 288.859 276.047 288.402 276.439 288.021C276.831 287.639 277.296 287.342 277.806 287.147C278.317 286.951 278.862 286.862 279.408 286.884C279.951 286.864 280.491 286.958 280.996 287.16C281.5 287.362 281.956 287.666 282.336 288.055L281.8 288.591C281.492 288.278 281.123 288.033 280.715 287.87C280.308 287.707 279.871 287.63 279.433 287.644C278.554 287.644 277.711 287.993 277.089 288.614C276.468 289.236 276.119 290.079 276.119 290.958C276.119 291.837 276.468 292.68 277.089 293.301C277.711 293.923 278.554 294.272 279.433 294.272C279.873 294.286 280.31 294.208 280.718 294.043C281.126 293.877 281.494 293.629 281.8 293.313L282.336 293.848C281.955 294.238 281.496 294.544 280.99 294.746C280.483 294.947 279.94 295.041 279.396 295.019C278.851 295.043 278.306 294.955 277.797 294.761C277.287 294.567 276.822 294.271 276.431 293.89C276.04 293.51 275.731 293.053 275.523 292.549C275.315 292.045 275.213 291.503 275.222 290.958Z" fill="#263238"/>
<path d="M283.096 291.954C283.094 291.348 283.271 290.754 283.607 290.248C283.942 289.743 284.42 289.348 284.979 289.114C285.539 288.88 286.156 288.818 286.751 288.934C287.347 289.051 287.894 289.342 288.324 289.77C288.754 290.198 289.047 290.745 289.166 291.339C289.285 291.934 289.225 292.551 288.994 293.112C288.762 293.673 288.369 294.152 287.865 294.49C287.361 294.827 286.768 295.007 286.161 295.007C285.756 295.021 285.352 294.951 284.975 294.803C284.598 294.655 284.255 294.43 283.968 294.144C283.68 293.858 283.455 293.516 283.305 293.14C283.155 292.763 283.084 292.36 283.096 291.954ZM288.391 291.954C288.372 291.515 288.223 291.091 287.965 290.736C287.706 290.38 287.349 290.108 286.937 289.954C286.525 289.8 286.077 289.77 285.649 289.868C285.22 289.967 284.83 290.189 284.527 290.508C284.223 290.826 284.02 291.227 283.943 291.66C283.866 292.093 283.917 292.539 284.092 292.942C284.266 293.346 284.555 293.69 284.923 293.931C285.291 294.171 285.721 294.299 286.161 294.297C286.465 294.303 286.767 294.245 287.048 294.128C287.329 294.011 287.582 293.837 287.792 293.616C288.001 293.396 288.163 293.135 288.266 292.849C288.369 292.562 288.412 292.258 288.391 291.954Z" fill="#263238"/>
<path d="M296.402 291.469V294.957H295.593V291.543C295.629 291.293 295.609 291.037 295.532 290.795C295.456 290.553 295.327 290.332 295.153 290.148C294.979 289.963 294.766 289.82 294.529 289.73C294.293 289.639 294.039 289.603 293.786 289.625C293.498 289.605 293.209 289.648 292.94 289.752C292.67 289.856 292.427 290.017 292.226 290.225C292.025 290.433 291.873 290.682 291.778 290.955C291.684 291.227 291.651 291.518 291.68 291.805V294.957H290.871V288.939H291.643V290.048C291.886 289.667 292.227 289.36 292.631 289.158C293.034 288.956 293.485 288.867 293.936 288.902C294.275 288.876 294.616 288.925 294.934 289.046C295.252 289.167 295.539 289.357 295.775 289.603C296.011 289.848 296.189 290.143 296.298 290.465C296.406 290.788 296.442 291.131 296.402 291.469Z" fill="#263238"/>
<path d="M300.564 286.423C301.01 286.399 301.45 286.531 301.81 286.796L301.536 287.407C301.283 287.202 300.964 287.096 300.639 287.108C299.953 287.108 299.58 287.494 299.58 288.242V288.939H301.436V289.625H299.604V294.957H298.795V289.625H297.723V288.939H298.795V288.204C298.776 287.967 298.809 287.728 298.891 287.504C298.973 287.28 299.103 287.077 299.271 286.908C299.439 286.739 299.641 286.608 299.864 286.524C300.087 286.44 300.326 286.406 300.564 286.423ZM304.401 287.033C304.403 287.112 304.389 287.191 304.359 287.264C304.33 287.337 304.286 287.404 304.23 287.46C304.174 287.516 304.107 287.56 304.034 287.589C303.961 287.619 303.882 287.633 303.803 287.631C303.72 287.643 303.635 287.638 303.554 287.614C303.474 287.591 303.399 287.55 303.335 287.495C303.272 287.44 303.221 287.372 303.186 287.295C303.151 287.219 303.132 287.136 303.132 287.052C303.132 286.968 303.151 286.885 303.186 286.808C303.221 286.732 303.272 286.664 303.335 286.609C303.399 286.554 303.474 286.513 303.554 286.49C303.635 286.466 303.72 286.46 303.803 286.472C303.879 286.469 303.956 286.481 304.027 286.508C304.099 286.534 304.164 286.575 304.22 286.627C304.276 286.679 304.321 286.742 304.352 286.812C304.383 286.882 304.4 286.957 304.401 287.033ZM303.392 288.939H304.202V294.957H303.392V288.939Z" fill="#263238"/>
<path d="M309.497 288.902V289.687H309.297C309.011 289.673 308.725 289.723 308.461 289.832C308.196 289.941 307.958 290.108 307.766 290.32C307.573 290.532 307.429 290.784 307.345 291.058C307.261 291.332 307.238 291.621 307.279 291.905V294.97H306.494V288.952H307.267V290.135C307.472 289.73 307.794 289.396 308.192 289.176C308.59 288.956 309.044 288.86 309.497 288.902Z" fill="#263238"/>
<path d="M320.872 291.469V294.957H320.062V291.543C320.062 290.297 319.427 289.625 318.343 289.625C318.06 289.612 317.778 289.66 317.516 289.768C317.254 289.875 317.019 290.038 316.827 290.246C316.635 290.453 316.49 290.701 316.403 290.97C316.317 291.239 316.29 291.524 316.324 291.805V294.957H315.515V291.543C315.515 290.297 314.879 289.625 313.783 289.625C313.501 289.614 313.22 289.664 312.959 289.772C312.698 289.88 312.464 290.043 312.272 290.25C312.08 290.458 311.936 290.704 311.848 290.972C311.76 291.24 311.732 291.525 311.764 291.805V294.957H310.955V288.939H311.74V290.036C311.976 289.671 312.304 289.374 312.691 289.175C313.078 288.976 313.51 288.882 313.945 288.902C314.385 288.867 314.825 288.967 315.206 289.19C315.587 289.413 315.89 289.747 316.075 290.148C316.322 289.745 316.674 289.416 317.093 289.196C317.512 288.977 317.983 288.875 318.455 288.902C318.792 288.877 319.13 288.927 319.445 289.049C319.76 289.171 320.044 289.363 320.276 289.609C320.508 289.855 320.681 290.149 320.785 290.471C320.888 290.793 320.918 291.134 320.872 291.469Z" fill="#263238"/>
<path d="M332.932 286.958V294.957H332.235L327.089 288.466V294.957H326.242V286.958H326.939L332.097 293.45V286.958H332.932Z" fill="#263238"/>
<path d="M340.595 292.204H335.611C335.627 292.497 335.701 292.785 335.829 293.05C335.957 293.314 336.136 293.551 336.357 293.746C336.577 293.94 336.834 294.09 337.112 294.184C337.391 294.279 337.685 294.317 337.978 294.297C338.324 294.308 338.667 294.242 338.984 294.104C339.301 293.966 339.583 293.76 339.81 293.499L340.271 294.035C339.839 294.486 339.284 294.8 338.675 294.937C338.066 295.074 337.43 295.029 336.847 294.807C336.263 294.585 335.758 294.196 335.394 293.689C335.031 293.182 334.824 292.578 334.801 291.954C334.779 291.558 334.839 291.162 334.976 290.79C335.114 290.417 335.327 290.078 335.601 289.791C335.876 289.505 336.207 289.278 336.573 289.125C336.939 288.972 337.333 288.896 337.729 288.902C338.126 288.894 338.52 288.969 338.886 289.121C339.253 289.274 339.583 289.501 339.858 289.788C340.132 290.075 340.343 290.416 340.479 290.788C340.614 291.161 340.671 291.558 340.645 291.954C340.607 292.017 340.595 292.104 340.595 292.204ZM335.611 291.593H339.872C339.872 291.028 339.648 290.486 339.248 290.087C338.849 289.687 338.307 289.463 337.742 289.463C337.177 289.463 336.635 289.687 336.235 290.087C335.836 290.486 335.611 291.028 335.611 291.593Z" fill="#263238"/>
<path d="M350.973 288.939L348.693 294.957H347.933L346.039 290.036L344.146 294.957H343.373L341.118 288.939H341.891L343.772 294.048L345.703 288.939H346.363L348.282 294.048L350.188 288.939H350.973Z" fill="#263238"/>
<path d="M361.626 289.699C361.626 291.406 360.38 292.428 358.349 292.428H356.206V294.92H355.359V286.921H358.349C360.392 286.958 361.626 287.98 361.626 289.699ZM360.779 289.699C360.779 288.453 359.931 287.693 358.287 287.693H356.206V291.693H358.337C359.931 291.693 360.779 290.958 360.779 289.699Z" fill="#263238"/>
<path d="M367.756 291.232V294.97H366.983V294.035C366.757 294.368 366.446 294.635 366.082 294.808C365.719 294.981 365.316 295.054 364.915 295.019C363.557 295.019 362.722 294.309 362.722 293.275C362.722 292.241 363.308 291.543 365.052 291.543H366.958V291.182C366.958 290.16 366.373 289.6 365.251 289.6C364.526 289.591 363.82 289.838 363.258 290.297L362.897 289.699C363.605 289.144 364.488 288.857 365.388 288.89C365.706 288.852 366.028 288.887 366.331 288.991C366.633 289.095 366.908 289.266 367.136 289.491C367.363 289.716 367.537 289.989 367.644 290.291C367.752 290.592 367.79 290.914 367.756 291.232ZM366.946 293.151V292.166H365.052C363.881 292.166 363.507 292.627 363.507 293.238C363.507 293.848 364.068 294.372 365.027 294.372C365.435 294.397 365.84 294.293 366.185 294.073C366.53 293.854 366.796 293.531 366.946 293.151Z" fill="#263238"/>
<path d="M369.126 294.272L369.5 293.624C370.118 294.073 370.866 294.309 371.63 294.297C372.777 294.297 373.238 293.911 373.238 293.325C373.238 291.755 369.35 292.989 369.35 290.609C369.35 289.625 370.197 288.902 371.717 288.902C372.466 288.886 373.204 289.08 373.848 289.463L373.499 290.111C372.97 289.766 372.349 289.588 371.717 289.6C370.634 289.6 370.16 290.023 370.16 290.584C370.16 292.216 374.06 290.995 374.06 293.3C374.06 294.334 373.138 295.007 371.568 295.007C370.696 295.031 369.84 294.774 369.126 294.272Z" fill="#263238"/>
<path d="M374.72 294.272L375.082 293.624C375.706 294.071 376.457 294.307 377.224 294.297C378.358 294.297 378.832 293.911 378.832 293.325C378.832 291.755 374.932 292.989 374.932 290.609C374.932 289.625 375.779 288.902 377.312 288.902C378.056 288.887 378.79 289.082 379.43 289.463L379.081 290.111C378.556 289.766 377.939 289.588 377.312 289.6C376.228 289.6 375.742 290.023 375.742 290.584C375.742 292.216 379.642 290.995 379.642 293.3C379.642 294.334 378.732 295.007 377.15 295.007C376.281 295.033 375.428 294.775 374.72 294.272Z" fill="#263238"/>
<path d="M389.846 288.939L387.566 294.957H386.806L384.912 290.036L383.018 294.957H382.246L380.003 288.939H380.775L382.657 294.048L384.588 288.939H385.286L387.204 294.048L389.111 288.939H389.846Z" fill="#263238"/>
<path d="M390.294 291.954C390.294 291.351 390.473 290.762 390.808 290.26C391.143 289.758 391.619 289.367 392.176 289.136C392.733 288.904 393.346 288.843 393.938 288.96C394.529 289.076 395.073 289.366 395.501 289.792C395.928 290.217 396.22 290.76 396.339 291.351C396.458 291.943 396.4 292.556 396.17 293.114C395.941 293.672 395.552 294.15 395.052 294.486C394.551 294.823 393.962 295.004 393.359 295.007C392.954 295.023 392.549 294.954 392.171 294.807C391.793 294.659 391.449 294.435 391.162 294.148C390.874 293.862 390.648 293.519 390.499 293.142C390.35 292.764 390.28 292.36 390.294 291.954ZM395.577 291.954C395.555 291.518 395.405 291.098 395.147 290.746C394.888 290.394 394.532 290.126 394.122 289.975C393.713 289.823 393.268 289.796 392.842 289.895C392.417 289.994 392.03 290.216 391.73 290.533C391.43 290.85 391.229 291.249 391.153 291.679C391.077 292.109 391.129 292.552 391.303 292.953C391.476 293.353 391.764 293.694 392.129 293.933C392.495 294.172 392.922 294.299 393.359 294.297C393.662 294.301 393.963 294.242 394.242 294.124C394.521 294.006 394.773 293.832 394.982 293.612C395.19 293.392 395.35 293.131 395.453 292.846C395.555 292.56 395.598 292.257 395.577 291.954Z" fill="#263238"/>
<path d="M401.084 288.902V289.687H400.897C400.611 289.673 400.325 289.723 400.06 289.832C399.795 289.941 399.558 290.108 399.365 290.32C399.172 290.532 399.028 290.784 398.944 291.058C398.86 291.332 398.838 291.621 398.878 291.905V294.97H398.056V288.952H398.841V290.135C399.047 289.728 399.372 289.392 399.772 289.172C400.172 288.952 400.629 288.858 401.084 288.902Z" fill="#263238"/>
<path d="M407.973 286.472V294.957H407.201V293.711C406.961 294.107 406.62 294.431 406.212 294.65C405.805 294.869 405.346 294.975 404.884 294.957C404.074 294.957 403.298 294.635 402.725 294.063C402.153 293.491 401.831 292.714 401.831 291.905C401.831 291.095 402.153 290.319 402.725 289.746C403.298 289.174 404.074 288.852 404.884 288.852C405.333 288.837 405.779 288.938 406.179 289.145C406.578 289.352 406.917 289.659 407.164 290.036V286.423L407.973 286.472ZM407.176 291.954C407.154 291.519 407.005 291.099 406.747 290.747C406.489 290.396 406.133 290.127 405.724 289.976C405.316 289.824 404.871 289.795 404.446 289.894C404.021 289.992 403.634 290.213 403.334 290.529C403.033 290.845 402.831 291.242 402.754 291.671C402.676 292.1 402.727 292.543 402.898 292.944C403.07 293.345 403.355 293.687 403.719 293.927C404.083 294.168 404.51 294.296 404.946 294.297C405.25 294.303 405.552 294.245 405.833 294.128C406.113 294.011 406.367 293.837 406.576 293.616C406.786 293.396 406.948 293.135 407.051 292.848C407.154 292.562 407.197 292.258 407.176 291.954Z" fill="#263238"/>
</g>
<path opacity="0.2" d="M430.014 332.172H266.999V360.081H430.014V332.172Z" fill="black"/>
<g opacity="0.5">
<path d="M268.008 211.556V213.425H270.5V213.861H268.008V215.892H267.497V211.12H270.774V211.556H268.008Z" fill="black"/>
<path d="M271.235 214.097C271.235 213.735 271.342 213.381 271.544 213.08C271.745 212.779 272.031 212.544 272.366 212.405C272.7 212.267 273.069 212.23 273.424 212.301C273.779 212.372 274.105 212.546 274.362 212.802C274.618 213.059 274.792 213.385 274.863 213.74C274.933 214.095 274.897 214.464 274.759 214.798C274.62 215.133 274.385 215.419 274.084 215.62C273.783 215.822 273.429 215.929 273.067 215.929C272.824 215.938 272.582 215.896 272.355 215.807C272.129 215.718 271.924 215.584 271.752 215.412C271.58 215.24 271.446 215.035 271.357 214.809C271.268 214.582 271.226 214.34 271.235 214.097ZM274.4 214.097C274.39 213.833 274.302 213.578 274.148 213.363C273.994 213.148 273.78 212.983 273.532 212.889C273.285 212.795 273.016 212.777 272.758 212.835C272.5 212.893 272.265 213.027 272.082 213.218C271.899 213.409 271.777 213.65 271.73 213.91C271.684 214.171 271.715 214.439 271.82 214.682C271.925 214.924 272.099 215.131 272.321 215.275C272.543 215.419 272.802 215.495 273.067 215.493C273.248 215.497 273.428 215.463 273.596 215.393C273.764 215.324 273.915 215.22 274.04 215.089C274.166 214.957 274.262 214.801 274.324 214.631C274.386 214.46 274.412 214.279 274.4 214.097Z" fill="black"/>
<path d="M277.689 212.278V212.752H277.577C277.403 212.737 277.228 212.761 277.064 212.824C276.901 212.886 276.754 212.984 276.635 213.111C276.515 213.238 276.425 213.391 276.373 213.557C276.32 213.724 276.306 213.9 276.331 214.073V215.904H275.845V212.303H276.306V213.051C276.426 212.794 276.625 212.581 276.873 212.442C277.121 212.304 277.406 212.246 277.689 212.278Z" fill="black"/>
<path d="M281.85 212.303V215.455C281.888 215.7 281.868 215.95 281.792 216.185C281.715 216.42 281.584 216.634 281.409 216.809C281.234 216.984 281.021 217.115 280.785 217.191C280.55 217.268 280.3 217.288 280.056 217.25C279.451 217.276 278.858 217.081 278.386 216.701L278.636 216.328C279.028 216.66 279.529 216.837 280.043 216.826C280.953 216.826 281.364 216.402 281.364 215.518V215.057C281.21 215.282 281.001 215.464 280.757 215.586C280.513 215.708 280.241 215.766 279.969 215.755C279.728 215.775 279.486 215.745 279.257 215.667C279.029 215.589 278.819 215.464 278.641 215.301C278.463 215.137 278.321 214.939 278.224 214.718C278.127 214.497 278.077 214.258 278.077 214.016C278.077 213.775 278.127 213.536 278.224 213.315C278.321 213.094 278.463 212.895 278.641 212.732C278.819 212.569 279.029 212.444 279.257 212.366C279.486 212.288 279.728 212.258 279.969 212.278C280.246 212.267 280.522 212.327 280.77 212.451C281.019 212.575 281.232 212.76 281.389 212.989V212.303H281.85ZM281.377 214.01C281.384 213.74 281.311 213.474 281.166 213.246C281.021 213.018 280.812 212.838 280.565 212.729C280.317 212.621 280.043 212.588 279.777 212.637C279.511 212.685 279.266 212.811 279.072 212.999C278.879 213.188 278.745 213.429 278.69 213.694C278.634 213.958 278.659 214.233 278.761 214.484C278.862 214.734 279.036 214.948 279.26 215.099C279.484 215.25 279.748 215.331 280.019 215.331C280.198 215.347 280.379 215.325 280.548 215.265C280.718 215.205 280.873 215.109 281.002 214.983C281.131 214.858 281.231 214.706 281.296 214.538C281.361 214.37 281.388 214.19 281.377 214.01Z" fill="black"/>
<path d="M282.822 214.097C282.822 213.735 282.929 213.381 283.131 213.08C283.332 212.779 283.618 212.544 283.953 212.405C284.287 212.267 284.655 212.23 285.011 212.301C285.366 212.372 285.692 212.546 285.948 212.802C286.205 213.059 286.379 213.385 286.45 213.74C286.52 214.095 286.484 214.464 286.346 214.798C286.207 215.133 285.972 215.419 285.671 215.62C285.37 215.822 285.016 215.929 284.653 215.929C284.411 215.938 284.169 215.896 283.942 215.807C283.716 215.718 283.511 215.584 283.339 215.412C283.167 215.24 283.033 215.035 282.944 214.809C282.855 214.582 282.813 214.34 282.822 214.097ZM285.987 214.097C285.974 213.837 285.886 213.585 285.732 213.375C285.579 213.164 285.366 213.003 285.122 212.911C284.877 212.82 284.612 212.802 284.357 212.86C284.103 212.919 283.871 213.05 283.691 213.239C283.511 213.428 283.39 213.665 283.343 213.922C283.297 214.178 283.326 214.443 283.429 214.683C283.531 214.923 283.702 215.128 283.92 215.272C284.137 215.416 284.392 215.493 284.653 215.493C284.837 215.5 285.02 215.469 285.191 215.401C285.361 215.333 285.516 215.23 285.644 215.098C285.772 214.966 285.871 214.809 285.934 214.637C285.998 214.465 286.024 214.281 286.011 214.097H285.987Z" fill="black"/>
<path d="M289.388 215.68C289.168 215.844 288.901 215.932 288.628 215.929C288.486 215.945 288.343 215.929 288.209 215.882C288.075 215.835 287.953 215.758 287.852 215.657C287.752 215.557 287.675 215.435 287.628 215.301C287.581 215.167 287.565 215.024 287.581 214.882V212.714H286.933V212.303H287.581V211.518H288.067V212.303H289.151V212.714H288.067V214.857C288.067 215.281 288.279 215.505 288.677 215.505C288.87 215.509 289.059 215.448 289.213 215.331L289.388 215.68Z" fill="black"/>
<path d="M295.904 212.752C295.904 213.774 295.156 214.384 293.948 214.384H292.702V215.892H292.191V211.12H293.985C295.156 211.12 295.904 211.73 295.904 212.752ZM295.393 212.752C295.393 211.992 294.895 211.506 293.935 211.506H292.689V213.886H293.935C294.895 213.935 295.393 213.499 295.393 212.752Z" fill="black"/>
<path d="M299.567 213.674V215.892H299.106V215.331C298.971 215.533 298.784 215.695 298.564 215.8C298.345 215.905 298.102 215.95 297.86 215.929C297.037 215.929 296.539 215.505 296.539 214.882C296.539 214.259 296.9 213.861 297.934 213.861H299.068V213.649C299.079 213.516 299.06 213.383 299.012 213.259C298.964 213.135 298.889 213.023 298.792 212.932C298.695 212.841 298.579 212.773 298.452 212.733C298.325 212.694 298.191 212.683 298.059 212.702C297.605 212.68 297.16 212.832 296.813 213.126L296.589 212.764C297.003 212.437 297.519 212.265 298.047 212.278C298.245 212.231 298.451 212.234 298.648 212.285C298.845 212.336 299.027 212.435 299.177 212.573C299.327 212.711 299.441 212.883 299.509 213.075C299.577 213.267 299.597 213.472 299.567 213.674ZM299.081 214.82V214.222H297.959C297.262 214.222 297.037 214.496 297.037 214.87C297.037 215.244 297.374 215.543 297.947 215.543C298.188 215.557 298.427 215.495 298.631 215.365C298.835 215.235 298.992 215.045 299.081 214.82Z" fill="black"/>
<path d="M300.389 215.543L300.613 215.169C300.977 215.428 301.413 215.568 301.859 215.568C302.545 215.568 302.819 215.331 302.819 214.982C302.819 214.048 300.489 214.783 300.489 213.362C300.489 212.777 301 212.341 301.909 212.341C302.348 212.334 302.779 212.451 303.155 212.677L302.943 213.063C302.632 212.851 302.261 212.742 301.884 212.752C301.236 212.752 300.95 213.001 300.95 213.35C300.95 214.322 303.28 213.587 303.28 214.97C303.28 215.593 302.731 215.991 301.797 215.991C301.292 215.996 300.799 215.839 300.389 215.543Z" fill="black"/>
<path d="M303.728 215.543L303.952 215.169C304.317 215.427 304.752 215.566 305.198 215.568C305.883 215.568 306.158 215.331 306.158 214.982C306.158 214.048 303.84 214.783 303.84 213.362C303.84 212.777 304.339 212.341 305.248 212.341C305.687 212.334 306.118 212.451 306.494 212.677L306.282 213.063C305.971 212.851 305.6 212.742 305.223 212.752C304.575 212.752 304.289 213.001 304.289 213.35C304.289 214.322 306.619 213.587 306.619 214.97C306.619 215.593 306.07 215.991 305.136 215.991C304.631 215.996 304.137 215.839 303.728 215.543Z" fill="black"/>
<path d="M312.724 212.303L311.478 215.892H311.017L309.883 212.951L308.749 215.892H308.288L306.943 212.303H307.404L308.525 215.356L309.684 212.303H310.095L311.241 215.356L312.387 212.303H312.724Z" fill="black"/>
<path d="M313.035 214.097C313.035 213.735 313.143 213.381 313.344 213.08C313.545 212.779 313.831 212.544 314.166 212.405C314.501 212.267 314.869 212.23 315.224 212.301C315.579 212.372 315.906 212.546 316.162 212.802C316.418 213.059 316.592 213.385 316.663 213.74C316.734 214.095 316.698 214.464 316.559 214.798C316.42 215.133 316.186 215.419 315.884 215.62C315.583 215.822 315.229 215.929 314.867 215.929C314.624 215.938 314.382 215.896 314.156 215.807C313.93 215.718 313.724 215.584 313.552 215.412C313.381 215.24 313.246 215.035 313.157 214.809C313.068 214.582 313.027 214.34 313.035 214.097ZM316.2 214.097C316.188 213.837 316.099 213.585 315.946 213.375C315.792 213.164 315.58 213.003 315.335 212.911C315.091 212.82 314.825 212.802 314.571 212.86C314.316 212.919 314.085 213.05 313.904 213.239C313.724 213.428 313.603 213.665 313.557 213.922C313.51 214.178 313.54 214.443 313.642 214.683C313.745 214.923 313.915 215.128 314.133 215.272C314.351 215.416 314.606 215.493 314.867 215.493C315.048 215.497 315.229 215.463 315.396 215.393C315.564 215.324 315.715 215.22 315.841 215.089C315.966 214.957 316.063 214.801 316.125 214.631C316.186 214.46 316.212 214.279 316.2 214.097Z" fill="black"/>
<path d="M319.489 212.278V212.752H319.377C319.203 212.737 319.028 212.761 318.865 212.824C318.702 212.886 318.555 212.984 318.435 213.111C318.315 213.238 318.226 213.391 318.173 213.557C318.12 213.724 318.106 213.9 318.131 214.073V215.904H317.708V212.303H318.169V213.051C318.286 212.804 318.474 212.599 318.71 212.461C318.945 212.323 319.217 212.26 319.489 212.278Z" fill="black"/>
<path d="M323.613 210.833V215.892H323.14V215.181C322.998 215.419 322.795 215.614 322.551 215.746C322.308 215.878 322.033 215.941 321.757 215.929C321.299 215.891 320.872 215.682 320.56 215.344C320.249 215.006 320.076 214.563 320.076 214.104C320.076 213.644 320.249 213.201 320.56 212.863C320.872 212.525 321.299 212.316 321.757 212.278C322.027 212.27 322.295 212.331 322.534 212.455C322.774 212.579 322.978 212.763 323.127 212.989V210.833H323.613ZM323.127 214.097C323.115 213.837 323.027 213.585 322.873 213.375C322.719 213.164 322.507 213.003 322.263 212.911C322.018 212.82 321.752 212.802 321.498 212.86C321.244 212.919 321.012 213.05 320.832 213.239C320.651 213.428 320.53 213.665 320.484 213.922C320.437 214.178 320.467 214.443 320.57 214.683C320.672 214.923 320.843 215.128 321.06 215.272C321.278 215.416 321.533 215.493 321.794 215.493C321.976 215.497 322.156 215.463 322.324 215.393C322.491 215.324 322.642 215.22 322.768 215.089C322.893 214.957 322.99 214.802 323.052 214.631C323.114 214.46 323.139 214.279 323.127 214.097Z" fill="black"/>
<path d="M327.139 212.341C327.139 211.842 326.74 211.506 326.043 211.506C325.797 211.489 325.551 211.53 325.324 211.625C325.096 211.72 324.895 211.867 324.734 212.054L324.373 211.78C324.585 211.54 324.849 211.351 325.144 211.228C325.44 211.105 325.76 211.051 326.08 211.07C327.027 211.07 327.65 211.531 327.65 212.316C327.65 213.474 326.404 213.562 326.404 214.509H325.905C325.893 213.337 327.139 213.225 327.139 212.341ZM325.793 215.543C325.809 215.46 325.853 215.385 325.918 215.331C325.983 215.278 326.064 215.248 326.148 215.248C326.233 215.248 326.314 215.278 326.379 215.331C326.444 215.385 326.488 215.46 326.504 215.543C326.513 215.595 326.512 215.649 326.498 215.7C326.485 215.751 326.46 215.799 326.427 215.84C326.393 215.881 326.35 215.914 326.302 215.937C326.254 215.959 326.202 215.971 326.148 215.971C326.095 215.971 326.043 215.959 325.995 215.937C325.947 215.914 325.904 215.881 325.87 215.84C325.836 215.799 325.812 215.751 325.799 215.7C325.785 215.649 325.784 215.595 325.793 215.543Z" fill="black"/>
</g>
<path d="M430.014 330.453H266.999V358.362H430.014V330.453Z" fill="#FD7D00"/>
<path d="M302.544 347.609L303.055 346.538C303.942 347.268 305.059 347.66 306.207 347.647C307.852 347.647 308.562 347.011 308.562 346.177C308.562 343.847 302.781 345.317 302.781 341.766C302.781 340.296 303.927 339.037 306.432 339.037C307.518 339.017 308.586 339.311 309.509 339.885L309.061 340.969C308.274 340.471 307.363 340.203 306.432 340.196C304.812 340.196 304.114 340.881 304.114 341.716C304.114 344.046 309.908 342.588 309.908 346.089C309.908 347.559 308.662 348.805 306.17 348.805C304.859 348.839 303.578 348.416 302.544 347.609Z" fill="white"/>
<path d="M318.218 345.566H312.35C312.442 346.185 312.764 346.746 313.251 347.138C313.738 347.53 314.355 347.725 314.979 347.684C315.368 347.696 315.755 347.625 316.114 347.474C316.473 347.324 316.795 347.098 317.059 346.812L317.782 347.659C317.25 348.202 316.573 348.579 315.832 348.745C315.091 348.912 314.317 348.86 313.605 348.597C312.892 348.333 312.271 347.869 311.816 347.261C311.362 346.652 311.092 345.925 311.042 345.167C311.016 344.679 311.091 344.191 311.263 343.733C311.434 343.275 311.698 342.858 312.039 342.507C312.379 342.156 312.788 341.88 313.24 341.694C313.693 341.509 314.178 341.419 314.667 341.43C315.154 341.416 315.639 341.505 316.09 341.69C316.54 341.875 316.947 342.153 317.284 342.505C317.621 342.857 317.88 343.276 318.046 343.735C318.211 344.193 318.278 344.681 318.243 345.167C318.243 345.279 318.231 345.441 318.218 345.566ZM312.35 344.632H316.997C316.925 344.066 316.65 343.546 316.222 343.169C315.794 342.792 315.244 342.585 314.673 342.585C314.103 342.585 313.553 342.792 313.125 343.169C312.697 343.546 312.422 344.066 312.35 344.632Z" fill="white"/>
<path d="M324.136 348.332C323.681 348.674 323.123 348.85 322.554 348.83C322.247 348.866 321.935 348.831 321.643 348.73C321.35 348.629 321.084 348.464 320.864 348.246C320.644 348.028 320.476 347.764 320.372 347.473C320.267 347.182 320.23 346.871 320.262 346.563V342.626H319.016V341.554H320.262V339.972H321.57V341.554H323.65V342.626H321.57V346.55C321.54 346.711 321.548 346.876 321.593 347.032C321.638 347.189 321.718 347.333 321.828 347.454C321.938 347.575 322.074 347.668 322.226 347.728C322.378 347.787 322.541 347.81 322.704 347.796C323.073 347.806 323.434 347.687 323.725 347.46L324.136 348.332Z" fill="white"/>
<path d="M337.305 342.526C337.305 344.607 335.798 345.853 333.319 345.853H330.951V348.756H329.593V339.199H333.331C335.798 339.199 337.305 340.445 337.305 342.526ZM335.935 342.526C335.935 341.155 335.025 340.383 333.281 340.383H330.951V344.669H333.281C335.025 344.669 335.935 343.872 335.935 342.526Z" fill="white"/>
<path d="M344.793 344.382V348.756H343.547V347.796C343.269 348.154 342.906 348.437 342.49 348.617C342.074 348.798 341.619 348.871 341.168 348.83C339.536 348.83 338.501 347.958 338.501 346.7C338.501 345.441 339.249 344.582 341.404 344.582H343.485V344.333C343.485 343.224 342.837 342.576 341.541 342.576C340.711 342.576 339.905 342.852 339.249 343.361L338.701 342.376C339.566 341.742 340.618 341.413 341.691 341.442C343.672 341.442 344.793 342.401 344.793 344.382ZM343.485 346.538V345.529H341.454C340.208 345.529 339.797 346.039 339.797 346.65C339.797 347.26 340.395 347.821 341.392 347.821C341.831 347.853 342.269 347.746 342.645 347.516C343.02 347.286 343.314 346.944 343.485 346.538Z" fill="white"/>
<path d="M346.363 347.983L346.911 346.949C347.654 347.431 348.518 347.69 349.403 347.697C350.649 347.697 351.123 347.335 351.123 346.712C351.123 345.093 346.55 346.5 346.55 343.622C346.55 342.376 347.709 341.442 349.565 341.442C350.489 341.426 351.4 341.654 352.207 342.102L351.646 343.136C351.02 342.743 350.292 342.543 349.553 342.563C348.407 342.563 347.846 342.987 347.846 343.56C347.846 345.267 352.443 343.872 352.443 346.687C352.443 347.996 351.197 348.83 349.316 348.83C348.269 348.855 347.238 348.56 346.363 347.983Z" fill="white"/>
<path d="M353.154 347.983L353.702 346.949C354.444 347.431 355.309 347.69 356.194 347.697C357.44 347.697 357.913 347.335 357.913 346.712C357.913 345.093 353.341 346.5 353.341 343.622C353.341 342.377 354.499 341.442 356.356 341.442C357.275 341.427 358.182 341.655 358.985 342.102L358.424 343.137C357.802 342.745 357.078 342.546 356.343 342.563C355.197 342.563 354.636 342.987 354.636 343.56C354.636 345.267 359.221 343.872 359.221 346.687C359.221 347.996 357.975 348.83 356.094 348.83C355.051 348.851 354.026 348.556 353.154 347.983Z" fill="white"/>
<path d="M371.718 341.517L369.014 348.756H367.768L365.675 343.261L363.557 348.756H362.311L359.632 341.517H360.878L362.984 347.273L365.164 341.517H366.298L368.441 347.298L370.596 341.517H371.718Z" fill="white"/>
<path d="M372.178 345.117C372.178 344.378 372.398 343.656 372.808 343.041C373.219 342.426 373.803 341.947 374.486 341.664C375.169 341.381 375.92 341.307 376.645 341.452C377.37 341.596 378.036 341.952 378.559 342.475C379.082 342.997 379.438 343.663 379.582 344.388C379.726 345.113 379.652 345.865 379.369 346.548C379.087 347.231 378.607 347.815 377.993 348.225C377.378 348.636 376.655 348.855 375.916 348.855C375.42 348.874 374.926 348.791 374.463 348.61C374.001 348.429 373.581 348.154 373.23 347.803C372.879 347.452 372.605 347.033 372.424 346.57C372.243 346.108 372.159 345.614 372.178 345.117ZM378.408 345.117C378.396 344.625 378.237 344.147 377.953 343.744C377.669 343.342 377.272 343.032 376.812 342.855C376.353 342.678 375.851 342.641 375.37 342.75C374.889 342.858 374.451 343.106 374.112 343.463C373.772 343.82 373.546 344.27 373.462 344.755C373.378 345.241 373.439 345.741 373.639 346.191C373.839 346.641 374.168 347.023 374.584 347.286C375.001 347.55 375.486 347.684 375.979 347.672C376.308 347.676 376.635 347.612 376.939 347.483C377.243 347.354 377.516 347.164 377.743 346.923C377.969 346.683 378.142 346.399 378.253 346.088C378.363 345.777 378.407 345.446 378.383 345.117H378.408Z" fill="white"/>
<path d="M385.41 341.442V342.688H385.111C384.787 342.665 384.462 342.716 384.161 342.836C383.859 342.956 383.589 343.143 383.369 343.383C383.15 343.623 382.988 343.909 382.895 344.22C382.802 344.531 382.78 344.859 382.831 345.18V348.793H381.585V341.554H382.831V342.8C383.092 342.356 383.472 341.994 383.928 341.754C384.383 341.514 384.897 341.406 385.41 341.442Z" fill="white"/>
<path d="M393.783 338.626V348.756H392.537V347.609C392.241 348.011 391.851 348.335 391.402 348.552C390.953 348.769 390.457 348.873 389.958 348.855C389.076 348.719 388.271 348.272 387.69 347.594C387.109 346.917 386.79 346.054 386.79 345.161C386.79 344.268 387.109 343.405 387.69 342.728C388.271 342.05 389.076 341.603 389.958 341.467C390.436 341.455 390.91 341.555 391.342 341.758C391.775 341.962 392.154 342.263 392.45 342.638V338.651L393.783 338.626ZM392.462 345.117C392.45 344.625 392.292 344.147 392.008 343.744C391.724 343.342 391.326 343.032 390.867 342.855C390.407 342.678 389.905 342.641 389.424 342.75C388.943 342.858 388.505 343.106 388.166 343.463C387.826 343.82 387.6 344.27 387.516 344.755C387.432 345.241 387.494 345.741 387.693 346.191C387.893 346.641 388.222 347.022 388.639 347.286C389.055 347.55 389.54 347.684 390.033 347.672C390.365 347.679 390.695 347.618 391.001 347.491C391.308 347.363 391.584 347.173 391.813 346.933C392.042 346.692 392.218 346.406 392.33 346.094C392.442 345.781 392.487 345.449 392.462 345.117Z" fill="white"/>
<g opacity="0.6">
<path d="M297.038 141L294.783 137.785C294.571 137.785 294.347 137.785 294.122 137.785H291.543V140.962H290.048V130.497H294.122C296.839 130.497 298.483 131.88 298.483 134.147C298.518 134.873 298.312 135.59 297.897 136.187C297.483 136.784 296.883 137.228 296.191 137.449L298.682 140.962L297.038 141ZM297.038 134.185C297.038 132.69 296.041 131.842 294.122 131.842H291.631V136.552H294.122C295.991 136.552 296.988 135.68 296.988 134.185H297.038Z" fill="#263238"/>
<path d="M307.827 137.524H301.411C301.501 138.202 301.849 138.82 302.383 139.249C302.916 139.678 303.594 139.886 304.276 139.829C304.702 139.845 305.127 139.768 305.52 139.605C305.914 139.441 306.267 139.195 306.556 138.882L307.354 139.804C306.769 140.398 306.025 140.81 305.211 140.99C304.397 141.169 303.548 141.109 302.768 140.817C301.987 140.524 301.308 140.011 300.813 139.34C300.318 138.67 300.028 137.87 299.978 137.038C299.956 136.507 300.043 135.977 300.234 135.481C300.425 134.986 300.716 134.535 301.088 134.156C301.461 133.777 301.908 133.48 302.4 133.281C302.893 133.082 303.421 132.987 303.953 133.001C304.482 132.988 305.008 133.085 305.497 133.286C305.987 133.486 306.429 133.787 306.797 134.167C307.165 134.548 307.45 135 307.633 135.497C307.817 135.993 307.896 136.522 307.865 137.05C307.866 137.209 307.853 137.367 307.827 137.524ZM301.411 136.49H306.494C306.494 135.817 306.227 135.172 305.752 134.697C305.276 134.221 304.631 133.954 303.959 133.954C303.286 133.954 302.641 134.221 302.166 134.697C301.69 135.172 301.423 135.817 301.423 136.49H301.411Z" fill="#263238"/>
<path d="M308.849 140.165L309.447 139.031C310.275 139.566 311.24 139.851 312.226 139.854C313.559 139.854 314.107 139.442 314.107 138.77C314.107 137 309.123 138.533 309.123 135.381C309.123 133.96 310.369 133.001 312.425 133.001C313.431 132.986 314.423 133.235 315.303 133.724L314.692 134.857C314.009 134.433 313.217 134.217 312.412 134.235C311.167 134.235 310.544 134.695 310.544 135.318C310.544 137.187 315.527 135.667 315.527 138.745C315.527 140.178 314.207 141.087 312.101 141.087C310.949 141.114 309.815 140.793 308.849 140.165Z" fill="#263238"/>
<path d="M324.473 137.524H318.044C318.14 138.2 318.49 138.814 319.022 139.242C319.554 139.67 320.229 139.88 320.91 139.829C321.337 139.845 321.764 139.769 322.159 139.605C322.555 139.442 322.911 139.195 323.202 138.882L324 139.804C323.6 140.226 323.113 140.555 322.573 140.771C322.033 140.986 321.453 141.081 320.872 141.05C320.32 141.092 319.765 141.017 319.243 140.832C318.721 140.646 318.244 140.353 317.843 139.971C317.441 139.589 317.124 139.128 316.912 138.616C316.7 138.105 316.598 137.554 316.611 137C316.591 136.47 316.679 135.941 316.871 135.446C317.062 134.951 317.353 134.501 317.726 134.123C318.098 133.744 318.544 133.446 319.036 133.247C319.528 133.048 320.055 132.951 320.586 132.964C321.119 132.948 321.649 133.045 322.142 133.247C322.635 133.45 323.081 133.753 323.449 134.138C323.818 134.523 324.102 134.981 324.282 135.483C324.463 135.985 324.537 136.519 324.498 137.05C324.498 137.2 324.485 137.387 324.473 137.524ZM318.044 136.49H323.127C323.065 135.859 322.77 135.274 322.3 134.849C321.831 134.423 321.22 134.187 320.586 134.187C319.952 134.187 319.341 134.423 318.871 134.849C318.401 135.274 318.107 135.859 318.044 136.49Z" fill="#263238"/>
<path d="M330.952 140.539C330.454 140.915 329.843 141.108 329.22 141.087C328.884 141.122 328.544 141.082 328.226 140.969C327.908 140.857 327.618 140.674 327.38 140.435C327.141 140.196 326.958 139.907 326.846 139.589C326.733 139.271 326.693 138.931 326.728 138.595V134.247H325.382V133.063H326.728V131.332H328.161V133.063H330.428V134.247H328.161V138.533C328.136 138.706 328.151 138.883 328.203 139.05C328.256 139.217 328.345 139.37 328.465 139.498C328.584 139.626 328.731 139.725 328.894 139.789C329.057 139.853 329.232 139.879 329.407 139.866C329.811 139.868 330.205 139.737 330.528 139.492L330.952 140.539Z" fill="#263238"/>
<path d="M345.354 134.185C345.354 136.452 343.71 137.835 340.994 137.835H338.415V141H336.919V130.534H340.994C343.71 130.534 345.354 131.917 345.354 134.185ZM343.859 134.185C343.859 132.69 342.862 131.842 340.944 131.842H338.452V136.527H340.944C342.862 136.527 343.872 135.68 343.872 134.185H343.859Z" fill="#263238"/>
<path d="M353.552 136.216V141H352.194V139.953C351.891 140.347 351.494 140.657 351.038 140.855C350.583 141.054 350.085 141.133 349.59 141.087C347.796 141.087 346.663 140.128 346.663 138.757C346.663 137.387 347.485 136.44 349.84 136.44H352.12V136.153C352.12 134.907 351.41 134.247 349.989 134.247C349.087 134.239 348.208 134.538 347.497 135.094L346.899 134.023C347.847 133.326 349 132.966 350.176 133.001C352.332 133.001 353.552 134.048 353.552 136.216ZM352.12 138.583V137.474H349.902C348.482 137.474 348.083 138.022 348.083 138.72C348.083 139.417 348.743 139.966 349.827 139.966C350.306 140.004 350.785 139.892 351.196 139.644C351.608 139.395 351.931 139.024 352.12 138.583Z" fill="#263238"/>
<path d="M355.209 140.165L355.807 139.031C356.636 139.566 357.6 139.851 358.586 139.854C359.919 139.854 360.48 139.442 360.48 138.77C360.48 137 355.496 138.533 355.496 135.381C355.496 133.96 356.742 133.001 358.798 133.001C359.804 132.984 360.797 133.234 361.676 133.724L361.065 134.857C360.382 134.432 359.59 134.215 358.785 134.235C357.539 134.235 356.916 134.695 356.916 135.318C356.916 137.187 361.9 135.667 361.9 138.745C361.9 140.178 360.579 141.087 358.474 141.087C357.318 141.115 356.18 140.793 355.209 140.165Z" fill="#263238"/>
<path d="M362.71 140.165L363.308 139.031C364.136 139.567 365.1 139.853 366.086 139.854C367.407 139.854 367.968 139.442 367.968 138.77C367.968 137 362.984 138.533 362.984 135.381C362.984 133.96 364.23 133.001 366.286 133.001C367.296 132.986 368.292 133.235 369.176 133.724L368.553 134.857C367.87 134.432 367.078 134.215 366.273 134.235C365.027 134.235 364.404 134.695 364.404 135.318C364.404 137.187 369.388 135.667 369.388 138.745C369.388 140.178 368.067 141.087 365.962 141.087C364.809 141.117 363.675 140.795 362.71 140.165Z" fill="#263238"/>
<path d="M383.031 133.076L380.078 141H378.757L376.477 134.995L374.16 141H372.777L369.836 133.076H371.194L373.499 139.393L375.892 133.076H377.137L379.48 139.417L381.847 133.076H383.031Z" fill="#263238"/>
<path d="M383.529 137.05C383.514 136.232 383.744 135.427 384.188 134.739C384.632 134.051 385.27 133.511 386.022 133.187C386.775 132.864 387.606 132.771 388.411 132.922C389.216 133.072 389.958 133.459 390.542 134.033C391.126 134.607 391.526 135.341 391.692 136.143C391.857 136.945 391.78 137.778 391.47 138.536C391.16 139.294 390.632 139.942 389.952 140.399C389.272 140.855 388.472 141.099 387.653 141.099C387.112 141.124 386.571 141.036 386.064 140.842C385.558 140.648 385.097 140.352 384.71 139.972C384.323 139.592 384.019 139.137 383.816 138.634C383.613 138.131 383.515 137.592 383.529 137.05ZM390.319 137.05C390.295 136.529 390.118 136.026 389.811 135.604C389.503 135.183 389.079 134.86 388.59 134.678C388.101 134.495 387.57 134.459 387.061 134.576C386.552 134.692 386.089 134.956 385.728 135.333C385.368 135.71 385.126 136.185 385.033 136.699C384.939 137.212 384.999 137.742 385.204 138.222C385.409 138.702 385.75 139.111 386.186 139.399C386.621 139.687 387.131 139.841 387.653 139.841C388.017 139.851 388.378 139.784 388.714 139.646C389.05 139.507 389.354 139.3 389.605 139.037C389.856 138.774 390.05 138.461 390.173 138.119C390.296 137.777 390.346 137.413 390.319 137.05Z" fill="#263238"/>
<path d="M398.019 133.001V134.396H397.682C397.334 134.373 396.984 134.427 396.659 134.556C396.335 134.684 396.042 134.883 395.804 135.138C395.565 135.393 395.386 135.698 395.28 136.031C395.174 136.364 395.144 136.717 395.191 137.063V141.012H393.708V133.088H395.079V134.421C395.383 133.929 395.821 133.534 396.342 133.283C396.863 133.031 397.444 132.934 398.019 133.001Z" fill="#263238"/>
<path d="M407.176 129.911V141H405.806V139.754C405.48 140.192 405.051 140.543 404.558 140.777C404.066 141.012 403.523 141.122 402.978 141.099C401.944 141.042 400.972 140.591 400.26 139.839C399.549 139.087 399.153 138.092 399.153 137.057C399.153 136.021 399.549 135.026 400.26 134.274C400.972 133.522 401.944 133.071 402.978 133.014C403.504 132.992 404.028 133.093 404.508 133.31C404.988 133.526 405.411 133.851 405.743 134.259V129.899L407.176 129.911ZM405.756 137.05C405.732 136.528 405.554 136.025 405.246 135.603C404.938 135.181 404.513 134.859 404.024 134.676C403.534 134.494 403.002 134.459 402.493 134.577C401.984 134.695 401.52 134.959 401.16 135.338C400.8 135.716 400.56 136.192 400.468 136.707C400.376 137.221 400.437 137.751 400.644 138.23C400.851 138.71 401.194 139.119 401.631 139.405C402.068 139.691 402.58 139.843 403.102 139.841C403.465 139.849 403.825 139.781 404.159 139.642C404.494 139.502 404.796 139.295 405.046 139.032C405.296 138.769 405.488 138.457 405.61 138.116C405.732 137.775 405.782 137.412 405.756 137.05Z" fill="#263238"/>
</g>
<path d="M430.014 235.677H266.999V263.585H430.014V235.677Z" fill="white"/>
<g opacity="0.4">
<path d="M282.61 245.083V253.082H281.912L276.767 246.591V253.082H275.919V245.083H276.592L281.75 251.574V245.083H282.61Z" fill="#263238"/>
<path d="M290.297 250.329H285.313C285.329 250.622 285.403 250.91 285.531 251.174C285.659 251.439 285.839 251.676 286.059 251.871C286.279 252.065 286.536 252.214 286.814 252.309C287.093 252.404 287.387 252.442 287.681 252.422C288.025 252.433 288.367 252.368 288.684 252.232C289 252.097 289.283 251.894 289.512 251.637L289.973 252.16C289.541 252.611 288.986 252.925 288.377 253.062C287.768 253.199 287.132 253.154 286.549 252.932C285.965 252.71 285.46 252.321 285.096 251.814C284.733 251.306 284.527 250.703 284.504 250.079C284.481 249.683 284.541 249.287 284.678 248.915C284.816 248.542 285.029 248.203 285.303 247.916C285.578 247.63 285.909 247.403 286.275 247.25C286.641 247.097 287.035 247.021 287.431 247.027C287.828 247.019 288.222 247.094 288.589 247.246C288.955 247.399 289.286 247.626 289.56 247.913C289.834 248.2 290.045 248.54 290.181 248.913C290.316 249.286 290.373 249.683 290.347 250.079C290.297 250.154 290.297 250.241 290.297 250.329ZM285.313 249.73H289.574C289.574 249.165 289.35 248.624 288.95 248.224C288.551 247.824 288.009 247.6 287.444 247.6C286.879 247.6 286.337 247.824 285.937 248.224C285.538 248.624 285.313 249.165 285.313 249.73Z" fill="#263238"/>
<path d="M300.651 247.077L298.383 253.082H297.611L295.717 248.161L293.823 253.082H293.051L290.795 247.077H291.543L293.424 252.185L295.355 247.077H296.053L297.972 252.185L299.878 247.077H300.651Z" fill="#263238"/>
<path d="M311.304 247.824C311.304 249.531 310.058 250.565 308.039 250.565H305.884V253.057H305.037V245.058H308.039C310.07 245.083 311.304 246.117 311.304 247.824ZM310.456 247.824C310.456 246.578 309.609 245.818 307.965 245.818H305.834V249.818H307.965C309.609 249.818 310.456 249.083 310.456 247.824Z" fill="#263238"/>
<path d="M317.433 249.357V253.094H316.661V252.16C316.438 252.497 316.128 252.768 315.764 252.943C315.4 253.119 314.995 253.192 314.593 253.157C313.235 253.157 312.4 252.447 312.4 251.413C312.4 250.378 312.998 249.706 314.717 249.706H316.624V249.344C316.645 249.121 316.616 248.895 316.537 248.685C316.458 248.474 316.332 248.285 316.168 248.131C316.004 247.977 315.808 247.862 315.593 247.796C315.378 247.73 315.151 247.714 314.929 247.75C314.197 247.737 313.484 247.989 312.923 248.46L312.562 247.849C313.271 247.293 314.153 247.006 315.054 247.039C315.37 247.001 315.691 247.033 315.993 247.135C316.295 247.237 316.571 247.405 316.799 247.628C317.027 247.85 317.203 248.121 317.313 248.42C317.422 248.719 317.464 249.039 317.433 249.357ZM316.624 251.275V250.291H314.742C313.571 250.291 313.197 250.752 313.197 251.375C313.197 251.998 313.758 252.509 314.717 252.509C315.125 252.533 315.53 252.426 315.872 252.204C316.215 251.983 316.478 251.657 316.624 251.275Z" fill="#263238"/>
<path d="M318.804 252.397L319.177 251.761C319.799 252.205 320.545 252.441 321.308 252.434C322.454 252.434 322.928 252.048 322.928 251.45C322.928 249.88 319.028 251.126 319.028 248.746C319.028 247.762 319.875 247.027 321.408 247.027C322.151 247.019 322.883 247.213 323.526 247.588L323.177 248.235C322.651 247.892 322.035 247.714 321.408 247.725C320.311 247.725 319.838 248.148 319.838 248.721C319.838 250.341 323.738 249.12 323.738 251.425C323.738 252.471 322.816 253.144 321.246 253.144C320.372 253.165 319.516 252.903 318.804 252.397Z" fill="#263238"/>
<path d="M324.398 252.397L324.759 251.761C325.388 252.2 326.136 252.435 326.902 252.434C328.036 252.434 328.509 252.048 328.509 251.45C328.509 249.88 324.61 251.126 324.61 248.746C324.61 247.762 325.457 247.027 326.989 247.027C327.737 247.02 328.473 247.214 329.12 247.588L328.759 248.235C328.235 247.889 327.617 247.711 326.989 247.725C325.906 247.725 325.42 248.148 325.42 248.721C325.42 250.341 329.319 249.12 329.319 251.425C329.319 252.471 328.41 253.144 326.827 253.144C325.958 253.167 325.105 252.904 324.398 252.397Z" fill="#263238"/>
<path d="M339.523 247.077L337.256 253.082H336.483L334.59 248.161L332.658 253.082H331.886L329.631 247.077H330.403L332.285 252.185L334.216 247.077H334.914L336.832 252.185L338.738 247.077H339.523Z" fill="#263238"/>
<path d="M339.972 250.079C339.974 249.477 340.155 248.888 340.492 248.388C340.828 247.888 341.305 247.499 341.862 247.269C342.419 247.04 343.032 246.98 343.623 247.099C344.214 247.217 344.757 247.507 345.183 247.933C345.609 248.36 345.899 248.902 346.018 249.493C346.136 250.084 346.076 250.697 345.847 251.254C345.617 251.811 345.228 252.288 344.728 252.625C344.228 252.961 343.64 253.142 343.037 253.144C342.63 253.16 342.225 253.092 341.846 252.943C341.467 252.795 341.122 252.569 340.835 252.282C340.547 251.994 340.322 251.65 340.173 251.271C340.025 250.892 339.956 250.486 339.972 250.079ZM345.255 250.079C345.233 249.643 345.083 249.223 344.825 248.871C344.566 248.519 344.21 248.251 343.8 248.1C343.39 247.948 342.945 247.92 342.52 248.02C342.095 248.119 341.708 248.341 341.408 248.658C341.108 248.975 340.907 249.374 340.831 249.804C340.755 250.234 340.807 250.677 340.981 251.077C341.154 251.478 341.441 251.819 341.807 252.058C342.173 252.297 342.6 252.424 343.037 252.422C343.34 252.426 343.641 252.367 343.92 252.249C344.199 252.131 344.451 251.957 344.659 251.737C344.868 251.517 345.028 251.256 345.131 250.97C345.233 250.685 345.275 250.382 345.255 250.079Z" fill="#263238"/>
<path d="M350.774 247.027V247.824H350.575C350.289 247.808 350.003 247.856 349.738 247.964C349.474 248.072 349.236 248.238 349.043 248.449C348.85 248.66 348.706 248.911 348.622 249.184C348.538 249.458 348.515 249.746 348.556 250.03V253.094H347.734V247.089H348.519V248.26C348.726 247.851 349.052 247.513 349.455 247.293C349.857 247.073 350.317 246.98 350.774 247.027Z" fill="#263238"/>
<path d="M357.651 244.61V253.082H356.879V251.898C356.639 252.294 356.298 252.618 355.89 252.837C355.483 253.056 355.024 253.162 354.562 253.144C353.784 253.095 353.055 252.751 352.522 252.183C351.989 251.614 351.692 250.865 351.692 250.086C351.692 249.307 351.989 248.557 352.522 247.989C353.055 247.42 353.784 247.077 354.562 247.027C355.017 247.017 355.468 247.126 355.868 247.345C356.268 247.564 356.604 247.884 356.842 248.273V244.66L357.651 244.61ZM356.854 250.079C356.832 249.644 356.683 249.224 356.425 248.872C356.167 248.521 355.811 248.252 355.402 248.101C354.993 247.949 354.549 247.92 354.124 248.019C353.699 248.117 353.312 248.338 353.011 248.654C352.711 248.97 352.509 249.367 352.432 249.796C352.354 250.225 352.405 250.668 352.576 251.069C352.748 251.47 353.033 251.812 353.397 252.052C353.761 252.293 354.188 252.421 354.624 252.422C354.928 252.428 355.23 252.37 355.511 252.253C355.791 252.136 356.045 251.962 356.254 251.741C356.464 251.521 356.626 251.26 356.729 250.973C356.832 250.687 356.875 250.383 356.854 250.079Z" fill="#263238"/>
</g>
<path d="M430.014 172.621H266.999V200.529H430.014V172.621Z" fill="white"/>
<g opacity="0.4">
<path d="M275.222 186.027C275.195 185.191 275.418 184.366 275.862 183.658C276.306 182.95 276.952 182.391 277.717 182.052C278.481 181.713 279.329 181.61 280.153 181.756C280.976 181.902 281.737 182.291 282.338 182.872C282.939 183.454 283.352 184.201 283.526 185.019C283.699 185.837 283.625 186.688 283.311 187.464C282.998 188.239 282.46 188.903 281.767 189.37C281.074 189.838 280.257 190.088 279.421 190.089C278.875 190.112 278.329 190.025 277.818 189.831C277.307 189.637 276.841 189.341 276.448 188.961C276.055 188.581 275.744 188.124 275.533 187.62C275.322 187.116 275.216 186.574 275.222 186.027ZM282.772 186.027C282.782 185.359 282.593 184.703 282.229 184.143C281.865 183.583 281.342 183.145 280.728 182.883C280.113 182.621 279.435 182.548 278.778 182.673C278.122 182.798 277.518 183.116 277.043 183.585C276.568 184.055 276.244 184.655 276.111 185.31C275.979 185.965 276.044 186.644 276.299 187.261C276.554 187.879 276.987 188.406 277.543 188.777C278.099 189.147 278.753 189.344 279.421 189.341C279.866 189.364 280.311 189.294 280.728 189.136C281.145 188.979 281.525 188.737 281.844 188.426C282.164 188.115 282.415 187.741 282.583 187.329C282.752 186.916 282.833 186.473 282.822 186.027H282.772Z" fill="#263238"/>
<path d="M285.314 181.542H286.124V190.026H285.314V181.542Z" fill="#263238"/>
<path d="M293.898 181.542V190.026H293.126V188.781C292.884 189.174 292.542 189.497 292.135 189.716C291.728 189.935 291.27 190.042 290.808 190.026C289.999 190.026 289.222 189.705 288.65 189.132C288.077 188.56 287.756 187.784 287.756 186.974C287.756 186.164 288.077 185.388 288.65 184.816C289.222 184.243 289.999 183.921 290.808 183.921C291.264 183.913 291.714 184.023 292.114 184.241C292.514 184.46 292.85 184.779 293.088 185.167V181.554L293.898 181.542ZM293.101 187.011C293.081 186.572 292.933 186.148 292.674 185.792C292.416 185.437 292.058 185.165 291.647 185.011C291.235 184.857 290.787 184.827 290.358 184.925C289.93 185.024 289.539 185.246 289.236 185.565C288.933 185.883 288.73 186.284 288.653 186.717C288.575 187.149 288.627 187.595 288.801 187.999C288.975 188.403 289.264 188.747 289.632 188.988C290 189.228 290.431 189.356 290.871 189.354C291.174 189.358 291.475 189.299 291.755 189.181C292.035 189.063 292.288 188.889 292.497 188.669C292.706 188.449 292.868 188.189 292.972 187.903C293.076 187.618 293.12 187.314 293.101 187.011Z" fill="#263238"/>
<path d="M305.585 184.769C305.585 186.463 304.339 187.497 302.321 187.497H300.178V189.989H299.331V182.028H302.321C304.352 182.028 305.585 183.049 305.585 184.769ZM304.738 184.769C304.738 183.523 303.891 182.75 302.246 182.75H300.128V186.75H302.246C303.891 186.75 304.738 186.027 304.738 184.769Z" fill="#263238"/>
<path d="M311.727 186.301V190.039H310.942V189.092C310.719 189.429 310.409 189.7 310.045 189.875C309.681 190.051 309.277 190.124 308.874 190.089C307.516 190.089 306.681 189.379 306.681 188.344C306.681 187.31 307.279 186.638 308.999 186.638H310.917V186.276C310.917 185.242 310.332 184.681 309.21 184.681C308.479 184.673 307.768 184.925 307.204 185.392L306.843 184.794C307.549 184.232 308.434 183.944 309.335 183.984C309.652 183.945 309.973 183.978 310.276 184.08C310.578 184.182 310.854 184.35 311.084 184.572C311.313 184.794 311.49 185.065 311.601 185.364C311.712 185.663 311.755 185.983 311.727 186.301ZM310.917 188.22V187.236H308.986C307.827 187.236 307.441 187.697 307.441 188.307C307.441 188.918 308.002 189.441 308.961 189.441C309.375 189.475 309.789 189.374 310.141 189.154C310.494 188.934 310.766 188.607 310.917 188.22Z" fill="#263238"/>
<path d="M313.098 189.379L313.459 188.731C314.083 189.178 314.834 189.413 315.602 189.403C316.736 189.403 317.209 189.017 317.209 188.432C317.209 186.862 313.309 188.095 313.309 185.716C313.309 184.731 314.157 184.009 315.689 184.009C316.437 183.996 317.174 184.19 317.82 184.569L317.458 185.217C316.934 184.871 316.317 184.693 315.689 184.706C314.605 184.706 314.119 185.118 314.119 185.691C314.119 187.323 318.019 186.089 318.019 188.407C318.019 189.441 317.109 190.114 315.527 190.114C314.659 190.14 313.806 189.882 313.098 189.379Z" fill="#263238"/>
<path d="M318.679 189.379L319.053 188.731C319.671 189.18 320.419 189.416 321.183 189.403C322.33 189.403 322.791 189.017 322.791 188.432C322.791 186.862 318.903 188.095 318.903 185.716C318.903 184.731 319.751 184.009 321.271 184.009C322.019 183.992 322.758 184.187 323.401 184.569L323.052 185.217C322.523 184.872 321.902 184.694 321.271 184.706C320.187 184.706 319.713 185.118 319.713 185.691C319.713 187.323 323.613 186.089 323.613 188.407C323.613 189.441 322.691 190.114 321.121 190.114C320.249 190.138 319.393 189.88 318.679 189.379Z" fill="#263238"/>
<path d="M333.805 184.009L331.537 190.026H330.777L328.871 185.043L326.977 190.026H326.217L323.937 184.009H324.709L326.603 189.117L328.534 184.009H329.232L331.151 189.117L333.057 184.009H333.805Z" fill="#263238"/>
<path d="M334.253 187.011C334.253 186.405 334.433 185.813 334.77 185.309C335.107 184.804 335.585 184.412 336.145 184.18C336.705 183.948 337.322 183.887 337.916 184.005C338.511 184.124 339.057 184.415 339.485 184.844C339.914 185.273 340.206 185.819 340.324 186.413C340.442 187.008 340.382 187.624 340.15 188.184C339.918 188.744 339.525 189.223 339.021 189.56C338.517 189.897 337.924 190.076 337.318 190.076C336.911 190.092 336.506 190.024 336.127 189.875C335.748 189.727 335.404 189.501 335.116 189.214C334.828 188.926 334.603 188.582 334.454 188.203C334.306 187.824 334.237 187.418 334.253 187.011ZM339.548 187.011C339.529 186.572 339.38 186.148 339.122 185.792C338.863 185.437 338.506 185.165 338.094 185.011C337.682 184.857 337.234 184.827 336.806 184.925C336.377 185.024 335.987 185.246 335.684 185.565C335.38 185.883 335.178 186.284 335.1 186.717C335.023 187.149 335.074 187.596 335.249 187.999C335.423 188.403 335.712 188.747 336.08 188.988C336.448 189.228 336.878 189.356 337.318 189.354C337.622 189.36 337.924 189.302 338.205 189.185C338.486 189.068 338.739 188.894 338.949 188.673C339.158 188.453 339.32 188.192 339.423 187.905C339.527 187.619 339.569 187.315 339.548 187.011Z" fill="#263238"/>
<path d="M345.117 183.971V184.756H344.918C344.632 184.742 344.346 184.792 344.081 184.901C343.816 185.011 343.579 185.177 343.386 185.389C343.193 185.601 343.05 185.853 342.965 186.127C342.881 186.401 342.859 186.69 342.9 186.974V190.039H342.09V184.021H342.862V185.205C343.071 184.796 343.397 184.46 343.799 184.24C344.202 184.02 344.661 183.926 345.117 183.971Z" fill="#263238"/>
<path d="M351.945 181.542V190.026H351.173V188.781C350.929 189.175 350.585 189.499 350.176 189.717C349.767 189.936 349.307 190.043 348.843 190.026C348.033 190.026 347.257 189.705 346.685 189.132C346.112 188.56 345.791 187.784 345.791 186.974C345.791 186.164 346.112 185.388 346.685 184.816C347.257 184.243 348.033 183.921 348.843 183.921C349.3 183.914 349.751 184.025 350.153 184.243C350.555 184.462 350.893 184.78 351.135 185.167V181.554L351.945 181.542ZM351.148 187.011C351.128 186.572 350.98 186.148 350.722 185.792C350.463 185.437 350.106 185.165 349.694 185.011C349.282 184.857 348.834 184.827 348.405 184.925C347.977 185.024 347.587 185.246 347.283 185.565C346.98 185.883 346.777 186.284 346.7 186.717C346.622 187.149 346.674 187.595 346.848 187.999C347.022 188.403 347.311 188.747 347.679 188.988C348.047 189.228 348.478 189.356 348.918 189.354C349.221 189.358 349.522 189.299 349.802 189.181C350.082 189.063 350.335 188.889 350.544 188.669C350.753 188.449 350.915 188.189 351.019 187.903C351.123 187.618 351.167 187.314 351.148 187.011Z" fill="#263238"/>
</g>
<path d="M449.774 105.367C453.659 98.5961 460.073 93.644 467.606 91.5977C475.14 89.5514 483.177 90.5781 489.955 94.4525L488.709 96.5581L497.056 94.2906L494.789 85.943L493.543 88.0361C485.979 83.7012 477.122 82.1901 468.549 83.7716C459.976 85.353 452.241 89.9246 446.722 96.6729C441.202 103.421 438.256 111.909 438.406 120.625C438.557 129.342 441.795 137.723 447.544 144.277L453.1 139.405C449.069 134.785 446.581 129.021 445.985 122.919C445.389 116.816 446.713 110.68 449.774 105.367Z" fill="#263238"/>
<path d="M503.348 96.1719L497.742 100.919C502.225 106.201 504.702 112.895 504.736 119.824C504.771 126.752 502.36 133.47 497.93 138.797C493.499 144.124 487.332 147.717 480.513 148.945C473.695 150.173 466.661 148.956 460.651 145.51L461.897 143.404L453.512 145.772L455.779 154.119L457.025 152.014C464.55 156.294 473.341 157.788 481.857 156.234C490.374 154.679 498.07 150.176 503.597 143.513C509.124 136.85 512.129 128.454 512.083 119.797C512.038 111.14 508.945 102.776 503.348 96.1719Z" fill="#263238"/>
<g opacity="0.6">
<path d="M449.774 105.367C453.659 98.5961 460.073 93.644 467.606 91.5977C475.14 89.5514 483.177 90.5781 489.955 94.4525L488.709 96.5581L497.056 94.2906L494.789 85.943L493.543 88.0361C485.979 83.7012 477.122 82.1901 468.549 83.7716C459.976 85.353 452.241 89.9246 446.722 96.6729C441.202 103.421 438.256 111.909 438.406 120.625C438.557 129.342 441.795 137.723 447.544 144.277L453.1 139.405C449.069 134.785 446.581 129.021 445.985 122.919C445.389 116.816 446.713 110.68 449.774 105.367Z" fill="white"/>
<path d="M503.348 96.1719L497.742 100.919C502.225 106.201 504.702 112.895 504.736 119.824C504.771 126.752 502.36 133.47 497.93 138.797C493.499 144.124 487.332 147.717 480.513 148.945C473.695 150.173 466.661 148.956 460.651 145.51L461.897 143.404L453.512 145.772L455.779 154.119L457.025 152.014C464.55 156.294 473.341 157.788 481.857 156.234C490.374 154.679 498.07 150.176 503.597 143.513C509.124 136.85 512.129 128.454 512.083 119.797C512.038 111.14 508.945 102.776 503.348 96.1719Z" fill="white"/>
</g>
<path d="M469.983 85.0833H461.86V60.1651C461.86 55.5819 460.039 51.1865 456.798 47.9457C453.558 44.7049 449.162 42.8843 444.579 42.8843C439.996 42.8843 435.6 44.7049 432.36 47.9457C429.119 51.1865 427.298 55.5819 427.298 60.1651V85.0833H419.175V60.1651C419.175 53.4275 421.851 46.9658 426.615 42.2016C431.38 37.4374 437.841 34.7609 444.579 34.7609C451.317 34.7609 457.778 37.4374 462.542 42.2016C467.307 46.9658 469.983 53.4275 469.983 60.1651V85.0833Z" fill="#263238"/>
<g opacity="0.3">
<path d="M469.983 85.0833H461.86V60.1651C461.86 55.5819 460.039 51.1865 456.798 47.9457C453.558 44.7049 449.162 42.8843 444.579 42.8843C439.996 42.8843 435.6 44.7049 432.36 47.9457C429.119 51.1865 427.298 55.5819 427.298 60.1651V85.0833H419.175V60.1651C419.175 53.4275 421.851 46.9658 426.615 42.2016C431.38 37.4374 437.841 34.7609 444.579 34.7609C451.317 34.7609 457.778 37.4374 462.542 42.2016C467.307 46.9658 469.983 53.4275 469.983 60.1651V85.0833Z" fill="white"/>
</g>
<path d="M479.29 78.7416V119.52C479.29 120.142 479.167 120.758 478.93 121.332C478.692 121.907 478.343 122.428 477.903 122.868C477.464 123.308 476.942 123.656 476.367 123.894C475.793 124.132 475.177 124.255 474.555 124.255H414.577C413.957 124.253 413.343 124.129 412.771 123.891C412.199 123.652 411.679 123.303 411.242 122.863C410.805 122.423 410.458 121.902 410.222 121.328C409.987 120.755 409.866 120.14 409.868 119.52V78.7416C409.866 78.1215 409.987 77.5071 410.222 76.9336C410.458 76.3601 410.805 75.8386 411.242 75.399C411.679 74.9594 412.199 74.6102 412.771 74.3714C413.343 74.1325 413.957 74.0088 414.577 74.0071H474.555C475.34 74.0016 476.112 74.199 476.798 74.5803C477.553 74.9815 478.184 75.5811 478.623 76.3144C479.062 77.0477 479.292 77.8869 479.29 78.7416Z" fill="#FD7D00"/>
<path opacity="0.2" d="M476.798 74.5803V114.537C476.798 115.158 476.675 115.773 476.437 116.347C476.199 116.92 475.85 117.441 475.411 117.88C474.971 118.319 474.449 118.666 473.874 118.903C473.3 119.139 472.685 119.26 472.064 119.259H412.085C411.311 119.261 410.548 119.068 409.868 118.698V78.7416C409.866 78.1215 409.987 77.5071 410.222 76.9336C410.458 76.3601 410.805 75.8386 411.242 75.399C411.679 74.9594 412.199 74.6102 412.771 74.3714C413.343 74.1325 413.957 74.0088 414.577 74.0071H474.555C475.34 74.0016 476.112 74.199 476.798 74.5803Z" fill="white"/>
<path opacity="0.5" d="M453.512 94.0165C453.489 92.3904 453.023 90.8014 452.164 89.4208C451.304 88.0402 450.085 86.9203 448.636 86.182C447.187 85.4437 445.564 85.1148 443.942 85.231C442.32 85.3471 440.76 85.9039 439.431 86.8411C438.102 87.7784 437.054 89.0607 436.4 90.5496C435.747 92.0386 435.512 93.6778 435.721 95.2905C435.93 96.9032 436.575 98.4282 437.587 99.7011C438.6 100.974 439.94 101.946 441.464 102.514L441.053 113.378H448.192L447.133 102.725C448.99 102.151 450.613 100.993 451.762 99.4251C452.91 97.8568 453.524 95.9605 453.512 94.0165Z" fill="black"/>
<path d="M158.692 105.367L162.828 118.661L166.952 105.367H158.692Z" fill="#FD7D00"/>
<path d="M196.642 73.6085H129.002C123.091 73.6085 118.299 78.4001 118.299 84.3108V98.726C118.299 104.637 123.091 109.428 129.002 109.428H196.642C202.553 109.428 207.345 104.637 207.345 98.726V84.3108C207.345 78.4001 202.553 73.6085 196.642 73.6085Z" fill="#FD7D00"/>
<path d="M139.231 91.4997L141.573 92.8204L140.962 93.8919L138.583 92.4965V95.1752H137.337V92.4965L134.957 93.8919L134.347 92.8204L136.714 91.4997L134.347 90.2538L134.957 89.1574L137.337 90.5528V87.8368H138.583V90.4905L140.962 89.0951L141.573 90.1915L139.231 91.4997Z" fill="white"/>
<path d="M147.504 91.4997L149.846 92.8204L149.235 93.8919L146.856 92.4965V95.1752H145.685V92.4965L143.28 93.8919L142.669 92.8204L145.037 91.4997L142.669 90.2538L143.28 89.1574L145.66 90.5528V87.8368H146.831V90.4905L149.21 89.0951L149.821 90.1915L147.504 91.4997Z" fill="white"/>
<path d="M155.739 91.4997L158.081 92.8204L157.471 93.8919L155.091 92.4965V95.1752H153.845V92.4965L151.465 93.8919L150.855 92.8204L153.21 91.4997L150.855 90.2538L151.465 89.1574L153.845 90.5528V87.8991H155.091V90.5528L157.471 89.1574L158.081 90.2538L155.739 91.4997Z" fill="white"/>
<path d="M164.049 91.4997L166.392 92.8204L165.781 93.8919L163.401 92.4965V95.1752H162.218V92.4965L159.838 93.8919L159.228 92.8204L161.582 91.4997L159.228 90.2538L159.838 89.1574L162.218 90.5528V87.8991H163.401V90.5528L165.781 89.1574L166.392 90.2538L164.049 91.4997Z" fill="white"/>
<path d="M172.322 91.4997L174.664 92.8204L174.054 93.8919L171.662 92.4965V95.1752H170.416V92.4965L168.198 93.8919L167.575 92.8204L169.942 91.4997L167.575 90.2538L168.198 89.1574L170.578 90.5528V87.8991H171.824V90.5528L174.216 89.1574L174.826 90.2538L172.322 91.4997Z" fill="white"/>
<path d="M180.583 91.4997L182.937 92.8204L182.327 93.8919L179.935 92.4965V95.1752H178.751V92.4965L176.359 93.8919L175.749 92.8204L178.116 91.4997L175.749 90.2538L176.359 89.1574L178.751 90.5528V87.8991H179.935V90.5528L182.327 89.1574L182.937 90.2538L180.583 91.4997Z" fill="white"/>
<path d="M188.855 91.4997L191.197 92.8204L190.587 93.8919L188.207 92.4965V95.1752H186.961V92.4965L184.582 93.8919L183.971 92.8204L186.338 91.4997L183.971 90.2538L184.582 89.1574L186.961 90.5528V87.8368H188.207V90.4905L190.587 89.0951L191.197 90.1915L188.855 91.4997Z" fill="white"/>
</svg>
